%FSLAX44Y44*%
%MOMM*%
G71*
G01*
G75*
G04 Layer_Physical_Order=8*
G04 Layer_Color=16711680*
%ADD10C,1.0000*%
G04:AMPARAMS|DCode=11|XSize=0.9mm|YSize=0.6mm|CornerRadius=0.15mm|HoleSize=0mm|Usage=FLASHONLY|Rotation=90.000|XOffset=0mm|YOffset=0mm|HoleType=Round|Shape=RoundedRectangle|*
%AMROUNDEDRECTD11*
21,1,0.9000,0.3000,0,0,90.0*
21,1,0.6000,0.6000,0,0,90.0*
1,1,0.3000,0.1500,0.3000*
1,1,0.3000,0.1500,-0.3000*
1,1,0.3000,-0.1500,-0.3000*
1,1,0.3000,-0.1500,0.3000*
%
%ADD11ROUNDEDRECTD11*%
G04:AMPARAMS|DCode=12|XSize=1.4mm|YSize=0.9mm|CornerRadius=0.225mm|HoleSize=0mm|Usage=FLASHONLY|Rotation=0.000|XOffset=0mm|YOffset=0mm|HoleType=Round|Shape=RoundedRectangle|*
%AMROUNDEDRECTD12*
21,1,1.4000,0.4500,0,0,0.0*
21,1,0.9500,0.9000,0,0,0.0*
1,1,0.4500,0.4750,-0.2250*
1,1,0.4500,-0.4750,-0.2250*
1,1,0.4500,-0.4750,0.2250*
1,1,0.4500,0.4750,0.2250*
%
%ADD12ROUNDEDRECTD12*%
%ADD13R,1.5700X1.8800*%
%ADD14O,1.6500X0.3000*%
%ADD15R,1.6500X0.3000*%
%ADD16R,0.5000X0.5000*%
%ADD17O,0.8000X0.2500*%
%ADD18O,0.2500X0.8000*%
%ADD19R,0.2500X0.8000*%
G04:AMPARAMS|DCode=20|XSize=0.9mm|YSize=0.6mm|CornerRadius=0.15mm|HoleSize=0mm|Usage=FLASHONLY|Rotation=0.000|XOffset=0mm|YOffset=0mm|HoleType=Round|Shape=RoundedRectangle|*
%AMROUNDEDRECTD20*
21,1,0.9000,0.3000,0,0,0.0*
21,1,0.6000,0.6000,0,0,0.0*
1,1,0.3000,0.3000,-0.1500*
1,1,0.3000,-0.3000,-0.1500*
1,1,0.3000,-0.3000,0.1500*
1,1,0.3000,0.3000,0.1500*
%
%ADD20ROUNDEDRECTD20*%
G04:AMPARAMS|DCode=21|XSize=1.4mm|YSize=0.9mm|CornerRadius=0.225mm|HoleSize=0mm|Usage=FLASHONLY|Rotation=90.000|XOffset=0mm|YOffset=0mm|HoleType=Round|Shape=RoundedRectangle|*
%AMROUNDEDRECTD21*
21,1,1.4000,0.4500,0,0,90.0*
21,1,0.9500,0.9000,0,0,90.0*
1,1,0.4500,0.2250,0.4750*
1,1,0.4500,0.2250,-0.4750*
1,1,0.4500,-0.2250,-0.4750*
1,1,0.4500,-0.2250,0.4750*
%
%ADD21ROUNDEDRECTD21*%
G04:AMPARAMS|DCode=22|XSize=0.6mm|YSize=0.45mm|CornerRadius=0.1125mm|HoleSize=0mm|Usage=FLASHONLY|Rotation=270.000|XOffset=0mm|YOffset=0mm|HoleType=Round|Shape=RoundedRectangle|*
%AMROUNDEDRECTD22*
21,1,0.6000,0.2250,0,0,270.0*
21,1,0.3750,0.4500,0,0,270.0*
1,1,0.2250,-0.1125,-0.1875*
1,1,0.2250,-0.1125,0.1875*
1,1,0.2250,0.1125,0.1875*
1,1,0.2250,0.1125,-0.1875*
%
%ADD22ROUNDEDRECTD22*%
G04:AMPARAMS|DCode=23|XSize=0.6mm|YSize=0.45mm|CornerRadius=0.1125mm|HoleSize=0mm|Usage=FLASHONLY|Rotation=180.000|XOffset=0mm|YOffset=0mm|HoleType=Round|Shape=RoundedRectangle|*
%AMROUNDEDRECTD23*
21,1,0.6000,0.2250,0,0,180.0*
21,1,0.3750,0.4500,0,0,180.0*
1,1,0.2250,-0.1875,0.1125*
1,1,0.2250,0.1875,0.1125*
1,1,0.2250,0.1875,-0.1125*
1,1,0.2250,-0.1875,-0.1125*
%
%ADD23ROUNDEDRECTD23*%
G04:AMPARAMS|DCode=24|XSize=2.7mm|YSize=1.6mm|CornerRadius=0.4mm|HoleSize=0mm|Usage=FLASHONLY|Rotation=180.000|XOffset=0mm|YOffset=0mm|HoleType=Round|Shape=RoundedRectangle|*
%AMROUNDEDRECTD24*
21,1,2.7000,0.8000,0,0,180.0*
21,1,1.9000,1.6000,0,0,180.0*
1,1,0.8000,-0.9500,0.4000*
1,1,0.8000,0.9500,0.4000*
1,1,0.8000,0.9500,-0.4000*
1,1,0.8000,-0.9500,-0.4000*
%
%ADD24ROUNDEDRECTD24*%
G04:AMPARAMS|DCode=25|XSize=1.4mm|YSize=1.2mm|CornerRadius=0.18mm|HoleSize=0mm|Usage=FLASHONLY|Rotation=90.000|XOffset=0mm|YOffset=0mm|HoleType=Round|Shape=RoundedRectangle|*
%AMROUNDEDRECTD25*
21,1,1.4000,0.8400,0,0,90.0*
21,1,1.0400,1.2000,0,0,90.0*
1,1,0.3600,0.4200,0.5200*
1,1,0.3600,0.4200,-0.5200*
1,1,0.3600,-0.4200,-0.5200*
1,1,0.3600,-0.4200,0.5200*
%
%ADD25ROUNDEDRECTD25*%
G04:AMPARAMS|DCode=26|XSize=0.9mm|YSize=0.7mm|CornerRadius=0.175mm|HoleSize=0mm|Usage=FLASHONLY|Rotation=180.000|XOffset=0mm|YOffset=0mm|HoleType=Round|Shape=RoundedRectangle|*
%AMROUNDEDRECTD26*
21,1,0.9000,0.3500,0,0,180.0*
21,1,0.5500,0.7000,0,0,180.0*
1,1,0.3500,-0.2750,0.1750*
1,1,0.3500,0.2750,0.1750*
1,1,0.3500,0.2750,-0.1750*
1,1,0.3500,-0.2750,-0.1750*
%
%ADD26ROUNDEDRECTD26*%
G04:AMPARAMS|DCode=27|XSize=0.9mm|YSize=0.7mm|CornerRadius=0.175mm|HoleSize=0mm|Usage=FLASHONLY|Rotation=90.000|XOffset=0mm|YOffset=0mm|HoleType=Round|Shape=RoundedRectangle|*
%AMROUNDEDRECTD27*
21,1,0.9000,0.3500,0,0,90.0*
21,1,0.5500,0.7000,0,0,90.0*
1,1,0.3500,0.1750,0.2750*
1,1,0.3500,0.1750,-0.2750*
1,1,0.3500,-0.1750,-0.2750*
1,1,0.3500,-0.1750,0.2750*
%
%ADD27ROUNDEDRECTD27*%
G04:AMPARAMS|DCode=28|XSize=0.5mm|YSize=0.66mm|CornerRadius=0.125mm|HoleSize=0mm|Usage=FLASHONLY|Rotation=270.000|XOffset=0mm|YOffset=0mm|HoleType=Round|Shape=RoundedRectangle|*
%AMROUNDEDRECTD28*
21,1,0.5000,0.4100,0,0,270.0*
21,1,0.2500,0.6600,0,0,270.0*
1,1,0.2500,-0.2050,-0.1250*
1,1,0.2500,-0.2050,0.1250*
1,1,0.2500,0.2050,0.1250*
1,1,0.2500,0.2050,-0.1250*
%
%ADD28ROUNDEDRECTD28*%
%ADD29R,1.4000X1.4000*%
%ADD30R,1.2000X1.4000*%
G04:AMPARAMS|DCode=31|XSize=2.65mm|YSize=7.3mm|CornerRadius=0.6625mm|HoleSize=0mm|Usage=FLASHONLY|Rotation=0.000|XOffset=0mm|YOffset=0mm|HoleType=Round|Shape=RoundedRectangle|*
%AMROUNDEDRECTD31*
21,1,2.6500,5.9750,0,0,0.0*
21,1,1.3250,7.3000,0,0,0.0*
1,1,1.3250,0.6625,-2.9875*
1,1,1.3250,-0.6625,-2.9875*
1,1,1.3250,-0.6625,2.9875*
1,1,1.3250,0.6625,2.9875*
%
%ADD31ROUNDEDRECTD31*%
G04:AMPARAMS|DCode=32|XSize=2.7mm|YSize=1.6mm|CornerRadius=0.4mm|HoleSize=0mm|Usage=FLASHONLY|Rotation=270.000|XOffset=0mm|YOffset=0mm|HoleType=Round|Shape=RoundedRectangle|*
%AMROUNDEDRECTD32*
21,1,2.7000,0.8000,0,0,270.0*
21,1,1.9000,1.6000,0,0,270.0*
1,1,0.8000,-0.4000,-0.9500*
1,1,0.8000,-0.4000,0.9500*
1,1,0.8000,0.4000,0.9500*
1,1,0.8000,0.4000,-0.9500*
%
%ADD32ROUNDEDRECTD32*%
%ADD33R,1.9000X2.4000*%
G04:AMPARAMS|DCode=34|XSize=0.5mm|YSize=0.66mm|CornerRadius=0.125mm|HoleSize=0mm|Usage=FLASHONLY|Rotation=0.000|XOffset=0mm|YOffset=0mm|HoleType=Round|Shape=RoundedRectangle|*
%AMROUNDEDRECTD34*
21,1,0.5000,0.4100,0,0,0.0*
21,1,0.2500,0.6600,0,0,0.0*
1,1,0.2500,0.1250,-0.2050*
1,1,0.2500,-0.1250,-0.2050*
1,1,0.2500,-0.1250,0.2050*
1,1,0.2500,0.1250,0.2050*
%
%ADD34ROUNDEDRECTD34*%
%ADD35R,1.0160X1.0160*%
%ADD36R,2.0000X3.5000*%
%ADD37R,0.5000X2.2500*%
%ADD38R,2.0000X4.0000*%
%ADD39O,0.5000X2.4000*%
G04:AMPARAMS|DCode=40|XSize=0.5mm|YSize=2.4mm|CornerRadius=0.125mm|HoleSize=0mm|Usage=FLASHONLY|Rotation=0.000|XOffset=0mm|YOffset=0mm|HoleType=Round|Shape=RoundedRectangle|*
%AMROUNDEDRECTD40*
21,1,0.5000,2.1500,0,0,0.0*
21,1,0.2500,2.4000,0,0,0.0*
1,1,0.2500,0.1250,-1.0750*
1,1,0.2500,-0.1250,-1.0750*
1,1,0.2500,-0.1250,1.0750*
1,1,0.2500,0.1250,1.0750*
%
%ADD40ROUNDEDRECTD40*%
%ADD41O,2.7500X1.0000*%
%ADD42O,2.2000X0.6000*%
%ADD43R,2.2000X0.6000*%
%ADD44R,0.3048X0.3048*%
G04:AMPARAMS|DCode=45|XSize=0.3048mm|YSize=0.3048mm|CornerRadius=0.0762mm|HoleSize=0mm|Usage=FLASHONLY|Rotation=270.000|XOffset=0mm|YOffset=0mm|HoleType=Round|Shape=RoundedRectangle|*
%AMROUNDEDRECTD45*
21,1,0.3048,0.1524,0,0,270.0*
21,1,0.1524,0.3048,0,0,270.0*
1,1,0.1524,-0.0762,-0.0762*
1,1,0.1524,-0.0762,0.0762*
1,1,0.1524,0.0762,0.0762*
1,1,0.1524,0.0762,-0.0762*
%
%ADD45ROUNDEDRECTD45*%
%ADD46R,0.3500X0.8000*%
%ADD47O,0.3500X0.8000*%
%ADD48R,1.7500X1.5000*%
%ADD49O,0.3000X1.6500*%
%ADD50R,0.3000X1.6500*%
%ADD51R,1.8500X0.3500*%
%ADD52O,1.8500X0.3500*%
%ADD53O,0.2500X0.7000*%
%ADD54R,0.7000X0.2500*%
%ADD55O,0.7000X0.2500*%
%ADD56R,0.2500X0.7000*%
%ADD57R,0.3500X1.5000*%
%ADD58O,0.3500X1.5600*%
%ADD59O,0.3500X1.5000*%
%ADD60O,0.6000X2.2000*%
%ADD61R,0.6000X2.2000*%
%ADD62O,0.2800X0.8500*%
%ADD63R,3.3000X3.3000*%
%ADD64O,0.8500X0.2800*%
%ADD65R,0.2800X0.8500*%
%ADD66R,2.5000X2.5000*%
%ADD67R,0.5000X0.5000*%
%ADD68O,1.6000X0.3500*%
%ADD69R,1.6000X0.3500*%
%ADD70C,0.4000*%
%ADD71C,0.4500*%
%ADD72C,0.1500*%
%ADD73C,0.3000*%
%ADD74C,0.1000*%
%ADD75C,0.8000*%
%ADD76C,0.2000*%
%ADD77C,0.4000*%
%ADD78C,0.2500*%
%ADD79C,0.6000*%
%ADD80C,0.5000*%
%ADD81C,0.2540*%
%ADD82C,0.1999*%
%ADD83C,1.5240*%
%ADD84C,1.4000*%
%ADD85O,3.0200X1.6200*%
%ADD86C,0.8000*%
%ADD87C,1.2000*%
%ADD88C,2.5000*%
%ADD89C,3.2500*%
%ADD90C,1.5000*%
%ADD91C,0.3500*%
%ADD92C,0.6000*%
%ADD93C,4.4000*%
%ADD94C,1.0160*%
%ADD95C,1.8000*%
%ADD96C,2.6000*%
%ADD97O,3.1000X1.7000*%
%ADD98C,1.3000*%
%ADD99C,1.7000*%
%ADD100C,3.7500*%
%ADD101C,0.6500*%
%ADD102C,0.8000*%
%ADD103C,0.0800*%
%ADD104C,0.0870*%
%ADD105C,0.0750*%
%ADD106C,0.4500*%
%ADD107C,2.2000*%
%ADD108O,2.8000X1.4000*%
%ADD109O,0.5000X3.3000*%
%ADD110R,0.5000X3.3000*%
%ADD111R,1.4000X0.9000*%
G04:AMPARAMS|DCode=112|XSize=1.3mm|YSize=2.2mm|CornerRadius=0.325mm|HoleSize=0mm|Usage=FLASHONLY|Rotation=180.000|XOffset=0mm|YOffset=0mm|HoleType=Round|Shape=RoundedRectangle|*
%AMROUNDEDRECTD112*
21,1,1.3000,1.5500,0,0,180.0*
21,1,0.6500,2.2000,0,0,180.0*
1,1,0.6500,-0.3250,0.7750*
1,1,0.6500,0.3250,0.7750*
1,1,0.6500,0.3250,-0.7750*
1,1,0.6500,-0.3250,-0.7750*
%
%ADD112ROUNDEDRECTD112*%
%ADD113R,0.9000X1.4000*%
%ADD114O,3.3000X0.5000*%
%ADD115R,3.3000X0.5000*%
G04:AMPARAMS|DCode=116|XSize=1.8mm|YSize=1.2mm|CornerRadius=0.3mm|HoleSize=0mm|Usage=FLASHONLY|Rotation=0.000|XOffset=0mm|YOffset=0mm|HoleType=Round|Shape=RoundedRectangle|*
%AMROUNDEDRECTD116*
21,1,1.8000,0.6000,0,0,0.0*
21,1,1.2000,1.2000,0,0,0.0*
1,1,0.6000,0.6000,-0.3000*
1,1,0.6000,-0.6000,-0.3000*
1,1,0.6000,-0.6000,0.3000*
1,1,0.6000,0.6000,0.3000*
%
%ADD116ROUNDEDRECTD116*%
%ADD117C,0.3000*%
%ADD118C,0.5000*%
G04:AMPARAMS|DCode=119|XSize=0.5mm|YSize=1.54mm|CornerRadius=0.125mm|HoleSize=0mm|Usage=FLASHONLY|Rotation=180.000|XOffset=0mm|YOffset=0mm|HoleType=Round|Shape=RoundedRectangle|*
%AMROUNDEDRECTD119*
21,1,0.5000,1.2900,0,0,180.0*
21,1,0.2500,1.5400,0,0,180.0*
1,1,0.2500,-0.1250,0.6450*
1,1,0.2500,0.1250,0.6450*
1,1,0.2500,0.1250,-0.6450*
1,1,0.2500,-0.1250,-0.6450*
%
%ADD119ROUNDEDRECTD119*%
G04:AMPARAMS|DCode=120|XSize=1.22mm|YSize=1.82mm|CornerRadius=0.305mm|HoleSize=0mm|Usage=FLASHONLY|Rotation=180.000|XOffset=0mm|YOffset=0mm|HoleType=Round|Shape=RoundedRectangle|*
%AMROUNDEDRECTD120*
21,1,1.2200,1.2100,0,0,180.0*
21,1,0.6100,1.8200,0,0,180.0*
1,1,0.6100,-0.3050,0.6050*
1,1,0.6100,0.3050,0.6050*
1,1,0.6100,0.3050,-0.6050*
1,1,0.6100,-0.3050,-0.6050*
%
%ADD120ROUNDEDRECTD120*%
G04:AMPARAMS|DCode=121|XSize=1.22mm|YSize=1.82mm|CornerRadius=0.305mm|HoleSize=0mm|Usage=FLASHONLY|Rotation=90.000|XOffset=0mm|YOffset=0mm|HoleType=Round|Shape=RoundedRectangle|*
%AMROUNDEDRECTD121*
21,1,1.2200,1.2100,0,0,90.0*
21,1,0.6100,1.8200,0,0,90.0*
1,1,0.6100,0.6050,0.3050*
1,1,0.6100,0.6050,-0.3050*
1,1,0.6100,-0.6050,-0.3050*
1,1,0.6100,-0.6050,0.3050*
%
%ADD121ROUNDEDRECTD121*%
%ADD122R,0.8000X0.3500*%
%ADD123O,0.8000X0.3500*%
%ADD124R,1.5000X1.7500*%
%ADD125R,0.4000X0.4000*%
G04:AMPARAMS|DCode=126|XSize=2mm|YSize=2.8mm|CornerRadius=0.5mm|HoleSize=0mm|Usage=FLASHONLY|Rotation=270.000|XOffset=0mm|YOffset=0mm|HoleType=Round|Shape=RoundedRectangle|*
%AMROUNDEDRECTD126*
21,1,2.0000,1.8000,0,0,270.0*
21,1,1.0000,2.8000,0,0,270.0*
1,1,1.0000,-0.9000,-0.5000*
1,1,1.0000,-0.9000,0.5000*
1,1,1.0000,0.9000,0.5000*
1,1,1.0000,0.9000,-0.5000*
%
%ADD126ROUNDEDRECTD126*%
%ADD127O,0.3000X1.2000*%
%ADD128O,1.2000X0.3000*%
%ADD129R,1.2000X0.3000*%
%ADD130C,0.1250*%
G36*
X227298Y594392D02*
X233680Y588010D01*
Y582533D01*
X233467Y582491D01*
X232640Y581938D01*
X232087Y581111D01*
X231893Y580136D01*
X232087Y579161D01*
X232148Y579070D01*
Y577928D01*
X231952Y577889D01*
X231208Y577392D01*
X230710Y576648D01*
X230536Y575770D01*
Y569770D01*
X230710Y568892D01*
X231208Y568148D01*
X231952Y567650D01*
X232830Y567476D01*
X233680D01*
Y500380D01*
X226634Y493334D01*
X226060Y493572D01*
X201739D01*
X201253Y494745D01*
X203774Y497266D01*
X204012Y497840D01*
Y538480D01*
X203774Y539054D01*
X199983Y542845D01*
X200469Y544018D01*
X204470D01*
X205044Y544256D01*
X208854Y548066D01*
X209092Y548640D01*
Y549842D01*
X209064Y549910D01*
X209092Y549978D01*
Y551180D01*
X208854Y551754D01*
X206314Y554294D01*
Y554416D01*
X207584Y555686D01*
X207822Y556260D01*
Y582930D01*
X207584Y583504D01*
X202504Y588584D01*
X201930Y588822D01*
X194205D01*
X194000Y588863D01*
X176000D01*
X173756Y588416D01*
X171854Y587146D01*
X170584Y585244D01*
X170137Y583000D01*
Y573000D01*
X170584Y570756D01*
X170638Y570675D01*
Y567499D01*
X169465Y567013D01*
X163134Y573344D01*
X163107Y573355D01*
X163092Y573508D01*
X163645Y574335D01*
X163839Y575310D01*
X163645Y576285D01*
X163092Y577112D01*
X162265Y577665D01*
X161290Y577859D01*
X160315Y577665D01*
X159488Y577112D01*
X158935Y576285D01*
X158741Y575310D01*
X156438Y574852D01*
X128270D01*
X127696Y574614D01*
X120095Y567013D01*
X118922Y567499D01*
Y575310D01*
X118863Y575453D01*
Y583000D01*
X118416Y585244D01*
X117146Y587146D01*
X115244Y588416D01*
X113000Y588863D01*
X95000D01*
X92757Y588416D01*
X90855Y587146D01*
X89584Y585244D01*
X89137Y583000D01*
Y573000D01*
X89358Y571890D01*
Y566229D01*
X88185Y565743D01*
X75504Y578424D01*
X74930Y578662D01*
X58488D01*
X58420Y578634D01*
X58352Y578662D01*
X57150D01*
X56576Y578424D01*
X54036Y575884D01*
X53798Y575310D01*
Y547370D01*
X54036Y546796D01*
X56576Y544256D01*
X55592Y541880D01*
X51496Y537784D01*
X51258Y537210D01*
Y534738D01*
X51286Y534670D01*
X51258Y534602D01*
Y528388D01*
X51286Y528320D01*
X51258Y528252D01*
Y522038D01*
X51286Y521970D01*
X51258Y521902D01*
Y515688D01*
X51286Y515620D01*
X51258Y515552D01*
Y507967D01*
X50303Y507130D01*
X48914Y507313D01*
X47022Y507064D01*
X45258Y506333D01*
X43744Y505171D01*
X42582Y503657D01*
X41851Y501893D01*
X41602Y500000D01*
X41851Y498108D01*
X42582Y496344D01*
X43744Y494829D01*
X45258Y493667D01*
X47022Y492937D01*
X48914Y492688D01*
X50303Y492871D01*
X51258Y492033D01*
Y488950D01*
X51496Y488376D01*
X54829Y485043D01*
X54343Y483870D01*
X36830D01*
X31750Y488950D01*
Y520700D01*
X19118Y533332D01*
X19486Y534548D01*
X19975Y534645D01*
X20802Y535198D01*
X21355Y536025D01*
X21549Y537000D01*
X21413Y537682D01*
X22311Y538580D01*
X22860Y538471D01*
X23313Y538561D01*
X24211Y537663D01*
X24121Y537210D01*
X24315Y536235D01*
X24868Y535408D01*
X25695Y534855D01*
X26670Y534661D01*
X27645Y534855D01*
X28472Y535408D01*
X29025Y536235D01*
X29219Y537210D01*
X29129Y537663D01*
X30027Y538561D01*
X30480Y538471D01*
X31455Y538665D01*
X32282Y539218D01*
X32835Y540045D01*
X33029Y541020D01*
X32835Y541995D01*
X32282Y542822D01*
X31455Y543375D01*
X30480Y543569D01*
X29505Y543375D01*
X28678Y542822D01*
X28125Y541995D01*
X27931Y541020D01*
X28021Y540567D01*
X27305Y539851D01*
X26035D01*
X25319Y540567D01*
X25409Y541020D01*
X25215Y541995D01*
X24662Y542822D01*
X23835Y543375D01*
X22860Y543569D01*
X21885Y543375D01*
X21058Y542822D01*
X20505Y541995D01*
X20311Y541020D01*
X20447Y540338D01*
X19549Y539440D01*
X19000Y539549D01*
X18762Y539502D01*
X17780Y540307D01*
Y540975D01*
X17789Y541020D01*
X17780Y541065D01*
Y552350D01*
X18800Y553107D01*
X20540Y552579D01*
X25000Y552140D01*
X29460Y552579D01*
X33748Y553880D01*
X37701Y555992D01*
X41165Y558835D01*
X44008Y562299D01*
X46120Y566252D01*
X47421Y570540D01*
X47860Y575000D01*
X47421Y579460D01*
X46120Y583748D01*
X44008Y587700D01*
X41165Y591164D01*
X38688Y593197D01*
X39116Y594392D01*
X227298D01*
D02*
G37*
G36*
X203200Y538480D02*
Y497840D01*
X200660Y495300D01*
X187960D01*
X185420Y497840D01*
X182880Y500380D01*
Y502920D01*
Y518160D01*
X177800Y523240D01*
X175260D01*
X172720Y525780D01*
Y538480D01*
X177800Y543560D01*
X198120D01*
X203200Y538480D01*
D02*
G37*
G36*
X78200Y21750D02*
X69200D01*
Y26550D01*
X71200Y28550D01*
X78200D01*
Y21750D01*
D02*
G37*
G36*
X85090Y537210D02*
Y490220D01*
X80010Y485140D01*
X64770D01*
X62230Y482600D01*
Y480128D01*
X62217Y480060D01*
X62230Y479992D01*
Y477520D01*
X64770Y474980D01*
X69850D01*
X71120Y473710D01*
Y462280D01*
X69850Y461010D01*
X55880D01*
X54610Y462280D01*
Y473710D01*
X57150Y476250D01*
Y483870D01*
X52070Y488950D01*
Y493460D01*
X52571Y493667D01*
X54085Y494829D01*
X55247Y496344D01*
X55978Y498108D01*
X56227Y500000D01*
X55978Y501893D01*
X55247Y503657D01*
X54085Y505171D01*
X52571Y506333D01*
X52070Y506540D01*
Y515552D01*
X52084Y515620D01*
X52070Y515688D01*
Y521902D01*
X52084Y521970D01*
X52070Y522038D01*
Y528252D01*
X52084Y528320D01*
X52070Y528388D01*
Y534602D01*
X52084Y534670D01*
X52070Y534738D01*
Y537210D01*
X58420Y543560D01*
X78740D01*
X85090Y537210D01*
D02*
G37*
G36*
X71120Y457713D02*
Y447040D01*
X69850Y445770D01*
X68580Y444500D01*
X57150D01*
X54610Y447040D01*
Y457200D01*
X55873Y458462D01*
X55880Y458461D01*
X69850D01*
X70138Y458518D01*
X71120Y457713D01*
D02*
G37*
G36*
X106680Y523240D02*
Y492760D01*
X109220Y490220D01*
X119380D01*
X124460Y495300D01*
X127000D01*
X134620Y487680D01*
X157480D01*
X162560Y492760D01*
X226060D01*
X241300Y477520D01*
X264107Y454712D01*
X263739Y453497D01*
X263025Y453355D01*
X262198Y452803D01*
X261645Y451976D01*
X261451Y451000D01*
X261645Y450025D01*
X262198Y449198D01*
X263025Y448645D01*
X264000Y448451D01*
X264975Y448645D01*
X265802Y449198D01*
X266355Y450025D01*
X266497Y450739D01*
X267712Y451108D01*
X271780Y447040D01*
X297180D01*
X304800Y439420D01*
Y430921D01*
X303680Y430322D01*
X303607Y430371D01*
X302875Y430517D01*
X299255D01*
X298449Y431499D01*
X298549Y432000D01*
X298355Y432976D01*
X297802Y433803D01*
X296975Y434355D01*
X296000Y434549D01*
X295025Y434355D01*
X294198Y433803D01*
X293645Y432976D01*
X293451Y432000D01*
X293645Y431025D01*
X294198Y430198D01*
X295025Y429645D01*
X296000Y429451D01*
X296318Y429515D01*
X297216Y428617D01*
X297213Y428605D01*
Y426355D01*
X297316Y425840D01*
X296021Y424545D01*
X296000Y424549D01*
X295025Y424355D01*
X294198Y423803D01*
X293645Y422976D01*
X293451Y422000D01*
X293645Y421025D01*
X294198Y420198D01*
X295025Y419646D01*
X296000Y419451D01*
X296975Y419646D01*
X297802Y420198D01*
X298355Y421025D01*
X298549Y422000D01*
X298545Y422022D01*
X300966Y424444D01*
X302875D01*
X303267Y424521D01*
X303972Y423465D01*
X303645Y422976D01*
X303451Y422000D01*
X303645Y421025D01*
X304198Y420198D01*
X304800Y419795D01*
Y416560D01*
X305724Y415636D01*
X305355Y414421D01*
X305025Y414355D01*
X304198Y413803D01*
X303645Y412976D01*
X303451Y412000D01*
X303645Y411025D01*
X304198Y410198D01*
X305025Y409646D01*
X306000Y409451D01*
X306975Y409646D01*
X307802Y410198D01*
X308355Y411025D01*
X308421Y411355D01*
X309636Y411724D01*
X317500Y403860D01*
X322580Y398780D01*
Y389557D01*
X320967D01*
X318545Y391979D01*
X318549Y392001D01*
X318355Y392976D01*
X317802Y393803D01*
X316975Y394355D01*
X316000Y394549D01*
X315499Y394450D01*
X314517Y395255D01*
Y398875D01*
X314371Y399607D01*
X313957Y400227D01*
X313337Y400641D01*
X312605Y400787D01*
X310355D01*
X309839Y400684D01*
X308545Y401979D01*
X308549Y402000D01*
X308355Y402976D01*
X307802Y403803D01*
X306975Y404355D01*
X306000Y404549D01*
X305025Y404355D01*
X304198Y403803D01*
X303645Y402976D01*
X303451Y402000D01*
X303455Y401979D01*
X302160Y400684D01*
X301645Y400787D01*
X299395D01*
X299384Y400785D01*
X298486Y401683D01*
X298549Y402000D01*
X298355Y402976D01*
X297802Y403803D01*
X296975Y404355D01*
X296000Y404549D01*
X295025Y404355D01*
X294198Y403803D01*
X293645Y402976D01*
X293451Y402000D01*
X293645Y401025D01*
X294198Y400198D01*
X295025Y399646D01*
X296000Y399451D01*
X296502Y399551D01*
X297483Y398746D01*
Y395255D01*
X296502Y394450D01*
X296000Y394549D01*
X295025Y394355D01*
X294198Y393803D01*
X293645Y392976D01*
X293451Y392001D01*
X293645Y391025D01*
X294198Y390198D01*
X295025Y389646D01*
X296000Y389451D01*
X296975Y389646D01*
X297802Y390198D01*
X298355Y391025D01*
X298549Y392001D01*
X298486Y392318D01*
X299384Y393216D01*
X299395Y393214D01*
X301645D01*
X302377Y393359D01*
X302548Y393473D01*
X303604Y392768D01*
X303451Y392001D01*
X303645Y391025D01*
X304198Y390198D01*
X305025Y389646D01*
X306000Y389451D01*
X306975Y389646D01*
X307802Y390198D01*
X308355Y391025D01*
X308549Y392001D01*
X308396Y392768D01*
X309452Y393474D01*
X309624Y393359D01*
X310355Y393214D01*
X312605D01*
X312616Y393216D01*
X313514Y392318D01*
X313451Y392001D01*
X313645Y391025D01*
X314198Y390198D01*
X315025Y389646D01*
X316000Y389451D01*
X316021Y389456D01*
X317316Y388161D01*
X317213Y387645D01*
Y385395D01*
X317359Y384664D01*
X317773Y384043D01*
X318393Y383629D01*
X319125Y383483D01*
X322580D01*
Y375920D01*
Y373380D01*
X319171Y369971D01*
X318189Y370776D01*
X318355Y371025D01*
X318549Y372000D01*
X318355Y372975D01*
X317802Y373802D01*
X316975Y374355D01*
X316000Y374549D01*
X315025Y374355D01*
X314198Y373802D01*
X313645Y372975D01*
X313451Y372000D01*
X313645Y371025D01*
X314198Y370198D01*
X315025Y369645D01*
X316000Y369451D01*
X316975Y369645D01*
X317223Y369811D01*
X318029Y368829D01*
X314960Y365760D01*
X312420Y363220D01*
Y342900D01*
Y292100D01*
X302260Y281940D01*
X298598D01*
X298549Y282000D01*
X298355Y282975D01*
X297802Y283802D01*
X296975Y284355D01*
X296000Y284549D01*
X295025Y284355D01*
X294198Y283802D01*
X293645Y282975D01*
X293451Y282000D01*
X293402Y281940D01*
X280123D01*
X280109Y281974D01*
X280193Y282396D01*
X280739Y283213D01*
X282605D01*
X283337Y283359D01*
X283957Y283773D01*
X284371Y284393D01*
X284517Y285125D01*
Y288745D01*
X285499Y289550D01*
X286000Y289451D01*
X286975Y289645D01*
X287802Y290197D01*
X288355Y291024D01*
X288549Y292000D01*
X288355Y292975D01*
X287802Y293802D01*
X286975Y294355D01*
X286000Y294549D01*
X285025Y294355D01*
X284198Y293802D01*
X283645Y292975D01*
X283451Y292000D01*
X283514Y291683D01*
X282616Y290784D01*
X282605Y290787D01*
X280355D01*
X279624Y290641D01*
X279452Y290527D01*
X278396Y291232D01*
X278549Y292000D01*
X278355Y292975D01*
X277802Y293802D01*
X276975Y294355D01*
X276000Y294549D01*
X275025Y294355D01*
X274198Y293802D01*
X273645Y292975D01*
X273451Y292000D01*
X273645Y291024D01*
X274198Y290197D01*
X275025Y289645D01*
X276000Y289451D01*
X276975Y289645D01*
X277465Y289972D01*
X278521Y289267D01*
X278444Y288875D01*
Y286967D01*
X276021Y284544D01*
X276000Y284549D01*
X275025Y284355D01*
X274198Y283802D01*
X273645Y282975D01*
X273451Y282000D01*
X273402Y281940D01*
X246380D01*
X222511Y305809D01*
X222549Y306000D01*
X222355Y306976D01*
X221803Y307803D01*
X220975Y308355D01*
X220000Y308549D01*
X219809Y308511D01*
X208280Y320040D01*
X182880D01*
X154940Y347980D01*
X142240Y360680D01*
Y366483D01*
X145875D01*
X146607Y366629D01*
X147227Y367043D01*
X147641Y367663D01*
D01*
D01*
X148198Y367198D01*
X148198Y367198D01*
Y367198D01*
X149025Y366645D01*
X150000Y366451D01*
X150976Y366645D01*
X151803Y367198D01*
X152355Y368025D01*
X152549Y369000D01*
X152355Y369976D01*
X152355Y369976D01*
Y369976D01*
Y369976D01*
X152355D01*
X152355Y369976D01*
X151852Y370965D01*
X153511D01*
X155456Y369021D01*
X155451Y369000D01*
X155645Y368025D01*
X156198Y367198D01*
X157025Y366645D01*
X158000Y366451D01*
X158976Y366645D01*
X159803Y367198D01*
X160355Y368025D01*
X160549Y369000D01*
X160355Y369976D01*
X159803Y370803D01*
X158976Y371355D01*
X158000Y371549D01*
X157979Y371545D01*
X155512Y374011D01*
X155512Y374011D01*
X155512Y374011D01*
X155512Y374012D01*
X155398Y374087D01*
X154933Y374398D01*
X154933Y374398D01*
X154933Y374398D01*
X154590Y374467D01*
X154250Y374534D01*
X148447D01*
X147764Y374398D01*
X147185Y374011D01*
X145730Y372557D01*
X142240D01*
Y427206D01*
X145000D01*
X145878Y427381D01*
X146622Y427878D01*
X147120Y428622D01*
X147294Y429500D01*
Y432500D01*
X147120Y433378D01*
X146864Y433760D01*
X147050Y433945D01*
X147741Y434637D01*
X154259D01*
X155525Y433371D01*
X155451Y433000D01*
X155645Y432025D01*
X156198Y431198D01*
X157025Y430645D01*
X158000Y430451D01*
X158976Y430645D01*
X159803Y431198D01*
X160355Y432025D01*
X160549Y433000D01*
X160355Y433976D01*
X159803Y434803D01*
X158976Y435355D01*
X158000Y435549D01*
X157630Y435475D01*
X156573Y436533D01*
X156819Y437771D01*
X156847Y437789D01*
X156927Y437823D01*
X156989Y437885D01*
X157875Y438476D01*
X158000Y438451D01*
X158976Y438645D01*
X159803Y439198D01*
X160355Y440025D01*
X160549Y441000D01*
X160355Y441976D01*
X159803Y442803D01*
X158976Y443355D01*
X158000Y443549D01*
X157025Y443355D01*
X156198Y442803D01*
X155645Y441976D01*
X155451Y441000D01*
X152291Y440372D01*
X151493Y441345D01*
X151623Y442000D01*
X151592Y442154D01*
X152490Y443052D01*
X153000Y442951D01*
X153975Y443145D01*
X154802Y443698D01*
X155355Y444525D01*
X155549Y445500D01*
X155384Y446330D01*
X156440Y447036D01*
X157025Y446645D01*
X158000Y446451D01*
X158976Y446645D01*
X159803Y447198D01*
X160355Y448025D01*
X160549Y449000D01*
X160355Y449976D01*
X159803Y450802D01*
X158976Y451355D01*
X158000Y451549D01*
X157025Y451355D01*
X156198Y450802D01*
X155645Y449976D01*
X155451Y449000D01*
X155617Y448170D01*
X154560Y447464D01*
X153975Y447855D01*
X153000Y448049D01*
X152024Y447855D01*
X151198Y447302D01*
X150645Y446475D01*
X150451Y445500D01*
X150482Y445346D01*
X149584Y444448D01*
X149074Y444549D01*
X148276Y444390D01*
X147294Y445196D01*
Y446500D01*
X147120Y447378D01*
X146622Y448122D01*
X145878Y448619D01*
X145000Y448794D01*
X139000D01*
X138122Y448619D01*
X137378Y448122D01*
X136881Y447378D01*
X136814Y447040D01*
X119380D01*
X109220Y457200D01*
X107273Y459147D01*
X107046Y460291D01*
X107088Y460720D01*
X107802Y461198D01*
X108355Y462025D01*
X108549Y463000D01*
X108355Y463975D01*
X107802Y464802D01*
X106975Y465355D01*
X106680Y465414D01*
Y480060D01*
X101600Y485140D01*
X91440D01*
X86360Y490220D01*
Y525780D01*
X91440Y530860D01*
X106680D01*
Y523240D01*
D02*
G37*
G36*
X122616Y537906D02*
X123190Y537668D01*
X166370D01*
X166944Y537906D01*
X169360Y540322D01*
X170480Y539723D01*
X170137Y538000D01*
Y528000D01*
X170584Y525756D01*
X171854Y523854D01*
X173756Y522584D01*
X176000Y522137D01*
X177755D01*
X182068Y517824D01*
Y502920D01*
Y500380D01*
X182306Y499806D01*
X184846Y497266D01*
X187367Y494745D01*
X186881Y493572D01*
X179605D01*
X178843Y494500D01*
Y513500D01*
X178475Y515354D01*
X177425Y516925D01*
X175854Y517975D01*
X174000Y518343D01*
X166000D01*
X164147Y517975D01*
X162576Y516925D01*
X161526Y515354D01*
X160705Y515014D01*
X160213Y515342D01*
X158750Y515634D01*
X157287Y515342D01*
X156046Y514514D01*
X155218Y513273D01*
X154927Y511810D01*
X155218Y510347D01*
X156046Y509106D01*
X157287Y508278D01*
X158750Y507986D01*
X160175Y508270D01*
X161157Y507464D01*
Y494500D01*
X161488Y492836D01*
X157144Y488492D01*
X134956D01*
X129502Y493946D01*
X129619Y494122D01*
X129794Y495000D01*
Y501000D01*
X129619Y501878D01*
X129122Y502622D01*
X128378Y503120D01*
X127500Y503294D01*
X124500D01*
X123622Y503120D01*
X122878Y502622D01*
X122380Y501878D01*
X122206Y501000D01*
Y495000D01*
X122339Y494328D01*
X119044Y491032D01*
X109556D01*
X108433Y492155D01*
X109239Y493137D01*
X109622Y492881D01*
X110500Y492706D01*
X113500D01*
X114378Y492881D01*
X115122Y493378D01*
X115619Y494122D01*
X115794Y495000D01*
Y501000D01*
X115619Y501878D01*
X115122Y502622D01*
X114378Y503120D01*
X114294Y503136D01*
Y507864D01*
X114378Y507881D01*
X115122Y508378D01*
X115619Y509122D01*
X115794Y510000D01*
Y513870D01*
X120330Y518406D01*
X125934D01*
X126025Y518345D01*
X127000Y518151D01*
X127975Y518345D01*
X128802Y518898D01*
X129355Y519725D01*
X129549Y520700D01*
X129355Y521675D01*
X128802Y522502D01*
X127975Y523055D01*
X127000Y523249D01*
X126025Y523055D01*
X125934Y522994D01*
X119380D01*
X118648Y522848D01*
X118502Y522820D01*
X117758Y522322D01*
X113692Y518256D01*
X113500Y518294D01*
X110500D01*
X109622Y518119D01*
X108878Y517622D01*
X108707Y517367D01*
X107492Y517736D01*
Y522137D01*
X113000D01*
X115244Y522584D01*
X117146Y523854D01*
X118416Y525756D01*
X118863Y528000D01*
Y538000D01*
X118416Y540243D01*
X118266Y540468D01*
X119248Y541274D01*
X122616Y537906D01*
D02*
G37*
G36*
X91898Y560882D02*
Y552450D01*
X92136Y551876D01*
X93406Y550606D01*
X93980Y550368D01*
X104140D01*
X104714Y550606D01*
X112908Y558800D01*
X113030D01*
X128270Y574040D01*
X158750D01*
X160020Y572770D01*
X161245D01*
X161290Y572761D01*
X161335Y572770D01*
X162560D01*
X181610Y553720D01*
X205740D01*
X208280Y551180D01*
Y549978D01*
X208267Y549910D01*
X208280Y549842D01*
Y548640D01*
X204470Y544830D01*
X172720D01*
X166370Y538480D01*
X123190D01*
X116840Y544830D01*
X57150D01*
X54610Y547370D01*
Y575310D01*
X57150Y577850D01*
X58352D01*
X58420Y577836D01*
X58488Y577850D01*
X74930D01*
X91898Y560882D01*
D02*
G37*
G36*
X665500Y18750D02*
X662500D01*
Y54750D01*
X665500D01*
Y18750D01*
D02*
G37*
G36*
X78200Y9550D02*
X71200D01*
X69200Y11550D01*
Y16350D01*
X78200D01*
Y9550D01*
D02*
G37*
G36*
X118110Y565150D02*
X104140Y551180D01*
X93980D01*
X92710Y552450D01*
Y561340D01*
X90170Y563880D01*
Y575310D01*
X118110D01*
Y565150D01*
D02*
G37*
G36*
X671500Y18750D02*
X668500D01*
Y54750D01*
X671500D01*
Y18750D01*
D02*
G37*
G36*
X207010Y582930D02*
Y556260D01*
X205740Y554990D01*
X182880D01*
X171450Y566420D01*
Y581660D01*
X177800Y588010D01*
X201930D01*
X207010Y582930D01*
D02*
G37*
%LPC*%
G36*
X306000Y384549D02*
X305025Y384355D01*
X304198Y383803D01*
X303645Y382976D01*
X303451Y382001D01*
X303645Y381025D01*
X304198Y380198D01*
X305025Y379646D01*
X306000Y379451D01*
X306975Y379646D01*
X307802Y380198D01*
X308355Y381025D01*
X308549Y382001D01*
X308355Y382976D01*
X307802Y383803D01*
X306975Y384355D01*
X306000Y384549D01*
D02*
G37*
G36*
X296000D02*
X295025Y384355D01*
X294198Y383803D01*
X293645Y382976D01*
X293451Y382001D01*
X293645Y381025D01*
X294198Y380198D01*
X295025Y379646D01*
X296000Y379451D01*
X296975Y379646D01*
X297802Y380198D01*
X298355Y381025D01*
X298549Y382001D01*
X298355Y382976D01*
X297802Y383803D01*
X296975Y384355D01*
X296000Y384549D01*
D02*
G37*
G36*
X158000Y387549D02*
X157025Y387355D01*
X156198Y386803D01*
X155645Y385976D01*
X155451Y385000D01*
X155645Y384025D01*
X156198Y383198D01*
X157025Y382645D01*
X158000Y382451D01*
X158976Y382645D01*
X159803Y383198D01*
X160355Y384025D01*
X160549Y385000D01*
X160355Y385976D01*
X159803Y386803D01*
X158976Y387355D01*
X158000Y387549D01*
D02*
G37*
G36*
X150000D02*
X149025Y387355D01*
X148198Y386803D01*
X147645Y385976D01*
X147451Y385000D01*
X147645Y384025D01*
X148198Y383198D01*
X149025Y382645D01*
X150000Y382451D01*
X150976Y382645D01*
X151803Y383198D01*
X152355Y384025D01*
X152549Y385000D01*
X152355Y385976D01*
X151803Y386803D01*
X150976Y387355D01*
X150000Y387549D01*
D02*
G37*
G36*
X214000Y379549D02*
X213025Y379355D01*
X212198Y378803D01*
X211645Y377976D01*
X211451Y377000D01*
X211645Y376025D01*
X212198Y375198D01*
X213025Y374645D01*
X214000Y374451D01*
X214975Y374645D01*
X215802Y375198D01*
X216355Y376025D01*
X216549Y377000D01*
X216355Y377976D01*
X215802Y378803D01*
X214975Y379355D01*
X214000Y379549D01*
D02*
G37*
G36*
X158000D02*
X157025Y379355D01*
X156198Y378803D01*
X155645Y377976D01*
X155451Y377000D01*
X155645Y376025D01*
X156198Y375198D01*
X157025Y374645D01*
X158000Y374451D01*
X158976Y374645D01*
X159803Y375198D01*
X160355Y376025D01*
X160549Y377000D01*
X160355Y377976D01*
X159803Y378803D01*
X158976Y379355D01*
X158000Y379549D01*
D02*
G37*
G36*
X223553Y374534D02*
X217750D01*
X217441Y374473D01*
X217067Y374398D01*
X217067Y374398D01*
X217067D01*
X216834Y374242D01*
X216488Y374012D01*
X214022Y371545D01*
X214000Y371549D01*
X213025Y371355D01*
X212198Y370803D01*
X211645Y369976D01*
X211451Y369000D01*
X211645Y368025D01*
X212198Y367198D01*
X213025Y366645D01*
X214000Y366451D01*
X214975Y366645D01*
X215802Y367198D01*
X216355Y368025D01*
X216549Y369000D01*
X216545Y369021D01*
X218123Y370599D01*
X219379Y370413D01*
X219683Y369845D01*
X219641Y369783D01*
X219447Y368808D01*
X219641Y367833D01*
X220194Y367006D01*
X221021Y366453D01*
X221996Y366259D01*
X222971Y366453D01*
X223798Y367006D01*
X224252Y367685D01*
Y367685D01*
X224773Y367043D01*
Y367043D01*
X224773Y367043D01*
Y367043D01*
Y367043D01*
D01*
X225394Y366629D01*
X226125Y366483D01*
X229875D01*
X230607Y366629D01*
X231227Y367043D01*
X231641Y367663D01*
X231787Y368395D01*
Y370645D01*
X231641Y371376D01*
X231227Y371997D01*
X230607Y372411D01*
X229875Y372557D01*
X226270D01*
X224815Y374012D01*
X224527Y374204D01*
X224236Y374398D01*
X224236Y374398D01*
X224236Y374398D01*
X223923Y374460D01*
X223553Y374534D01*
D02*
G37*
G36*
X286000Y384549D02*
X285025Y384355D01*
X284198Y383803D01*
X283645Y382976D01*
X283451Y382001D01*
X283645Y381025D01*
X284198Y380198D01*
X285025Y379646D01*
X286000Y379451D01*
X286975Y379646D01*
X287802Y380198D01*
X288355Y381025D01*
X288549Y382001D01*
X288355Y382976D01*
X287802Y383803D01*
X286975Y384355D01*
X286000Y384549D01*
D02*
G37*
G36*
X276000D02*
X275025Y384355D01*
X274198Y383803D01*
X273645Y382976D01*
X273451Y382001D01*
X273645Y381025D01*
X274198Y380198D01*
X275025Y379646D01*
X276000Y379451D01*
X276975Y379646D01*
X277802Y380198D01*
X278355Y381025D01*
X278549Y382001D01*
X278355Y382976D01*
X277802Y383803D01*
X276975Y384355D01*
X276000Y384549D01*
D02*
G37*
G36*
X263652Y384570D02*
X262189Y384278D01*
X260948Y383450D01*
X260120Y382209D01*
X259828Y380746D01*
X260120Y379283D01*
X260948Y378042D01*
X262189Y377214D01*
X263652Y376922D01*
X265115Y377214D01*
X266356Y378042D01*
X267184Y379283D01*
X267475Y380746D01*
X267184Y382209D01*
X266356Y383450D01*
X265115Y384278D01*
X263652Y384570D01*
D02*
G37*
G36*
X166000Y403549D02*
X165025Y403355D01*
X164198Y402803D01*
X163645Y401976D01*
X163451Y401000D01*
X163645Y400025D01*
X164198Y399198D01*
X165025Y398645D01*
X166000Y398451D01*
X166976Y398645D01*
X167803Y399198D01*
X168355Y400025D01*
X168549Y401000D01*
X168355Y401976D01*
X167803Y402803D01*
X166976Y403355D01*
X166000Y403549D01*
D02*
G37*
G36*
X158000D02*
X157025Y403355D01*
X156198Y402803D01*
X155645Y401976D01*
X155451Y401000D01*
X155645Y400025D01*
X156198Y399198D01*
X156216Y399186D01*
Y396520D01*
X156352Y395837D01*
X156483Y395640D01*
Y393125D01*
X156629Y392394D01*
X157043Y391773D01*
X157664Y391359D01*
X158395Y391213D01*
X160645D01*
X161377Y391359D01*
X161997Y391773D01*
X162384Y392352D01*
X163629Y392104D01*
X163645Y392025D01*
X164198Y391198D01*
X165025Y390645D01*
X166000Y390451D01*
X166976Y390645D01*
X167803Y391198D01*
X168355Y392025D01*
X168513Y392817D01*
X169757Y393065D01*
X169773Y393043D01*
X169773D01*
X169773Y393043D01*
Y393043D01*
X170393Y392629D01*
X171125Y392483D01*
X174875D01*
X175606Y392629D01*
X176227Y393043D01*
X176641Y393663D01*
X176787Y394395D01*
Y396645D01*
X176641Y397377D01*
X176227Y397997D01*
X175606Y398411D01*
X174875Y398557D01*
X171125D01*
X170393Y398411D01*
X169773Y397997D01*
X169359Y397377D01*
X169344Y397304D01*
X168520D01*
X167837Y397168D01*
X167258Y396782D01*
X166021Y395545D01*
X166000Y395549D01*
X165025Y395355D01*
X164198Y394803D01*
X163772Y394166D01*
X162557Y394534D01*
Y396875D01*
X162411Y397607D01*
X161997Y398227D01*
X161377Y398641D01*
X160780Y398760D01*
X160294Y399933D01*
X160355Y400025D01*
X160549Y401000D01*
X160355Y401976D01*
X159803Y402803D01*
X158976Y403355D01*
X158000Y403549D01*
D02*
G37*
G36*
X199875Y398557D02*
X196125D01*
X195394Y398411D01*
X194773Y397997D01*
X194359Y397377D01*
X194213Y396645D01*
Y394395D01*
X194359Y393663D01*
X194773Y393043D01*
X195394Y392629D01*
X196125Y392483D01*
X199875D01*
X200607Y392629D01*
X201227Y393043D01*
X201555Y393534D01*
X202819Y393658D01*
X203455Y393021D01*
X203451Y393000D01*
X203645Y392025D01*
X204198Y391198D01*
X205025Y390645D01*
X206000Y390451D01*
X206976Y390645D01*
X207803Y391198D01*
X208355Y392025D01*
X208549Y393000D01*
X208355Y393976D01*
X207803Y394803D01*
X206976Y395355D01*
X206000Y395549D01*
X205979Y395545D01*
X204741Y396782D01*
X204454Y396974D01*
X204163Y397168D01*
X204163Y397168D01*
X204163Y397168D01*
X203797Y397241D01*
X203480Y397304D01*
X201656D01*
X201641Y397377D01*
X201227Y397997D01*
X200607Y398411D01*
X199875Y398557D01*
D02*
G37*
G36*
X223553Y406535D02*
X217750D01*
X217067Y406399D01*
X216488Y406012D01*
X216488Y406012D01*
X214021Y403545D01*
X214000Y403549D01*
X213025Y403355D01*
X212198Y402803D01*
X211645Y401976D01*
X211451Y401000D01*
X211645Y400025D01*
X212198Y399198D01*
X213025Y398645D01*
X214000Y398451D01*
X214975Y398645D01*
X215802Y399198D01*
X216355Y400025D01*
X216549Y401000D01*
X216545Y401021D01*
X218489Y402966D01*
X220148D01*
X219645Y401976D01*
X219645Y401976D01*
X219645D01*
Y401976D01*
Y401976D01*
X219645Y401976D01*
X219451Y401000D01*
X219645Y400025D01*
X220198Y399198D01*
X221025Y398645D01*
X222000Y398451D01*
X222976Y398645D01*
X223802Y399198D01*
X223803Y399198D01*
Y399198D01*
X224359Y399663D01*
D01*
D01*
X224773Y399043D01*
X225394Y398629D01*
X226125Y398483D01*
X229875D01*
X230607Y398629D01*
X231227Y399043D01*
X231641Y399663D01*
X231787Y400395D01*
Y402645D01*
X231641Y403377D01*
X231227Y403997D01*
X230607Y404411D01*
X229875Y404557D01*
X226270D01*
X224815Y406012D01*
X224236Y406399D01*
X223553Y406535D01*
D02*
G37*
G36*
X276000Y404549D02*
X275025Y404355D01*
X274198Y403803D01*
X273645Y402976D01*
X273451Y402000D01*
X273645Y401025D01*
X274198Y400198D01*
X275025Y399646D01*
X276000Y399451D01*
X276975Y399646D01*
X277802Y400198D01*
X278355Y401025D01*
X278549Y402000D01*
X278355Y402976D01*
X277802Y403803D01*
X276975Y404355D01*
X276000Y404549D01*
D02*
G37*
G36*
X206000Y403549D02*
X205025Y403355D01*
X204198Y402803D01*
X203645Y401976D01*
X203451Y401000D01*
X203645Y400025D01*
X204198Y399198D01*
X205025Y398645D01*
X206000Y398451D01*
X206976Y398645D01*
X207803Y399198D01*
X208355Y400025D01*
X208549Y401000D01*
X208355Y401976D01*
X207803Y402803D01*
X206976Y403355D01*
X206000Y403549D01*
D02*
G37*
G36*
X214000Y387549D02*
X213025Y387355D01*
X212198Y386803D01*
X211645Y385976D01*
X211451Y385000D01*
X211645Y384025D01*
X212198Y383198D01*
X213025Y382645D01*
X214000Y382451D01*
X214975Y382645D01*
X215802Y383198D01*
X216355Y384025D01*
X216549Y385000D01*
X216355Y385976D01*
X215802Y386803D01*
X214975Y387355D01*
X214000Y387549D01*
D02*
G37*
G36*
X206000D02*
X205025Y387355D01*
X204198Y386803D01*
X203645Y385976D01*
X203451Y385000D01*
X203645Y384025D01*
X204198Y383198D01*
X205025Y382645D01*
X206000Y382451D01*
X206976Y382645D01*
X207803Y383198D01*
X208355Y384025D01*
X208549Y385000D01*
X208355Y385976D01*
X207803Y386803D01*
X206976Y387355D01*
X206000Y387549D01*
D02*
G37*
G36*
X166000D02*
X165025Y387355D01*
X164198Y386803D01*
X163645Y385976D01*
X163451Y385000D01*
X163645Y384025D01*
X164198Y383198D01*
X165025Y382645D01*
X166000Y382451D01*
X166976Y382645D01*
X167803Y383198D01*
X168355Y384025D01*
X168549Y385000D01*
X168355Y385976D01*
X167803Y386803D01*
X166976Y387355D01*
X166000Y387549D01*
D02*
G37*
G36*
X286000Y394549D02*
X285025Y394355D01*
X284198Y393803D01*
X283645Y392976D01*
X283451Y392001D01*
X283645Y391025D01*
X284198Y390198D01*
X285025Y389646D01*
X286000Y389451D01*
X286975Y389646D01*
X287802Y390198D01*
X288355Y391025D01*
X288549Y392001D01*
X288355Y392976D01*
X287802Y393803D01*
X286975Y394355D01*
X286000Y394549D01*
D02*
G37*
G36*
X276000D02*
X275025Y394355D01*
X274198Y393803D01*
X273645Y392976D01*
X273451Y392001D01*
X273645Y391025D01*
X274198Y390198D01*
X275025Y389646D01*
X276000Y389451D01*
X276975Y389646D01*
X277802Y390198D01*
X278355Y391025D01*
X278549Y392001D01*
X278355Y392976D01*
X277802Y393803D01*
X276975Y394355D01*
X276000Y394549D01*
D02*
G37*
G36*
X222000Y387549D02*
X221025Y387355D01*
X220198Y386803D01*
X219645Y385976D01*
X219451Y385000D01*
X219645Y384025D01*
X220198Y383198D01*
X221025Y382645D01*
X222000Y382451D01*
X222976Y382645D01*
X223803Y383198D01*
X224355Y384025D01*
X224549Y385000D01*
X224355Y385976D01*
X223803Y386803D01*
X222976Y387355D01*
X222000Y387549D01*
D02*
G37*
G36*
X296000Y314549D02*
X295025Y314354D01*
X294198Y313802D01*
X293645Y312975D01*
X293451Y312000D01*
X293645Y311024D01*
X294198Y310197D01*
X295025Y309645D01*
X296000Y309451D01*
X296975Y309645D01*
X297802Y310197D01*
X298355Y311024D01*
X298549Y312000D01*
X298355Y312975D01*
X297802Y313802D01*
X296975Y314354D01*
X296000Y314549D01*
D02*
G37*
G36*
X286000D02*
X285025Y314354D01*
X284198Y313802D01*
X283645Y312975D01*
X283451Y312000D01*
X283645Y311024D01*
X284198Y310197D01*
X285025Y309645D01*
X286000Y309451D01*
X286975Y309645D01*
X287802Y310197D01*
X288355Y311024D01*
X288549Y312000D01*
X288355Y312975D01*
X287802Y313802D01*
X286975Y314354D01*
X286000Y314549D01*
D02*
G37*
G36*
X296000Y324549D02*
X295025Y324355D01*
X294198Y323802D01*
X293645Y322975D01*
X293451Y322000D01*
X293645Y321024D01*
X294198Y320197D01*
X295025Y319645D01*
X296000Y319451D01*
X296975Y319645D01*
X297802Y320197D01*
X298355Y321024D01*
X298549Y322000D01*
X298355Y322975D01*
X297802Y323802D01*
X296975Y324355D01*
X296000Y324549D01*
D02*
G37*
G36*
X286000Y334548D02*
X285025Y334355D01*
X284198Y333802D01*
X283645Y332975D01*
X283451Y332000D01*
X283514Y331683D01*
X282616Y330784D01*
X282605Y330787D01*
X280355D01*
X279624Y330641D01*
X279452Y330527D01*
X278396Y331232D01*
X278549Y332000D01*
X278355Y332975D01*
X277802Y333802D01*
X276975Y334355D01*
X276000Y334548D01*
X275025Y334355D01*
X274198Y333802D01*
X273645Y332975D01*
X273451Y332000D01*
X273645Y331024D01*
X274198Y330197D01*
X275025Y329645D01*
X276000Y329451D01*
X276975Y329645D01*
X277465Y329972D01*
X278521Y329267D01*
X278444Y328875D01*
Y326967D01*
X276021Y324544D01*
X276000Y324549D01*
X275025Y324355D01*
X274198Y323802D01*
X273645Y322975D01*
X273451Y322000D01*
X273645Y321024D01*
X274198Y320197D01*
X275025Y319645D01*
X276000Y319451D01*
X276975Y319645D01*
X277802Y320197D01*
X278355Y321024D01*
X278549Y322000D01*
X278545Y322021D01*
X279839Y323316D01*
X280355Y323213D01*
X282605D01*
X283337Y323359D01*
X283957Y323773D01*
X284371Y324393D01*
X284517Y325125D01*
Y328745D01*
X285499Y329550D01*
X286000Y329451D01*
X286975Y329645D01*
X287802Y330197D01*
X288355Y331024D01*
X288549Y332000D01*
X288355Y332975D01*
X287802Y333802D01*
X286975Y334355D01*
X286000Y334548D01*
D02*
G37*
G36*
X306000Y324549D02*
X305025Y324355D01*
X304198Y323802D01*
X303645Y322975D01*
X303451Y322000D01*
X303645Y321024D01*
X304198Y320197D01*
X305025Y319645D01*
X306000Y319451D01*
X306975Y319645D01*
X307802Y320197D01*
X308355Y321024D01*
X308549Y322000D01*
X308355Y322975D01*
X307802Y323802D01*
X306975Y324355D01*
X306000Y324549D01*
D02*
G37*
G36*
X276000Y314549D02*
X275025Y314354D01*
X274198Y313802D01*
X273645Y312975D01*
X273451Y312000D01*
X273645Y311024D01*
X274198Y310197D01*
X275025Y309645D01*
X276000Y309451D01*
X276975Y309645D01*
X277802Y310197D01*
X278355Y311024D01*
X278549Y312000D01*
X278355Y312975D01*
X277802Y313802D01*
X276975Y314354D01*
X276000Y314549D01*
D02*
G37*
G36*
Y304549D02*
X275025Y304355D01*
X274198Y303802D01*
X273645Y302975D01*
X273451Y302000D01*
X273645Y301024D01*
X274198Y300197D01*
X275025Y299645D01*
X276000Y299451D01*
X276975Y299645D01*
X277802Y300197D01*
X278355Y301024D01*
X278549Y302000D01*
X278355Y302975D01*
X277802Y303802D01*
X276975Y304355D01*
X276000Y304549D01*
D02*
G37*
G36*
X296000Y294549D02*
X295025Y294355D01*
X294198Y293802D01*
X293645Y292975D01*
X293451Y292000D01*
X293645Y291024D01*
X294198Y290197D01*
X295025Y289645D01*
X296000Y289451D01*
X296975Y289645D01*
X297802Y290197D01*
X298355Y291024D01*
X298549Y292000D01*
X298355Y292975D01*
X297802Y293802D01*
X296975Y294355D01*
X296000Y294549D01*
D02*
G37*
G36*
X286000Y304549D02*
X285025Y304355D01*
X284198Y303802D01*
X283645Y302975D01*
X283451Y302000D01*
X283645Y301024D01*
X284198Y300197D01*
X285025Y299645D01*
X286000Y299451D01*
X286975Y299645D01*
X287802Y300197D01*
X288355Y301024D01*
X288549Y302000D01*
X288355Y302975D01*
X287802Y303802D01*
X286975Y304355D01*
X286000Y304549D01*
D02*
G37*
G36*
X306000D02*
X305025Y304355D01*
X304198Y303802D01*
X303645Y302975D01*
X303451Y302000D01*
X303645Y301024D01*
X304198Y300197D01*
X305025Y299645D01*
X306000Y299451D01*
X306975Y299645D01*
X307802Y300197D01*
X308355Y301024D01*
X308549Y302000D01*
X308355Y302975D01*
X307802Y303802D01*
X306975Y304355D01*
X306000Y304549D01*
D02*
G37*
G36*
X296000D02*
X295025Y304355D01*
X294198Y303802D01*
X293645Y302975D01*
X293451Y302000D01*
X293645Y301024D01*
X294198Y300197D01*
X295025Y299645D01*
X296000Y299451D01*
X296975Y299645D01*
X297802Y300197D01*
X298355Y301024D01*
X298549Y302000D01*
X298355Y302975D01*
X297802Y303802D01*
X296975Y304355D01*
X296000Y304549D01*
D02*
G37*
G36*
X276000Y374549D02*
X275025Y374355D01*
X274198Y373802D01*
X273645Y372975D01*
X273451Y372000D01*
X273645Y371025D01*
X274198Y370198D01*
X275025Y369645D01*
X276000Y369451D01*
X276975Y369645D01*
X277802Y370198D01*
X278355Y371025D01*
X278549Y372000D01*
X278355Y372975D01*
X277802Y373802D01*
X276975Y374355D01*
X276000Y374549D01*
D02*
G37*
G36*
X206000Y371549D02*
X205025Y371355D01*
X204198Y370803D01*
X203645Y369976D01*
X203451Y369000D01*
X203645Y368025D01*
X204198Y367198D01*
X205025Y366645D01*
X206000Y366451D01*
X206976Y366645D01*
X207803Y367198D01*
X208355Y368025D01*
X208549Y369000D01*
X208355Y369976D01*
X207803Y370803D01*
X206976Y371355D01*
X206000Y371549D01*
D02*
G37*
G36*
X286000Y374549D02*
X285025Y374355D01*
X284198Y373802D01*
X283645Y372975D01*
X283451Y372000D01*
X283645Y371025D01*
X284198Y370198D01*
X285025Y369645D01*
X286000Y369451D01*
X286975Y369645D01*
X287802Y370198D01*
X288355Y371025D01*
X288549Y372000D01*
X288355Y372975D01*
X287802Y373802D01*
X286975Y374355D01*
X286000Y374549D01*
D02*
G37*
G36*
X306000D02*
X305025Y374355D01*
X304198Y373802D01*
X303645Y372975D01*
X303451Y372000D01*
X303645Y371025D01*
X304198Y370198D01*
X305025Y369645D01*
X306000Y369451D01*
X306975Y369645D01*
X307802Y370198D01*
X308355Y371025D01*
X308549Y372000D01*
X308355Y372975D01*
X307802Y373802D01*
X306975Y374355D01*
X306000Y374549D01*
D02*
G37*
G36*
X296000D02*
X295025Y374355D01*
X294198Y373802D01*
X293645Y372975D01*
X293451Y372000D01*
X293645Y371025D01*
X294198Y370198D01*
X295025Y369645D01*
X296000Y369451D01*
X296975Y369645D01*
X297802Y370198D01*
X298355Y371025D01*
X298549Y372000D01*
X298355Y372975D01*
X297802Y373802D01*
X296975Y374355D01*
X296000Y374549D01*
D02*
G37*
G36*
X166000Y371549D02*
X165025Y371355D01*
X164198Y370803D01*
X163645Y369976D01*
X163451Y369000D01*
X163645Y368025D01*
X164198Y367198D01*
X165025Y366645D01*
X166000Y366451D01*
X166976Y366645D01*
X167803Y367198D01*
X168355Y368025D01*
X168549Y369000D01*
X168355Y369976D01*
X167803Y370803D01*
X166976Y371355D01*
X166000Y371549D01*
D02*
G37*
G36*
X286000Y344548D02*
X285025Y344355D01*
X284198Y343802D01*
X283645Y342975D01*
X283451Y342000D01*
X283645Y341024D01*
X284198Y340197D01*
X285025Y339645D01*
X286000Y339451D01*
X286975Y339645D01*
X287802Y340197D01*
X288355Y341024D01*
X288549Y342000D01*
X288355Y342975D01*
X287802Y343802D01*
X286975Y344355D01*
X286000Y344548D01*
D02*
G37*
G36*
X276000D02*
X275025Y344355D01*
X274198Y343802D01*
X273645Y342975D01*
X273451Y342000D01*
X273645Y341024D01*
X274198Y340197D01*
X275025Y339645D01*
X276000Y339451D01*
X276975Y339645D01*
X277802Y340197D01*
X278355Y341024D01*
X278549Y342000D01*
X278355Y342975D01*
X277802Y343802D01*
X276975Y344355D01*
X276000Y344548D01*
D02*
G37*
G36*
Y354548D02*
X275025Y354355D01*
X274198Y353802D01*
X273645Y352975D01*
X273451Y352000D01*
X273645Y351024D01*
X274198Y350197D01*
X275025Y349645D01*
X276000Y349451D01*
X276975Y349645D01*
X277802Y350197D01*
X278355Y351024D01*
X278549Y352000D01*
X278355Y352975D01*
X277802Y353802D01*
X276975Y354355D01*
X276000Y354548D01*
D02*
G37*
G36*
X206000Y363549D02*
X205025Y363355D01*
X204198Y362803D01*
X203645Y361976D01*
X203451Y361000D01*
X203455Y360979D01*
X196184Y353707D01*
X195500Y353843D01*
X176500D01*
X175817Y353707D01*
X168545Y360979D01*
X168549Y361000D01*
X168355Y361976D01*
X167803Y362803D01*
X166976Y363355D01*
X166000Y363549D01*
X165025Y363355D01*
X164198Y362803D01*
X163645Y361976D01*
X163451Y361000D01*
X163645Y360025D01*
X164198Y359198D01*
X165025Y358645D01*
X166000Y358451D01*
X166021Y358456D01*
X172666Y351811D01*
X172026Y350853D01*
X171657Y349000D01*
Y341000D01*
X172026Y339146D01*
X173076Y337575D01*
X174647Y336525D01*
X176500Y336157D01*
X195500D01*
X197353Y336525D01*
X198925Y337575D01*
X199975Y339146D01*
X200343Y341000D01*
Y349000D01*
X199975Y350853D01*
X199335Y351811D01*
X205979Y358456D01*
X206000Y358451D01*
X206976Y358645D01*
X207803Y359198D01*
X208355Y360025D01*
X208549Y361000D01*
X208355Y361976D01*
X207803Y362803D01*
X206976Y363355D01*
X206000Y363549D01*
D02*
G37*
G36*
X291645Y360787D02*
X289395D01*
X288664Y360641D01*
X288043Y360227D01*
X287629Y359606D01*
X287483Y358875D01*
Y355125D01*
X287629Y354393D01*
X288043Y353773D01*
X288664Y353359D01*
X289395Y353213D01*
X291645D01*
X292377Y353359D01*
X292548Y353473D01*
X293604Y352767D01*
X293451Y352000D01*
X293645Y351024D01*
X294198Y350197D01*
X295025Y349645D01*
X296000Y349451D01*
X296767Y349603D01*
X297473Y348547D01*
X297359Y348377D01*
X297213Y347645D01*
Y345737D01*
X296021Y344544D01*
X296000Y344548D01*
X295025Y344355D01*
X294198Y343802D01*
X293645Y342975D01*
X293451Y342000D01*
X293645Y341024D01*
X294198Y340197D01*
X295025Y339645D01*
X296000Y339451D01*
X296318Y339514D01*
X297216Y338616D01*
X297213Y338605D01*
Y336355D01*
X297316Y335839D01*
X296021Y334544D01*
X296000Y334548D01*
X295025Y334355D01*
X294198Y333802D01*
X293645Y332975D01*
X293451Y332000D01*
X293645Y331024D01*
X294198Y330197D01*
X295025Y329645D01*
X296000Y329451D01*
X296975Y329645D01*
X297802Y330197D01*
X298355Y331024D01*
X298549Y332000D01*
X298545Y332021D01*
X300967Y334443D01*
X302875D01*
X303267Y334521D01*
X303972Y333465D01*
X303645Y332975D01*
X303451Y332000D01*
X303645Y331024D01*
X304198Y330197D01*
X305025Y329645D01*
X306000Y329451D01*
X306975Y329645D01*
X307802Y330197D01*
X308355Y331024D01*
X308549Y332000D01*
X308355Y332975D01*
X307802Y333802D01*
X306975Y334355D01*
X306000Y334548D01*
X305232Y334396D01*
X304527Y335452D01*
X304641Y335623D01*
X304787Y336355D01*
Y338605D01*
X304641Y339337D01*
X304227Y339957D01*
X303607Y340371D01*
X302875Y340517D01*
X299255D01*
X298449Y341498D01*
X298549Y342000D01*
X298545Y342021D01*
X300007Y343484D01*
X302875D01*
X303607Y343629D01*
X304227Y344044D01*
X304641Y344664D01*
X304787Y345395D01*
Y347645D01*
X304641Y348377D01*
X304528Y348547D01*
X305233Y349603D01*
X306000Y349451D01*
X306975Y349645D01*
X307802Y350197D01*
X308355Y351024D01*
X308549Y352000D01*
X308355Y352975D01*
X307802Y353802D01*
X306975Y354355D01*
X306000Y354548D01*
X305979Y354544D01*
X302261Y358261D01*
X301682Y358648D01*
X301000Y358784D01*
X293557D01*
Y358875D01*
X293411Y359606D01*
X292997Y360227D01*
X292377Y360641D01*
X291645Y360787D01*
D02*
G37*
G36*
X158000Y467549D02*
X157025Y467355D01*
X156198Y466802D01*
X155645Y465975D01*
X155451Y465000D01*
X155645Y464025D01*
X156198Y463198D01*
X157025Y462645D01*
X158000Y462451D01*
X158976Y462645D01*
X159803Y463198D01*
X160355Y464025D01*
X160549Y465000D01*
X160355Y465975D01*
X159803Y466802D01*
X158976Y467355D01*
X158000Y467549D01*
D02*
G37*
G36*
X227330Y462289D02*
X226355Y462095D01*
X225528Y461542D01*
X224975Y460715D01*
X224781Y459740D01*
X224975Y458765D01*
X225528Y457938D01*
X226355Y457385D01*
X227330Y457191D01*
X228305Y457385D01*
X229132Y457938D01*
X229685Y458765D01*
X229879Y459740D01*
X229685Y460715D01*
X229132Y461542D01*
X228305Y462095D01*
X227330Y462289D01*
D02*
G37*
G36*
X214000Y459549D02*
X213025Y459355D01*
X212198Y458802D01*
X211645Y457976D01*
X211451Y457000D01*
X211645Y456025D01*
X212198Y455198D01*
X213025Y454645D01*
X214000Y454451D01*
X214975Y454645D01*
X215802Y455198D01*
X216355Y456025D01*
X216549Y457000D01*
X216355Y457976D01*
X215802Y458802D01*
X214975Y459355D01*
X214000Y459549D01*
D02*
G37*
G36*
Y467549D02*
X213025Y467355D01*
X212198Y466802D01*
X211645Y465975D01*
X211451Y465000D01*
X211645Y464025D01*
X212198Y463198D01*
X213025Y462645D01*
X214000Y462451D01*
X214975Y462645D01*
X215802Y463198D01*
X216355Y464025D01*
X216549Y465000D01*
X216355Y465975D01*
X215802Y466802D01*
X214975Y467355D01*
X214000Y467549D01*
D02*
G37*
G36*
X206000D02*
X205025Y467355D01*
X204198Y466802D01*
X203645Y465975D01*
X203451Y465000D01*
X203645Y464025D01*
X204198Y463198D01*
X205025Y462645D01*
X206000Y462451D01*
X206976Y462645D01*
X207803Y463198D01*
X208355Y464025D01*
X208549Y465000D01*
X208355Y465975D01*
X207803Y466802D01*
X206976Y467355D01*
X206000Y467549D01*
D02*
G37*
G36*
X166000D02*
X165025Y467355D01*
X164198Y466802D01*
X163645Y465975D01*
X163451Y465000D01*
X163645Y464025D01*
X164198Y463198D01*
X165025Y462645D01*
X166000Y462451D01*
X166976Y462645D01*
X167803Y463198D01*
X168355Y464025D01*
X168549Y465000D01*
X168355Y465975D01*
X167803Y466802D01*
X166976Y467355D01*
X166000Y467549D01*
D02*
G37*
G36*
X222000Y451549D02*
X221025Y451355D01*
X220198Y450802D01*
X219645Y449976D01*
X219451Y449000D01*
X219645Y448025D01*
X220198Y447198D01*
X221025Y446645D01*
X222000Y446451D01*
X222976Y446645D01*
X223803Y447198D01*
X224355Y448025D01*
X224549Y449000D01*
X224355Y449976D01*
X223803Y450802D01*
X222976Y451355D01*
X222000Y451549D01*
D02*
G37*
G36*
X214000D02*
X213025Y451355D01*
X212198Y450802D01*
X211645Y449976D01*
X211451Y449000D01*
X211645Y448025D01*
X212198Y447198D01*
X213025Y446645D01*
X214000Y446451D01*
X214975Y446645D01*
X215802Y447198D01*
X216355Y448025D01*
X216549Y449000D01*
X216355Y449976D01*
X215802Y450802D01*
X214975Y451355D01*
X214000Y451549D01*
D02*
G37*
G36*
X206000D02*
X205025Y451355D01*
X204198Y450802D01*
X203645Y449976D01*
X203451Y449000D01*
X203645Y448025D01*
X204198Y447198D01*
X205025Y446645D01*
X206000Y446451D01*
X206976Y446645D01*
X207803Y447198D01*
X208355Y448025D01*
X208549Y449000D01*
X208355Y449976D01*
X207803Y450802D01*
X206976Y451355D01*
X206000Y451549D01*
D02*
G37*
G36*
Y459549D02*
X205025Y459355D01*
X204198Y458802D01*
X203645Y457976D01*
X203451Y457000D01*
X203645Y456025D01*
X204198Y455198D01*
X205025Y454645D01*
X206000Y454451D01*
X206976Y454645D01*
X207803Y455198D01*
X208355Y456025D01*
X208549Y457000D01*
X208355Y457976D01*
X207803Y458802D01*
X206976Y459355D01*
X206000Y459549D01*
D02*
G37*
G36*
X166000D02*
X165025Y459355D01*
X164198Y458802D01*
X163645Y457976D01*
X163451Y457000D01*
X163645Y456025D01*
X164198Y455198D01*
X165025Y454645D01*
X166000Y454451D01*
X166976Y454645D01*
X167803Y455198D01*
X168355Y456025D01*
X168549Y457000D01*
X168355Y457976D01*
X167803Y458802D01*
X166976Y459355D01*
X166000Y459549D01*
D02*
G37*
G36*
X158000D02*
X157025Y459355D01*
X156198Y458802D01*
X155645Y457976D01*
X155451Y457000D01*
X155645Y456025D01*
X156198Y455198D01*
X157025Y454645D01*
X158000Y454451D01*
X158976Y454645D01*
X159803Y455198D01*
X160355Y456025D01*
X160549Y457000D01*
X160355Y457976D01*
X159803Y458802D01*
X158976Y459355D01*
X158000Y459549D01*
D02*
G37*
G36*
X62230Y504203D02*
X60767Y503912D01*
X59526Y503084D01*
X58698Y501843D01*
X58407Y500380D01*
X58698Y498917D01*
X59526Y497676D01*
X60767Y496848D01*
X62230Y496557D01*
X63693Y496848D01*
X64934Y497676D01*
X65762Y498917D01*
X66054Y500380D01*
X65762Y501843D01*
X64934Y503084D01*
X63693Y503912D01*
X62230Y504203D01*
D02*
G37*
G36*
X76000Y498049D02*
X75025Y497855D01*
X74198Y497302D01*
X73645Y496475D01*
X73451Y495500D01*
X73645Y494525D01*
X74198Y493698D01*
X75025Y493145D01*
X76000Y492951D01*
X76975Y493145D01*
X77802Y493698D01*
X78355Y494525D01*
X78549Y495500D01*
X78355Y496475D01*
X77802Y497302D01*
X76975Y497855D01*
X76000Y498049D01*
D02*
G37*
G36*
X214000Y483549D02*
X213025Y483355D01*
X212198Y482802D01*
X211645Y481976D01*
X211451Y481000D01*
X211645Y480025D01*
X212198Y479198D01*
X213025Y478645D01*
X214000Y478451D01*
X214975Y478645D01*
X215802Y479198D01*
X216355Y480025D01*
X216549Y481000D01*
X216355Y481976D01*
X215802Y482802D01*
X214975Y483355D01*
X214000Y483549D01*
D02*
G37*
G36*
X221830Y578064D02*
X218830D01*
X217952Y577889D01*
X217208Y577392D01*
X216710Y576648D01*
X216536Y575770D01*
Y575064D01*
X213157D01*
X213065Y575125D01*
X212090Y575319D01*
X211115Y575125D01*
X210288Y574572D01*
X209735Y573745D01*
X209541Y572770D01*
X209735Y571795D01*
X210288Y570968D01*
X211115Y570415D01*
X212090Y570221D01*
X213065Y570415D01*
X213156Y570476D01*
X216536D01*
Y569770D01*
X216710Y568892D01*
X217208Y568148D01*
X217952Y567650D01*
X218830Y567476D01*
X221830D01*
X222708Y567650D01*
X223452Y568148D01*
X223949Y568892D01*
X224124Y569770D01*
Y575770D01*
X223949Y576648D01*
X223452Y577392D01*
X222708Y577889D01*
X221830Y578064D01*
D02*
G37*
G36*
X140030Y566489D02*
X136530D01*
X135555Y566295D01*
X134728Y565742D01*
X134175Y564916D01*
X134074Y564408D01*
X133018Y563702D01*
X132080Y563889D01*
X131105Y563695D01*
X130278Y563142D01*
X129725Y562315D01*
X129531Y561340D01*
X129725Y560365D01*
X130278Y559538D01*
X131105Y558985D01*
X132080Y558791D01*
X132961Y558966D01*
X134017Y558261D01*
X134175Y557465D01*
X134295Y557285D01*
X133809Y556112D01*
X133157Y555982D01*
X131916Y555154D01*
X131088Y553913D01*
X130796Y552450D01*
X131088Y550987D01*
X131916Y549746D01*
X133157Y548918D01*
X134620Y548627D01*
X136083Y548918D01*
X137324Y549746D01*
X138152Y550987D01*
X138443Y552450D01*
X138152Y553913D01*
X137579Y554771D01*
X138178Y555891D01*
X140030D01*
X141005Y556085D01*
X141833Y556638D01*
X142385Y557465D01*
X142579Y558440D01*
Y563940D01*
X142385Y564916D01*
X141833Y565742D01*
X141005Y566295D01*
X140030Y566489D01*
D02*
G37*
G36*
X153030D02*
X149530D01*
X148555Y566295D01*
X147728Y565742D01*
X147175Y564916D01*
X146981Y563940D01*
Y558440D01*
X147175Y557465D01*
X147728Y556638D01*
X148477Y556137D01*
X148290Y554881D01*
X147771Y554724D01*
X147484Y555154D01*
X146243Y555982D01*
X144780Y556273D01*
X143317Y555982D01*
X142076Y555154D01*
X141248Y553913D01*
X140956Y552450D01*
X141248Y550987D01*
X142076Y549746D01*
X143317Y548918D01*
X144780Y548627D01*
X146243Y548918D01*
X147484Y549746D01*
X148312Y550987D01*
X148590Y552382D01*
X149860D01*
X150138Y550987D01*
X150966Y549746D01*
X152207Y548918D01*
X153670Y548627D01*
X155133Y548918D01*
X156374Y549746D01*
X157202Y550987D01*
X157493Y552450D01*
X157202Y553913D01*
X156374Y555154D01*
X155369Y555825D01*
X155122Y557070D01*
X155385Y557465D01*
X155579Y558440D01*
Y563940D01*
X155385Y564916D01*
X154833Y565742D01*
X154006Y566295D01*
X153030Y566489D01*
D02*
G37*
G36*
X158000Y475549D02*
X157025Y475355D01*
X156198Y474802D01*
X155645Y473975D01*
X155451Y473000D01*
X155645Y472025D01*
X156198Y471198D01*
X157025Y470645D01*
X158000Y470451D01*
X158976Y470645D01*
X159803Y471198D01*
X160355Y472025D01*
X160549Y473000D01*
X160355Y473975D01*
X159803Y474802D01*
X158976Y475355D01*
X158000Y475549D01*
D02*
G37*
G36*
X150000D02*
X149025Y475355D01*
X148198Y474802D01*
X148141Y474717D01*
X147797Y474649D01*
X147218Y474262D01*
X145513Y472557D01*
X143125D01*
X142393Y472411D01*
X141773Y471997D01*
X141359Y471377D01*
X141213Y470645D01*
Y468395D01*
X141359Y467664D01*
Y467664D01*
X140716Y467369D01*
X140716Y467369D01*
Y467369D01*
X139741Y467175D01*
X138914Y466622D01*
X138361Y465795D01*
X138167Y464820D01*
X138361Y463845D01*
X138914Y463018D01*
X139741Y462465D01*
X140716Y462271D01*
X141691Y462465D01*
X142518Y463018D01*
X143071Y463845D01*
X143265Y464820D01*
X143129Y465502D01*
X143734Y466238D01*
X144101Y466483D01*
X146875D01*
X147607Y466629D01*
X148227Y467043D01*
X148641Y467664D01*
X148787Y468395D01*
Y469692D01*
X149768Y470497D01*
X150000Y470451D01*
X150976Y470645D01*
X151803Y471198D01*
X152355Y472025D01*
X152549Y473000D01*
X152355Y473975D01*
X151803Y474802D01*
X150976Y475355D01*
X150000Y475549D01*
D02*
G37*
G36*
X228875Y471517D02*
X225125D01*
X224393Y471371D01*
X223773Y470957D01*
X223359Y470336D01*
X223213Y469605D01*
Y468736D01*
X222021Y467545D01*
X222000Y467549D01*
X221025Y467355D01*
X220198Y466802D01*
X219645Y465975D01*
X219451Y465000D01*
X219645Y464025D01*
X220198Y463198D01*
X221025Y462645D01*
X222000Y462451D01*
X222976Y462645D01*
X223803Y463198D01*
X224355Y464025D01*
X224549Y465000D01*
X224993Y465469D01*
X224993Y465469D01*
X225125Y465443D01*
X228875D01*
X229606Y465589D01*
X230227Y466003D01*
X230641Y466623D01*
X230787Y467355D01*
Y469605D01*
X230641Y470336D01*
X230227Y470957D01*
X229606Y471371D01*
X228875Y471517D01*
D02*
G37*
G36*
X214000Y475549D02*
X213025Y475355D01*
X212198Y474802D01*
X211645Y473975D01*
X211451Y473000D01*
X211645Y472025D01*
X212198Y471198D01*
X213025Y470645D01*
X214000Y470451D01*
X214975Y470645D01*
X215802Y471198D01*
X216355Y472025D01*
X216549Y473000D01*
X216355Y473975D01*
X215802Y474802D01*
X214975Y475355D01*
X214000Y475549D01*
D02*
G37*
G36*
X206000D02*
X205025Y475355D01*
X204198Y474802D01*
X203645Y473975D01*
X203451Y473000D01*
X203645Y472025D01*
X204198Y471198D01*
X205025Y470645D01*
X206000Y470451D01*
X206976Y470645D01*
X207803Y471198D01*
X208355Y472025D01*
X208549Y473000D01*
X208355Y473975D01*
X207803Y474802D01*
X206976Y475355D01*
X206000Y475549D01*
D02*
G37*
G36*
X166000D02*
X165025Y475355D01*
X164198Y474802D01*
X163645Y473975D01*
X163451Y473000D01*
X163645Y472025D01*
X164198Y471198D01*
X165025Y470645D01*
X166000Y470451D01*
X166976Y470645D01*
X167803Y471198D01*
X168355Y472025D01*
X168549Y473000D01*
X168355Y473975D01*
X167803Y474802D01*
X166976Y475355D01*
X166000Y475549D01*
D02*
G37*
G36*
X247392Y422068D02*
X246416Y421874D01*
X245589Y421322D01*
X245037Y420495D01*
X244843Y419519D01*
X245037Y418544D01*
X245589Y417717D01*
X246416Y417164D01*
X247392Y416970D01*
X248367Y417164D01*
X249194Y417717D01*
X249746Y418544D01*
X249940Y419519D01*
X249746Y420495D01*
X249194Y421322D01*
X248367Y421874D01*
X247392Y422068D01*
D02*
G37*
G36*
X222000Y419549D02*
X221025Y419355D01*
X220198Y418802D01*
X219645Y417976D01*
X219451Y417000D01*
X219645Y416025D01*
X220198Y415198D01*
X221025Y414645D01*
X222000Y414451D01*
X222976Y414645D01*
X223803Y415198D01*
X224355Y416025D01*
X224549Y417000D01*
X224355Y417976D01*
X223803Y418802D01*
X222976Y419355D01*
X222000Y419549D01*
D02*
G37*
G36*
X166000D02*
X165025Y419355D01*
X164198Y418802D01*
X163645Y417976D01*
X163451Y417000D01*
X163645Y416025D01*
X164198Y415198D01*
X165025Y414645D01*
X166000Y414451D01*
X166976Y414645D01*
X167803Y415198D01*
X168355Y416025D01*
X168549Y417000D01*
X168355Y417976D01*
X167803Y418802D01*
X166976Y419355D01*
X166000Y419549D01*
D02*
G37*
G36*
X286000Y424549D02*
X285025Y424355D01*
X284198Y423803D01*
X283645Y422976D01*
X283451Y422000D01*
X283645Y421025D01*
X284198Y420198D01*
X285025Y419646D01*
X286000Y419451D01*
X286975Y419646D01*
X287802Y420198D01*
X288355Y421025D01*
X288549Y422000D01*
X288355Y422976D01*
X287802Y423803D01*
X286975Y424355D01*
X286000Y424549D01*
D02*
G37*
G36*
X276000D02*
X275025Y424355D01*
X274198Y423803D01*
X273645Y422976D01*
X273451Y422000D01*
X273645Y421025D01*
X274198Y420198D01*
X275025Y419646D01*
X276000Y419451D01*
X276975Y419646D01*
X277802Y420198D01*
X278355Y421025D01*
X278549Y422000D01*
X278355Y422976D01*
X277802Y423803D01*
X276975Y424355D01*
X276000Y424549D01*
D02*
G37*
G36*
X166000Y435549D02*
X165025Y435355D01*
X164198Y434803D01*
X163645Y433976D01*
X163451Y433000D01*
X163645Y432025D01*
X164198Y431198D01*
X164216Y431186D01*
Y428342D01*
X164043Y428227D01*
X163629Y427607D01*
X163483Y426875D01*
Y425006D01*
X158022Y419545D01*
X158000Y419549D01*
X157025Y419355D01*
X156198Y418802D01*
X155645Y417976D01*
X155451Y417000D01*
X155645Y416025D01*
X156198Y415198D01*
X157025Y414645D01*
X158000Y414451D01*
X158976Y414645D01*
X159803Y415198D01*
X160355Y416025D01*
X160549Y417000D01*
X160545Y417021D01*
X164846Y421323D01*
X165395Y421213D01*
X167645D01*
X168377Y421359D01*
X168997Y421773D01*
X169411Y422393D01*
X169557Y423125D01*
Y426875D01*
X169411Y427607D01*
X168997Y428227D01*
X168377Y428641D01*
X167785Y428759D01*
Y431186D01*
X167803Y431198D01*
X167815Y431216D01*
X170261D01*
X175216Y426261D01*
Y424557D01*
X175125D01*
X174393Y424411D01*
X173773Y423997D01*
X173359Y423376D01*
X173213Y422645D01*
Y420395D01*
X173359Y419663D01*
X173773Y419043D01*
X174393Y418629D01*
X175125Y418483D01*
X178875D01*
X179606Y418629D01*
X180227Y419043D01*
X180641Y419663D01*
X180787Y420395D01*
Y422645D01*
X180641Y423376D01*
X180227Y423997D01*
X179606Y424411D01*
X178875Y424557D01*
X178784D01*
Y427000D01*
X178784Y427000D01*
X178671Y427570D01*
X178648Y427683D01*
X178262Y428262D01*
X172262Y434262D01*
X171683Y434649D01*
X171000Y434784D01*
X167815D01*
X167803Y434803D01*
X166976Y435355D01*
X166000Y435549D01*
D02*
G37*
G36*
X214000Y411549D02*
X213025Y411355D01*
X212198Y410803D01*
X211645Y409976D01*
X211451Y409000D01*
X211645Y408025D01*
X212198Y407198D01*
X213025Y406645D01*
X214000Y406451D01*
X214975Y406645D01*
X215802Y407198D01*
X216355Y408025D01*
X216549Y409000D01*
X216355Y409976D01*
X215802Y410803D01*
X214975Y411355D01*
X214000Y411549D01*
D02*
G37*
G36*
X158000D02*
X157025Y411355D01*
X156198Y410803D01*
X155645Y409976D01*
X155451Y409000D01*
X155645Y408025D01*
X156198Y407198D01*
X157025Y406645D01*
X158000Y406451D01*
X158976Y406645D01*
X159803Y407198D01*
X160355Y408025D01*
X160549Y409000D01*
X160355Y409976D01*
X159803Y410803D01*
X158976Y411355D01*
X158000Y411549D01*
D02*
G37*
G36*
X150000D02*
X149025Y411355D01*
X148198Y410803D01*
X147645Y409976D01*
X147451Y409000D01*
X147645Y408025D01*
X148198Y407198D01*
X149025Y406645D01*
X150000Y406451D01*
X150976Y406645D01*
X151803Y407198D01*
X152355Y408025D01*
X152549Y409000D01*
X152355Y409976D01*
X151803Y410803D01*
X150976Y411355D01*
X150000Y411549D01*
D02*
G37*
G36*
X296000Y414549D02*
X295025Y414355D01*
X294198Y413803D01*
X293645Y412976D01*
X293451Y412000D01*
X293645Y411025D01*
X294198Y410198D01*
X295025Y409646D01*
X296000Y409451D01*
X296975Y409646D01*
X297802Y410198D01*
X298355Y411025D01*
X298549Y412000D01*
X298355Y412976D01*
X297802Y413803D01*
X296975Y414355D01*
X296000Y414549D01*
D02*
G37*
G36*
X286000D02*
X285025Y414355D01*
X284198Y413803D01*
X283645Y412976D01*
X283451Y412000D01*
X283645Y411025D01*
X284198Y410198D01*
X285025Y409646D01*
X286000Y409451D01*
X286975Y409646D01*
X287802Y410198D01*
X288355Y411025D01*
X288549Y412000D01*
X288355Y412976D01*
X287802Y413803D01*
X286975Y414355D01*
X286000Y414549D01*
D02*
G37*
G36*
X276000D02*
X275025Y414355D01*
X274198Y413803D01*
X273645Y412976D01*
X273451Y412000D01*
X273645Y411025D01*
X274198Y410198D01*
X275025Y409646D01*
X276000Y409451D01*
X276975Y409646D01*
X277802Y410198D01*
X278355Y411025D01*
X278549Y412000D01*
X278355Y412976D01*
X277802Y413803D01*
X276975Y414355D01*
X276000Y414549D01*
D02*
G37*
G36*
X214000Y443549D02*
X213025Y443355D01*
X212198Y442803D01*
X211645Y441976D01*
X211451Y441000D01*
X211645Y440025D01*
X212198Y439198D01*
X213025Y438645D01*
X214000Y438451D01*
X214975Y438645D01*
X215802Y439198D01*
X216355Y440025D01*
X216549Y441000D01*
X216355Y441976D01*
X215802Y442803D01*
X214975Y443355D01*
X214000Y443549D01*
D02*
G37*
G36*
X206000D02*
X205025Y443355D01*
X204198Y442803D01*
X203645Y441976D01*
X203451Y441000D01*
X203645Y440025D01*
X204198Y439198D01*
X205025Y438645D01*
X206000Y438451D01*
X206976Y438645D01*
X207803Y439198D01*
X208355Y440025D01*
X208549Y441000D01*
X208355Y441976D01*
X207803Y442803D01*
X206976Y443355D01*
X206000Y443549D01*
D02*
G37*
G36*
X166000D02*
X165025Y443355D01*
X164198Y442803D01*
X163645Y441976D01*
X163451Y441000D01*
X163645Y440025D01*
X164198Y439198D01*
X165025Y438645D01*
X166000Y438451D01*
X166976Y438645D01*
X167803Y439198D01*
X168355Y440025D01*
X168549Y441000D01*
X168355Y441976D01*
X167803Y442803D01*
X166976Y443355D01*
X166000Y443549D01*
D02*
G37*
G36*
Y451549D02*
X165025Y451355D01*
X164198Y450802D01*
X163645Y449976D01*
X163451Y449000D01*
X163645Y448025D01*
X164198Y447198D01*
X165025Y446645D01*
X166000Y446451D01*
X166976Y446645D01*
X167803Y447198D01*
X168355Y448025D01*
X168549Y449000D01*
X168355Y449976D01*
X167803Y450802D01*
X166976Y451355D01*
X166000Y451549D01*
D02*
G37*
G36*
X286000Y444549D02*
X285025Y444355D01*
X284198Y443803D01*
X283645Y442976D01*
X283451Y442000D01*
X283645Y441025D01*
X284198Y440198D01*
X285025Y439645D01*
X286000Y439451D01*
X286975Y439645D01*
X287802Y440198D01*
X288355Y441025D01*
X288549Y442000D01*
X288355Y442976D01*
X287802Y443803D01*
X286975Y444355D01*
X286000Y444549D01*
D02*
G37*
G36*
X276000D02*
X275025Y444355D01*
X274198Y443803D01*
X273645Y442976D01*
X273451Y442000D01*
X273645Y441025D01*
X274198Y440198D01*
X275025Y439645D01*
X276000Y439451D01*
X276975Y439645D01*
X277802Y440198D01*
X278355Y441025D01*
X278549Y442000D01*
X278355Y442976D01*
X277802Y443803D01*
X276975Y444355D01*
X276000Y444549D01*
D02*
G37*
G36*
X264000Y433549D02*
X263025Y433355D01*
X262198Y432803D01*
X261645Y431976D01*
X261451Y431000D01*
X261645Y430025D01*
X262198Y429198D01*
X263025Y428645D01*
X264000Y428451D01*
X264975Y428645D01*
X265802Y429198D01*
X266355Y430025D01*
X266549Y431000D01*
X266355Y431976D01*
X265802Y432803D01*
X264975Y433355D01*
X264000Y433549D01*
D02*
G37*
G36*
X214000Y435549D02*
X213025Y435355D01*
X212198Y434803D01*
X211645Y433976D01*
X211451Y433000D01*
X211645Y432025D01*
X212198Y431198D01*
X212736Y430838D01*
Y428656D01*
X212663Y428641D01*
X212043Y428227D01*
X211629Y427607D01*
X211483Y426875D01*
Y423180D01*
X211229Y423075D01*
X210145Y422859D01*
X208517Y424487D01*
Y426875D01*
X208371Y427607D01*
X207957Y428227D01*
X207784Y428342D01*
Y431186D01*
X207803Y431198D01*
X208355Y432025D01*
X208549Y433000D01*
X208355Y433976D01*
X207803Y434803D01*
X206976Y435355D01*
X206000Y435549D01*
X205025Y435355D01*
X204198Y434803D01*
X204186Y434784D01*
X201000D01*
X201000Y434784D01*
X200430Y434671D01*
X200317Y434649D01*
X199738Y434262D01*
X193738Y428262D01*
X193351Y427683D01*
X193216Y427000D01*
Y424557D01*
X193125D01*
X192393Y424411D01*
X191773Y423997D01*
X191359Y423376D01*
X191213Y422645D01*
Y420395D01*
X191359Y419663D01*
X191773Y419043D01*
X192393Y418629D01*
X193125Y418483D01*
X196875D01*
X197607Y418629D01*
X198227Y419043D01*
X198641Y419663D01*
X198787Y420395D01*
Y422645D01*
X198641Y423376D01*
X198227Y423997D01*
X197607Y424411D01*
X196875Y424557D01*
X196784D01*
Y426261D01*
X201739Y431216D01*
X204186D01*
X204198Y431198D01*
X204216Y431186D01*
Y428759D01*
X203623Y428641D01*
X203003Y428227D01*
X202589Y427607D01*
X202443Y426875D01*
Y423125D01*
X202589Y422393D01*
X203003Y421773D01*
X203623Y421359D01*
X204355Y421213D01*
X206605D01*
X206940Y419528D01*
X206860Y419378D01*
X206000Y419549D01*
X205025Y419355D01*
X204198Y418802D01*
X203645Y417976D01*
X203451Y417000D01*
X203645Y416025D01*
X204198Y415198D01*
X205025Y414645D01*
X206000Y414451D01*
X206976Y414645D01*
X207803Y415198D01*
X208355Y416025D01*
X208549Y417000D01*
X208378Y417860D01*
X209498Y418459D01*
X211574Y416383D01*
X211645Y416025D01*
X212198Y415198D01*
X213025Y414645D01*
X214000Y414451D01*
X214975Y414645D01*
X215802Y415198D01*
X216355Y416025D01*
X216549Y417000D01*
X216355Y417976D01*
X215802Y418802D01*
X214975Y419355D01*
X214000Y419549D01*
D01*
X213129Y419875D01*
X213344Y420960D01*
X213449Y421213D01*
X215645D01*
X216376Y421359D01*
X216997Y421773D01*
X217411Y422393D01*
X217556Y423125D01*
Y426875D01*
X217411Y427607D01*
X216997Y428227D01*
X216376Y428641D01*
X216304Y428656D01*
Y431948D01*
X216355Y432025D01*
X216549Y433000D01*
X216355Y433976D01*
X215802Y434803D01*
X214975Y435355D01*
X214000Y435549D01*
D02*
G37*
G36*
X150000Y427549D02*
X149025Y427355D01*
X148198Y426802D01*
X147645Y425976D01*
X147451Y425000D01*
X147645Y424025D01*
X148198Y423198D01*
X149025Y422645D01*
X150000Y422451D01*
X150976Y422645D01*
X151803Y423198D01*
X152355Y424025D01*
X152549Y425000D01*
X152355Y425976D01*
X151803Y426802D01*
X150976Y427355D01*
X150000Y427549D01*
D02*
G37*
G36*
X238252Y438413D02*
X237277Y438219D01*
X236450Y437666D01*
X235897Y436839D01*
X235703Y435864D01*
X235897Y434889D01*
X236450Y434062D01*
X237277Y433509D01*
X238252Y433315D01*
X239227Y433509D01*
X240054Y434062D01*
X240607Y434889D01*
X240801Y435864D01*
X240607Y436839D01*
X240054Y437666D01*
X239227Y438219D01*
X238252Y438413D01*
D02*
G37*
G36*
X286000Y434549D02*
X285025Y434355D01*
X284198Y433803D01*
X283645Y432976D01*
X283451Y432000D01*
X283645Y431025D01*
X284198Y430198D01*
X285025Y429645D01*
X286000Y429451D01*
X286975Y429645D01*
X287802Y430198D01*
X288355Y431025D01*
X288549Y432000D01*
X288355Y432976D01*
X287802Y433803D01*
X286975Y434355D01*
X286000Y434549D01*
D02*
G37*
G36*
X276000D02*
X275025Y434355D01*
X274198Y433803D01*
X273645Y432976D01*
X273451Y432000D01*
X273645Y431025D01*
X274198Y430198D01*
X275025Y429645D01*
X276000Y429451D01*
X276975Y429645D01*
X277802Y430198D01*
X278355Y431025D01*
X278549Y432000D01*
X278355Y432976D01*
X277802Y433803D01*
X276975Y434355D01*
X276000Y434549D01*
D02*
G37*
%LPD*%
D10*
X720500Y463000D02*
G03*
X720500Y463000I-2500J0D01*
G01*
X199500Y78000D02*
G03*
X199500Y78000I-2500J0D01*
G01*
D11*
X526430Y46990D02*
D03*
X512430D02*
D03*
X672480Y93980D02*
D03*
X658480D02*
D03*
X632826D02*
D03*
X646826D02*
D03*
X126000Y513000D02*
D03*
X112000D02*
D03*
Y498000D02*
D03*
X126000D02*
D03*
X156000Y23000D02*
D03*
X142000D02*
D03*
X257000D02*
D03*
X271000D02*
D03*
X257000Y37000D02*
D03*
X271000D02*
D03*
X327000Y188000D02*
D03*
X341000D02*
D03*
X539130Y69850D02*
D03*
X525130D02*
D03*
X522000Y209000D02*
D03*
X508000D02*
D03*
X712000Y285000D02*
D03*
X698000D02*
D03*
X712000Y297000D02*
D03*
X698000D02*
D03*
X755000Y328422D02*
D03*
X769000D02*
D03*
X220330Y572770D02*
D03*
X234330D02*
D03*
D12*
X554000Y541500D02*
D03*
Y523500D02*
D03*
X486410Y33900D02*
D03*
Y15900D02*
D03*
X621000Y45500D02*
D03*
Y27500D02*
D03*
X473000Y144500D02*
D03*
Y162500D02*
D03*
X560000Y148500D02*
D03*
Y166500D02*
D03*
X710000Y27500D02*
D03*
Y45500D02*
D03*
X310000Y61500D02*
D03*
Y43500D02*
D03*
X290000Y61500D02*
D03*
Y43500D02*
D03*
X271000Y209500D02*
D03*
Y227500D02*
D03*
X206756Y121548D02*
D03*
Y139548D02*
D03*
X505460Y34290D02*
D03*
Y16290D02*
D03*
D20*
X486410Y61610D02*
D03*
Y47610D02*
D03*
X414320Y206720D02*
D03*
X427320D02*
D03*
Y220720D02*
D03*
X414320D02*
D03*
X387096Y247762D02*
D03*
Y261762D02*
D03*
X311000Y88000D02*
D03*
Y74000D02*
D03*
X620000D02*
D03*
Y60000D02*
D03*
X164592Y307990D02*
D03*
Y293990D02*
D03*
X186944Y263002D02*
D03*
Y277002D02*
D03*
X224000Y214000D02*
D03*
Y200000D02*
D03*
X186000Y126000D02*
D03*
Y140000D02*
D03*
X174000Y200000D02*
D03*
Y214000D02*
D03*
X161000Y140000D02*
D03*
Y126000D02*
D03*
X305000Y202000D02*
D03*
Y216000D02*
D03*
X473000Y126000D02*
D03*
Y112000D02*
D03*
X491000Y122000D02*
D03*
Y136000D02*
D03*
X241046Y123810D02*
D03*
Y137810D02*
D03*
X142000Y445000D02*
D03*
Y431000D02*
D03*
D21*
X676266Y114554D02*
D03*
X658266D02*
D03*
X379866Y190754D02*
D03*
X397866D02*
D03*
X537500Y104000D02*
D03*
X519500D02*
D03*
X641976Y114808D02*
D03*
X623976D02*
D03*
D22*
X508540Y104140D02*
D03*
X499840D02*
D03*
Y91440D02*
D03*
X508540D02*
D03*
X617520Y458000D02*
D03*
X608480D02*
D03*
X552520D02*
D03*
X543480D02*
D03*
X497520Y218000D02*
D03*
X488480D02*
D03*
X567520D02*
D03*
X558480D02*
D03*
X632520D02*
D03*
X623480D02*
D03*
X740886Y316484D02*
D03*
X749586D02*
D03*
X709898Y310896D02*
D03*
X718598D02*
D03*
X708374Y330962D02*
D03*
X717074D02*
D03*
X757650Y316484D02*
D03*
X766350D02*
D03*
X727170Y365760D02*
D03*
X735870D02*
D03*
X744950Y365760D02*
D03*
X753650D02*
D03*
X166520Y425000D02*
D03*
X157480D02*
D03*
X159520Y395000D02*
D03*
X150480D02*
D03*
X214520Y425000D02*
D03*
X205480D02*
D03*
X701520Y242000D02*
D03*
X692480D02*
D03*
X718520Y233000D02*
D03*
X709480D02*
D03*
Y243000D02*
D03*
X718520D02*
D03*
Y252000D02*
D03*
X709480D02*
D03*
X701520D02*
D03*
X692480D02*
D03*
X336856Y357124D02*
D03*
X345896D02*
D03*
X391480Y297000D02*
D03*
X400520D02*
D03*
X420318Y296926D02*
D03*
X411278D02*
D03*
X401480Y307000D02*
D03*
X410520D02*
D03*
X400520Y327000D02*
D03*
X391480D02*
D03*
X392482Y337058D02*
D03*
X401522D02*
D03*
X281480Y287000D02*
D03*
X290520D02*
D03*
X320520Y297000D02*
D03*
X311480D02*
D03*
X320520Y307000D02*
D03*
X311480D02*
D03*
X281480Y327000D02*
D03*
X290520D02*
D03*
X319520Y347000D02*
D03*
X310480D02*
D03*
X290520Y357000D02*
D03*
X281480D02*
D03*
X300520Y397000D02*
D03*
X291480D02*
D03*
X429970Y317500D02*
D03*
X420930D02*
D03*
X345896Y367030D02*
D03*
X336856D02*
D03*
X371400Y286766D02*
D03*
X380440D02*
D03*
X371400Y306832D02*
D03*
X380440D02*
D03*
X320520Y397000D02*
D03*
X311480D02*
D03*
X320520Y317000D02*
D03*
X311480D02*
D03*
X533520Y90000D02*
D03*
X524480D02*
D03*
X750466Y293370D02*
D03*
X741426D02*
D03*
X722428Y293370D02*
D03*
X731468D02*
D03*
X717074Y345948D02*
D03*
X708374D02*
D03*
D23*
X453000Y427520D02*
D03*
Y418480D02*
D03*
Y357520D02*
D03*
Y348480D02*
D03*
X693000Y351520D02*
D03*
Y342480D02*
D03*
Y407520D02*
D03*
Y398480D02*
D03*
X198000Y395520D02*
D03*
Y386480D02*
D03*
X173000Y395520D02*
D03*
Y386480D02*
D03*
X177000Y421520D02*
D03*
Y412480D02*
D03*
X195000Y421520D02*
D03*
Y412480D02*
D03*
X145000Y469520D02*
D03*
Y460480D02*
D03*
X227000Y468480D02*
D03*
Y477520D02*
D03*
X228000Y401520D02*
D03*
Y392480D02*
D03*
X144000Y369520D02*
D03*
Y360480D02*
D03*
X228000Y369520D02*
D03*
Y360480D02*
D03*
X714000Y261480D02*
D03*
Y270520D02*
D03*
X704000Y261480D02*
D03*
Y270520D02*
D03*
X694000D02*
D03*
Y261480D02*
D03*
X345694Y338126D02*
D03*
Y347166D02*
D03*
X384302Y368098D02*
D03*
Y377138D02*
D03*
X411000Y286520D02*
D03*
Y277480D02*
D03*
Y336520D02*
D03*
Y327480D02*
D03*
X421000Y336520D02*
D03*
Y327480D02*
D03*
X431000Y306520D02*
D03*
Y297480D02*
D03*
X301000Y337480D02*
D03*
Y346520D02*
D03*
X321000Y386520D02*
D03*
Y377480D02*
D03*
X366014Y356056D02*
D03*
Y347016D02*
D03*
X345948Y376734D02*
D03*
Y385774D02*
D03*
X363982Y368098D02*
D03*
Y377138D02*
D03*
X374142Y368046D02*
D03*
Y377086D02*
D03*
X301000Y436520D02*
D03*
Y427480D02*
D03*
X575000Y153480D02*
D03*
Y162520D02*
D03*
X694000Y35520D02*
D03*
Y26480D02*
D03*
X610108Y102922D02*
D03*
Y111962D02*
D03*
D24*
X186000Y345000D02*
D03*
Y373000D02*
D03*
D26*
X582930Y105560D02*
D03*
Y92560D02*
D03*
Y120500D02*
D03*
Y133500D02*
D03*
X598170Y113942D02*
D03*
Y100942D02*
D03*
X620014Y97940D02*
D03*
Y84940D02*
D03*
X596900Y158900D02*
D03*
Y145900D02*
D03*
X639000Y26500D02*
D03*
Y39500D02*
D03*
X293000Y87500D02*
D03*
Y74500D02*
D03*
X494030Y160170D02*
D03*
Y147170D02*
D03*
X541000Y164500D02*
D03*
Y151500D02*
D03*
X541020Y34140D02*
D03*
Y47140D02*
D03*
X524510Y18750D02*
D03*
Y31750D02*
D03*
X362204Y213510D02*
D03*
Y200510D02*
D03*
X346000Y200500D02*
D03*
Y213500D02*
D03*
X311000Y100500D02*
D03*
Y113500D02*
D03*
X225552Y124818D02*
D03*
Y137818D02*
D03*
X171958Y263502D02*
D03*
Y276502D02*
D03*
X289000Y212500D02*
D03*
Y225500D02*
D03*
Y201500D02*
D03*
Y188500D02*
D03*
D27*
X645500Y194000D02*
D03*
X632500D02*
D03*
X656500D02*
D03*
X669500D02*
D03*
X430380Y263398D02*
D03*
X443380D02*
D03*
X420266D02*
D03*
X407266D02*
D03*
X519500Y124000D02*
D03*
X532500D02*
D03*
X495500Y195000D02*
D03*
X508500D02*
D03*
X534500D02*
D03*
X521500D02*
D03*
X314500Y188000D02*
D03*
X301500D02*
D03*
X203096Y293370D02*
D03*
X190096D02*
D03*
X380500Y274000D02*
D03*
X393500D02*
D03*
X700500Y231000D02*
D03*
X687500D02*
D03*
X138280Y561190D02*
D03*
X151280D02*
D03*
D32*
X142000Y504000D02*
D03*
X170000D02*
D03*
D72*
X650000Y308000D02*
X657500Y315500D01*
X650000Y286000D02*
Y308000D01*
X658000Y251000D02*
X658500Y250500D01*
X679250D01*
X657999Y257999D02*
X660498Y255500D01*
X679250D01*
X600710Y593090D02*
X604520Y589280D01*
X488950Y593090D02*
X600710D01*
X469696Y573836D02*
X488950Y593090D01*
X422654Y227586D02*
X423161Y228093D01*
X422654Y225386D02*
Y227586D01*
Y225386D02*
X427320Y220720D01*
X418254Y224654D02*
Y228092D01*
X414320Y220720D02*
X418254Y224654D01*
X766000Y354000D02*
X780000D01*
X766002Y353498D02*
Y353998D01*
X123190Y205740D02*
Y228600D01*
X121000Y230790D02*
X123190Y228600D01*
X121000Y230790D02*
Y233000D01*
X111100Y200000D02*
X119380Y208280D01*
Y217170D01*
X114300Y196850D02*
X123190Y205740D01*
X415798Y272288D02*
X434594D01*
X407266Y263756D02*
X415798Y272288D01*
X106680Y196850D02*
X114300D01*
X504880Y369880D02*
X505000Y370000D01*
Y370036D01*
X511000Y366000D02*
X514000D01*
X510000Y365000D02*
X511000Y366000D01*
X514999Y294053D02*
X515000D01*
Y295000D01*
X514999Y294053D02*
Y294999D01*
X504984Y304984D02*
Y304984D01*
X505000Y305000D01*
X495000Y255000D02*
X495999D01*
X495000Y255000D02*
X495000Y255000D01*
X656000Y185000D02*
X656170D01*
X656590Y185420D01*
X653250Y281250D02*
Y287346D01*
X653000Y281000D02*
X653250Y281250D01*
X653000Y287596D02*
Y303000D01*
Y287596D02*
X653250Y287346D01*
X661000Y281000D02*
Y296000D01*
X702912Y291094D02*
Y291176D01*
X702818Y291000D02*
X702912Y291094D01*
X702750Y291338D02*
X702912Y291176D01*
X702750Y291338D02*
X702818D01*
X707250Y290690D02*
X707560Y291000D01*
X707318D02*
X707560D01*
X657999Y257999D02*
X658000Y258000D01*
X509450Y354640D02*
X514810Y360000D01*
X509500Y365500D02*
X510000Y365000D01*
X514500Y310500D02*
X515000Y310000D01*
X600500Y231750D02*
Y244500D01*
X595500Y240500D02*
X597000Y242000D01*
X650500Y216500D02*
X653000Y214000D01*
X658799Y213800D02*
X658800D01*
X659000Y214000D01*
X766046Y353543D02*
Y353554D01*
X766002Y353498D02*
X766046Y353543D01*
X764128Y358000D02*
X784000D01*
X763880Y357752D02*
X764128Y358000D01*
X766000Y354000D02*
X766002Y353998D01*
X766000Y362000D02*
X780000D01*
X141000Y317320D02*
X147322Y310998D01*
Y304821D02*
Y310998D01*
X139696Y299698D02*
X139770Y299771D01*
Y302190D01*
X139700Y302260D02*
X139770Y302190D01*
X371958Y103132D02*
X372458Y103632D01*
X371958Y102017D02*
Y103132D01*
X371708Y101767D02*
X371958Y102017D01*
X371708Y96335D02*
Y101767D01*
X372490Y103600D02*
X372999D01*
X372458Y103632D02*
X372490Y103600D01*
X368058Y103632D02*
X368808Y102882D01*
Y97536D02*
Y102882D01*
X500360Y354640D02*
X509450D01*
X784000Y358000D02*
X785892Y356108D01*
X785876D02*
X785892D01*
X732028Y365760D02*
X732282Y365506D01*
X616966Y147320D02*
X619506Y144780D01*
X690880D01*
X698660Y137000D01*
X735000D01*
X127000Y341000D02*
X135000D01*
X111000Y357000D02*
X127000Y341000D01*
X111000Y357000D02*
Y364000D01*
X125000Y337000D02*
X133000D01*
X102000Y360000D02*
X125000Y337000D01*
X86500Y360000D02*
X102000D01*
X122000Y333000D02*
X131000D01*
X103000Y352000D02*
X122000Y333000D01*
X86500Y352000D02*
X103000D01*
X111000Y333000D02*
Y337000D01*
X104000Y344000D02*
X111000Y337000D01*
X86500Y344000D02*
X104000D01*
X115346Y400000D02*
X130000Y385345D01*
Y365751D02*
Y385345D01*
Y365751D02*
X139751Y356000D01*
X113000Y392000D02*
X126000Y379000D01*
Y362950D02*
Y379000D01*
Y362950D02*
X135450Y353500D01*
X112000Y384000D02*
X121000Y375000D01*
Y361000D02*
Y375000D01*
Y361000D02*
X133000Y349000D01*
X111000Y376000D02*
X116000Y371000D01*
Y359000D02*
Y371000D01*
Y359000D02*
X130000Y345000D01*
X139751Y356000D02*
X142000D01*
X173990Y324010D01*
Y320040D02*
Y324010D01*
X86500Y392000D02*
X113000D01*
X86500Y400000D02*
X115346D01*
X86500Y384000D02*
X112000D01*
X152160Y331710D02*
Y334062D01*
X133000Y349000D02*
X137221D01*
X135450Y353500D02*
X138609D01*
X137221Y349000D02*
X152160Y334062D01*
X86500Y376000D02*
X111000D01*
X130000Y345000D02*
X136000D01*
X149660Y331340D01*
X135000Y341000D02*
X145000Y331000D01*
X149660Y329130D02*
Y331340D01*
X86500Y368000D02*
X107000D01*
X111000Y364000D01*
X145000Y319000D02*
Y331000D01*
Y319000D02*
X151130Y312870D01*
Y302260D02*
Y312870D01*
X133000Y337000D02*
X141000Y329000D01*
X131000Y333000D02*
X136000Y328000D01*
X141000Y317320D02*
Y329000D01*
X136000Y316000D02*
Y328000D01*
Y316000D02*
X143510Y308490D01*
Y302260D02*
Y308490D01*
X111000Y333000D02*
X139700Y304300D01*
Y302260D02*
Y304300D01*
X104780Y336220D02*
X107000Y334000D01*
Y331150D02*
Y334000D01*
Y331150D02*
X135890Y302260D01*
X132080Y297180D02*
Y299920D01*
X104000Y328000D02*
X132080Y299920D01*
X86500Y328000D02*
X104000D01*
X107000Y320000D02*
X129540Y297460D01*
X86500Y320000D02*
X107000D01*
X129540Y294640D02*
Y297460D01*
X127000Y292100D02*
Y294640D01*
X116000Y298020D02*
Y300560D01*
X113000Y295940D02*
Y296000D01*
X86500D02*
X113000D01*
X86720Y336220D02*
X104780D01*
X109640Y312000D02*
X127000Y294640D01*
X86500Y312000D02*
X109640D01*
X715500Y110000D02*
X736600Y88900D01*
X707000Y110000D02*
X715500D01*
X684920Y132080D02*
X707000Y110000D01*
X604520Y132080D02*
X684920D01*
X709000Y106000D02*
X725000Y90000D01*
X704301Y106000D02*
X709000D01*
X681523Y128778D02*
X704301Y106000D01*
X705720Y102000D02*
X717884Y89836D01*
X702000Y102000D02*
X705720D01*
X679286Y124714D02*
X702000Y102000D01*
X744110Y88790D02*
X744220Y88900D01*
X739100Y84000D02*
X744000Y88900D01*
X729000Y84000D02*
X739100D01*
X725000Y88000D02*
X729000Y84000D01*
X725000Y88000D02*
Y90000D01*
X751840Y119380D02*
Y120160D01*
X735000Y137000D02*
X751840Y120160D01*
X617982Y124714D02*
X679286D01*
X679250Y330500D02*
X687500D01*
X679250Y335500D02*
X687500D01*
X664000Y330000D02*
X668500Y325500D01*
X679250D01*
X707250Y288250D02*
Y290690D01*
X704000Y285000D02*
X707250Y288250D01*
X698000Y285000D02*
X704000D01*
X702818Y291338D02*
Y292182D01*
X698000Y297000D02*
X702818Y292182D01*
X671000Y290000D02*
X671500Y290500D01*
X671000Y280000D02*
X671500Y280500D01*
X580500Y231750D02*
Y244500D01*
X466750Y310500D02*
X514500D01*
X513840Y331160D02*
X515000Y330000D01*
X467410Y331160D02*
X513840D01*
X514500Y335500D02*
X515000Y335000D01*
X655500Y217500D02*
X659000Y214000D01*
X514500Y340500D02*
X515000Y340000D01*
X466750Y340500D02*
X514500D01*
X466750Y335500D02*
X514500D01*
X643890Y201930D02*
X666750D01*
X504500Y385500D02*
X505000Y385000D01*
X466750Y385500D02*
X504500D01*
X504500Y390500D02*
X505000Y390000D01*
X466750Y390500D02*
X504500D01*
X514500Y320500D02*
X515000Y320000D01*
X466750Y320500D02*
X514500D01*
X514500Y345500D02*
X515000Y345000D01*
X436000Y332000D02*
X441176D01*
X596900Y158900D02*
X598320Y157480D01*
X604520D01*
X467370Y369880D02*
X504880D01*
X466750Y370500D02*
X467370Y369880D01*
X478610Y376880D02*
X481510D01*
X483390Y375000D02*
X505000D01*
X477230Y375500D02*
X478610Y376880D01*
X466750Y375500D02*
X477230D01*
X481510Y376880D02*
X483390Y375000D01*
X466750Y380500D02*
X504500D01*
X505000Y380000D01*
X504500Y395500D02*
X505000Y395000D01*
X466750Y395500D02*
X504500D01*
X504500Y400500D02*
X505000Y400000D01*
X466750Y400500D02*
X504500D01*
X500000Y406000D02*
X501000Y405000D01*
X505000D01*
X484000Y406000D02*
X500000D01*
X466750Y405500D02*
X474550D01*
X481500Y403500D02*
X484000Y406000D01*
X476550Y403500D02*
X481500D01*
X474550Y405500D02*
X476550Y403500D01*
X504500Y410000D02*
X505000D01*
X466750Y410500D02*
X485000D01*
X485500Y410000D02*
X504000D01*
X485000Y410500D02*
X485500Y410000D01*
X476500Y417500D02*
X490500D01*
X493000Y415000D02*
X505000D01*
X474500Y415500D02*
X476500Y417500D01*
X466750Y415500D02*
X474500D01*
X490500Y417500D02*
X493000Y415000D01*
X482350Y325000D02*
X515000D01*
X466750Y325500D02*
X477270D01*
X481510Y324160D02*
X482350Y325000D01*
X477270Y325500D02*
X478610Y324160D01*
X481510D01*
X466750Y330500D02*
X467410Y331160D01*
X466750Y345500D02*
X514500D01*
X514810Y360000D02*
X515000D01*
X466750Y360500D02*
X494500D01*
X500360Y354640D01*
X466750Y365500D02*
X509500D01*
X593000Y247000D02*
X597000D01*
X555500Y240500D02*
X557000Y242000D01*
X530500Y231750D02*
Y244500D01*
X516460Y251460D02*
X520000Y255000D01*
X505206Y251460D02*
X516460D01*
X520500Y244500D02*
X523000Y247000D01*
X520500Y231750D02*
Y244500D01*
X515000Y255000D02*
X520000Y260000D01*
X510000Y255000D02*
X515000D01*
X513000Y247000D02*
X517000D01*
X510500Y244500D02*
X513000Y247000D01*
X525500Y240500D02*
X527000Y242000D01*
X525500Y231750D02*
Y240500D01*
X510500Y231750D02*
Y244500D01*
X497840Y258826D02*
X505206Y251460D01*
X523000Y247000D02*
X527000D01*
X491744Y258826D02*
X497840D01*
X488418Y255500D02*
X491744Y258826D01*
X466750Y255500D02*
X488418D01*
X485500Y245500D02*
X495000Y255000D01*
X466750Y260500D02*
X486611D01*
X488861Y262750D01*
X467000Y265750D02*
X519250D01*
X502250Y262750D02*
X510000Y255000D01*
X488861Y262750D02*
X502250D01*
X485500Y231750D02*
Y245500D01*
X543000Y247000D02*
X547000D01*
X540500Y244500D02*
X543000Y247000D01*
X540500Y231750D02*
Y244500D01*
X530500D02*
X533000Y247000D01*
X583000D02*
X587000D01*
X580500Y244500D02*
X583000Y247000D01*
X590500Y244500D02*
X593000Y247000D01*
X590500Y231750D02*
Y244500D01*
X595500Y231750D02*
Y240500D01*
X519250Y265750D02*
X520000Y265000D01*
X466750Y265500D02*
X467000Y265750D01*
X466750Y270500D02*
X519500D01*
X520000Y270000D01*
X519500Y275500D02*
X520000Y275000D01*
X466750Y275500D02*
X519500D01*
X519500Y280500D02*
X520000Y280000D01*
X466750Y280500D02*
X519500D01*
X519500Y285500D02*
X520000Y285000D01*
X466750Y285500D02*
X519500D01*
X514500Y290500D02*
X515000Y290000D01*
X466750Y290500D02*
X514500D01*
X514500Y295500D02*
X515000Y295000D01*
X467300Y294950D02*
X481510D01*
X466750Y295500D02*
X467300Y294950D01*
X482060Y295500D02*
X514500D01*
X481510Y294950D02*
X482060Y295500D01*
X483460Y300000D02*
X505000D01*
X481510Y301950D02*
X483460Y300000D01*
X478610Y301950D02*
X481510D01*
X476660Y300000D02*
X478610Y301950D01*
X467250Y300000D02*
X476660D01*
X466750Y305500D02*
X504500D01*
X505000Y305000D01*
X466750Y300500D02*
X467250Y300000D01*
X514500Y315500D02*
X515000Y315000D01*
X466750Y315500D02*
X514500D01*
X500500Y244500D02*
X503000Y247000D01*
X500500Y231750D02*
Y244500D01*
X503000Y247000D02*
X507000D01*
X443380Y263398D02*
Y274470D01*
X434594Y272288D02*
X442976Y280670D01*
X736600Y19050D02*
Y48260D01*
X718820Y66040D02*
X736600Y48260D01*
X615950Y66040D02*
X718820D01*
X608330Y73660D02*
X615950Y66040D01*
X608330Y73660D02*
Y81280D01*
X591500Y98110D02*
X608330Y81280D01*
X591500Y98110D02*
Y133030D01*
X598170Y139700D01*
X601980D01*
X604520Y142240D01*
X656500Y185510D02*
X656590Y185420D01*
X656500Y185510D02*
Y194000D01*
X645500D02*
X656500D01*
X675000Y174000D02*
Y186060D01*
X669500Y191560D02*
X675000Y186060D01*
X669500Y191560D02*
Y194000D01*
Y199180D01*
X666750Y201930D02*
X669500Y199180D01*
X641350Y204470D02*
X643890Y201930D01*
X641350Y204470D02*
Y210820D01*
X645500Y214970D01*
X640500Y214970D02*
Y231750D01*
X632500Y206970D02*
X640500Y214970D01*
X632500Y194000D02*
Y206970D01*
X633000Y174000D02*
Y193500D01*
X112560Y304000D02*
X116000Y300560D01*
X86500Y304000D02*
X112560D01*
X127000Y292100D02*
X135890Y283210D01*
X129540Y294640D02*
X135890Y288290D01*
X132080Y297180D02*
X135890Y293370D01*
X149660Y329130D02*
X158750Y320040D01*
X152160Y331710D02*
X163830Y320040D01*
X154660Y334290D02*
X168910Y320040D01*
X154660Y334290D02*
Y337449D01*
X138609Y353500D02*
X154660Y337449D01*
X86500Y336000D02*
X86720Y336220D01*
X420930Y317500D02*
X421124Y317306D01*
X617728Y128778D02*
X681523D01*
X604520Y147320D02*
X616966D01*
X742522Y79328D02*
X751840Y88646D01*
X717884Y86829D02*
X725385Y79328D01*
X742522D01*
X717884Y86829D02*
Y89836D01*
X615950Y127000D02*
X617728Y128778D01*
X604520Y127000D02*
X615950D01*
X615188Y121920D02*
X617982Y124714D01*
X604520Y121920D02*
X615188D01*
X751840Y88646D02*
Y88900D01*
X658000Y103238D02*
X658266Y103503D01*
X612140Y96520D02*
X613560Y97940D01*
X620014D01*
X422270Y156549D02*
Y197818D01*
X410141Y144420D02*
X422270Y156549D01*
X419370Y157750D02*
Y197818D01*
X408940Y147320D02*
X419370Y157750D01*
X414320Y202868D02*
X419370Y197818D01*
X422270Y197818D02*
X427320Y202868D01*
X96520Y191770D02*
X101600D01*
X106680Y196850D01*
X596900Y589280D02*
X599440Y586740D01*
X492444Y589280D02*
X596900D01*
X599440Y553720D02*
Y586740D01*
X477000Y573836D02*
X492444Y589280D01*
X607060Y543560D02*
Y546100D01*
X599440Y553720D02*
X607060Y546100D01*
X604520Y556260D02*
X612140Y548640D01*
X604520Y556260D02*
Y589280D01*
X612140Y538480D02*
Y548640D01*
X607060Y533400D02*
X612140Y538480D01*
X469000Y573836D02*
X469696D01*
X387419Y147320D02*
X408940D01*
X363035Y94128D02*
X369501D01*
X358796Y98367D02*
X363035Y94128D01*
X358796Y98367D02*
Y131757D01*
X363543Y136504D01*
X376603D01*
X361696Y99568D02*
Y130556D01*
Y99568D02*
X364236Y97028D01*
X368300D01*
X414320Y202868D02*
Y206720D01*
X376603Y136504D02*
X387419Y147320D01*
X370859Y95485D02*
X371708Y96335D01*
X369501Y94128D02*
X370859Y95485D01*
Y95485D01*
X427320Y202868D02*
Y206720D01*
X388620Y144420D02*
X410141D01*
X377804Y133604D02*
X388620Y144420D01*
X368300Y97028D02*
X368808Y97536D01*
X364744Y133604D02*
X377804D01*
X361696Y130556D02*
X364744Y133604D01*
X446368Y243586D02*
Y255942D01*
X443380Y258930D02*
X446368Y255942D01*
X443380Y258930D02*
Y263398D01*
X441176Y332000D02*
X446532Y326644D01*
Y277622D02*
Y326644D01*
X443380Y274470D02*
X446532Y277622D01*
X436000Y322000D02*
X442976Y315024D01*
Y280670D02*
Y315024D01*
X407266Y263398D02*
Y263756D01*
X420930Y317500D02*
X420930Y317500D01*
X86500Y200000D02*
X111100D01*
X731520Y293422D02*
Y297942D01*
X731468Y293370D02*
X731520Y293422D01*
X741426Y293370D02*
Y297942D01*
X704596Y330962D02*
X708374D01*
X708374Y330962D01*
X704596Y345948D02*
X708374D01*
X708374Y345948D01*
X717074Y330962D02*
X718924D01*
X721412Y333450D01*
X717074Y345948D02*
X719074D01*
X721412Y343610D01*
X751384Y330616D02*
X755000Y327000D01*
X751384Y330616D02*
Y333450D01*
X766350Y310674D02*
Y315000D01*
X766318Y310642D02*
X766350Y310674D01*
X751840Y310642D02*
X760476D01*
X749586Y312896D02*
X751840Y310642D01*
X749586Y312896D02*
Y316484D01*
X732028Y365760D02*
X735870D01*
X748792Y365760D02*
X748792Y365760D01*
X744950Y365760D02*
X748792D01*
X783644Y384356D02*
Y410356D01*
X766064Y366776D02*
X783644Y384356D01*
X780000Y354000D02*
X786000Y348000D01*
X780000Y362000D02*
X786000Y368000D01*
X824950Y304000D02*
X832000Y311050D01*
Y312000D01*
X780542Y328422D02*
X781050Y328930D01*
X769000Y328422D02*
X780542D01*
X668500Y425500D02*
X679250D01*
X668000Y426000D02*
X668500Y425500D01*
X667500Y420500D02*
X679250D01*
X662000Y426000D02*
X667500Y420500D01*
X668500Y415500D02*
X679250D01*
X668000Y416000D02*
X668500Y415500D01*
X665500Y410500D02*
X679250D01*
X662000Y414000D02*
X665500Y410500D01*
X662000Y414000D02*
Y416000D01*
X668500Y395500D02*
X679250D01*
X668000Y396000D02*
X668500Y395500D01*
X667500Y390500D02*
X679250D01*
X662000Y396000D02*
X667500Y390500D01*
X665500Y380500D02*
X679250D01*
X656000Y396000D02*
X666500Y385500D01*
X679250D01*
X650000Y396000D02*
X665500Y380500D01*
X668500Y375500D02*
X679250D01*
X667500Y370500D02*
X679250D01*
X662000Y376000D02*
X667500Y370500D01*
X666500Y365500D02*
X679250D01*
X665500Y360500D02*
X679250D01*
X656000Y376000D02*
X666500Y365500D01*
X665500Y355500D02*
X679250D01*
X645000Y376000D02*
X665500Y355500D01*
X664000Y330000D02*
Y333000D01*
X671500Y295500D02*
X679250D01*
X671000Y295000D02*
X671500Y295500D01*
X778000Y422000D02*
X780000Y424000D01*
X788000D01*
X778000Y416000D02*
X783644Y410356D01*
X778000Y416000D02*
Y422000D01*
X660500Y224500D02*
Y231750D01*
Y224500D02*
X662000Y223000D01*
X667000D01*
X670000Y226000D01*
Y228000D01*
X673000Y231000D01*
X687500D01*
X657500Y315500D02*
X679250D01*
X660500Y310500D02*
X679250D01*
X653000Y303000D02*
X660500Y310500D01*
X665500Y300500D02*
X679250D01*
X661000Y296000D02*
X665500Y300500D01*
X657000Y284000D02*
Y299000D01*
X663500Y305500D01*
X679250D01*
X671500Y280500D02*
X679250D01*
X671500Y285500D02*
X679250D01*
X671000Y285000D02*
X671500Y285500D01*
X671500Y290500D02*
X679250D01*
X645500Y214970D02*
Y231750D01*
X650500Y216500D02*
Y231750D01*
X655500Y217500D02*
Y231750D01*
X505500D02*
Y240500D01*
X515500Y231750D02*
Y240500D01*
X535500D02*
X537000Y242000D01*
X535500Y231750D02*
Y240500D01*
X533000Y247000D02*
X537000D01*
X545500Y231750D02*
Y240500D01*
X555500Y231750D02*
Y240500D01*
X553000Y247000D02*
X557000D01*
X550500Y244500D02*
X553000Y247000D01*
X550500Y231750D02*
Y244500D01*
X575500Y240500D02*
X577000Y242000D01*
X575500Y231750D02*
Y240500D01*
X573000Y247000D02*
X577000D01*
X570500Y244500D02*
X573000Y247000D01*
X570500Y231750D02*
Y244500D01*
X585500Y231750D02*
Y240500D01*
X605500D02*
X607000Y242000D01*
X605500Y231750D02*
Y240500D01*
X603000Y247000D02*
X607000D01*
X600500Y244500D02*
X603000Y247000D01*
X615500Y240500D02*
X617000Y242000D01*
X615500Y231750D02*
Y240500D01*
X613000Y247000D02*
X617000D01*
X610500Y244500D02*
X613000Y247000D01*
X610500Y231750D02*
Y244500D01*
X620500Y231750D02*
Y244500D01*
X623000Y247000D01*
X626000D01*
X505500Y240500D02*
X507000Y242000D01*
X515500Y240500D02*
X517000Y242000D01*
X545500Y240500D02*
X547000Y242000D01*
X650000Y376000D02*
X665500Y360500D01*
X116000Y298020D02*
X135890Y278130D01*
X113000Y295940D02*
X135890Y273050D01*
X786000Y368000D02*
Y378000D01*
D73*
X95150Y19050D02*
G03*
X88900Y12800I-6250J0D01*
G01*
D02*
G03*
X95150Y19050I0J6250D01*
G01*
X812586Y336000D02*
X830000D01*
X834000Y340000D01*
X508343Y209000D02*
X513000Y204343D01*
X508000Y209000D02*
X508343D01*
X516520Y208280D02*
X517080D01*
X515999Y208801D02*
X516520Y208280D01*
X515999Y208801D02*
Y209000D01*
X516999Y210000D01*
X513000Y204000D02*
Y204343D01*
X517080Y208280D02*
Y208470D01*
X356994Y212662D02*
X361356D01*
X356656Y213000D02*
X356994Y212662D01*
X353342Y213000D02*
X356656D01*
X353005Y212662D02*
X353342Y213000D01*
X346838Y212662D02*
X353005D01*
X355911Y197466D02*
X358955Y200510D01*
X352597Y197466D02*
X355911D01*
X349563Y200500D02*
X352597Y197466D01*
X346000Y213500D02*
X346838Y212662D01*
X508500Y195000D02*
X521500D01*
X593000Y152000D02*
X596900Y148100D01*
X592000Y152000D02*
X593000D01*
X778598Y348654D02*
X787654Y339598D01*
X764120Y348654D02*
X778598D01*
X762000Y350774D02*
X764120Y348654D01*
X812586Y168000D02*
X832760D01*
X834898Y165862D01*
X679250Y275500D02*
X691500D01*
X693000Y277000D01*
X719000D01*
X722000Y274000D01*
Y268000D02*
Y274000D01*
X715480Y261480D02*
X722000Y268000D01*
X714000Y261480D02*
X715480D01*
X596900Y145900D02*
Y148100D01*
X718520Y252000D02*
Y256960D01*
X714000Y261480D02*
X718520Y256960D01*
X667004Y93980D02*
X672480D01*
X664464Y96520D02*
X667004Y93980D01*
X632500Y194000D02*
X633000Y193500D01*
X297480Y228034D02*
X305250D01*
X632826Y102982D02*
X633000Y103156D01*
X632826Y93980D02*
Y102982D01*
X664464Y96520D02*
Y100076D01*
X661302Y103238D02*
X664464Y100076D01*
X658000Y103238D02*
X661302D01*
X641976Y104258D02*
Y106798D01*
X640842Y103124D02*
X641976Y104258D01*
X639318Y103124D02*
X640842D01*
X613462Y102922D02*
X614680Y104140D01*
X610108Y102922D02*
X613462D01*
X598170Y113942D02*
X598528Y114300D01*
X604520D01*
X606858Y111962D01*
X610108D01*
X598170Y100942D02*
X600150Y102922D01*
X610108D01*
X565912Y123444D02*
X572874D01*
X582930Y133500D01*
Y108100D02*
Y120500D01*
Y108100D02*
X584530Y106500D01*
X623976Y106528D02*
Y114808D01*
Y106528D02*
X627348Y103156D01*
X633000D01*
X658266Y103503D02*
Y114554D01*
X678688Y103378D02*
X687578D01*
X676266Y105800D02*
X678688Y103378D01*
X676266Y105800D02*
Y114554D01*
X697230Y46500D02*
X709000D01*
X682000D02*
X697230D01*
X681990Y55118D02*
X693674D01*
X697230Y51562D01*
Y46500D02*
Y51562D01*
X620000Y74000D02*
X620086Y73914D01*
X628142D01*
X639000Y37011D02*
Y39500D01*
Y37011D02*
X649011Y27000D01*
X652000D01*
X646000Y46500D02*
X652000D01*
X639000Y39500D02*
X646000Y46500D01*
X709000D02*
X710000Y45500D01*
X688300Y35520D02*
X694000D01*
X686280Y33500D02*
X688300Y35520D01*
X682000Y33500D02*
X686280D01*
X693420Y20320D02*
X694000Y20900D01*
Y26480D01*
X686740Y27000D02*
X687260Y26480D01*
X694000D01*
X682000Y27000D02*
X686740D01*
X234330Y572770D02*
X234442Y572882D01*
Y580136D01*
X539750Y179070D02*
X553720D01*
X529590Y168910D02*
X539750Y179070D01*
X491490Y168910D02*
X529590D01*
X483870Y161290D02*
X491490Y168910D01*
X492910Y146050D02*
X494030Y147170D01*
X483870Y146050D02*
X492910D01*
X481050D02*
X483870D01*
X524510Y81280D02*
X525130Y80660D01*
Y69850D02*
Y80660D01*
X541020Y114300D02*
Y120650D01*
X537670Y124000D02*
X541020Y120650D01*
X532500Y124000D02*
X537670D01*
X537500Y104000D02*
Y110780D01*
X541020Y114300D01*
X483870Y129540D02*
Y130810D01*
X479500Y144500D02*
X481050Y146050D01*
X473000Y144500D02*
X479500D01*
X508000Y114300D02*
X513080D01*
X504190Y110490D02*
X508000Y114300D01*
X492760Y110490D02*
X504190D01*
X519500Y114230D02*
X524510D01*
X486410Y15900D02*
X486410Y15900D01*
Y7620D02*
Y15900D01*
X505070Y15900D02*
X505460Y16290D01*
X486410Y15900D02*
X505070D01*
X505460Y7620D02*
Y16290D01*
X515400D01*
X517860Y18750D01*
X524510D01*
X548490Y34140D02*
X548640Y34290D01*
X541020Y34140D02*
X548490D01*
X450850Y25400D02*
Y30350D01*
X456500Y36000D01*
X508540Y84550D02*
X509270Y83820D01*
X508540Y84550D02*
Y91440D01*
Y104140D01*
X537500Y98080D02*
Y104000D01*
X533520Y94100D02*
X537500Y98080D01*
X533520Y90000D02*
Y94100D01*
X519500Y97720D02*
Y104000D01*
Y97720D02*
X524480Y92740D01*
Y90000D02*
Y92740D01*
X519430Y123930D02*
X519500Y124000D01*
X519430Y114300D02*
Y123930D01*
Y114300D02*
X519500Y114230D01*
Y104000D02*
Y114230D01*
X528320Y135890D02*
Y154940D01*
X531760Y151500D01*
X541000D01*
X575000Y149550D02*
Y153480D01*
X574040Y148590D02*
X575000Y149550D01*
X560090Y148590D02*
X574040D01*
X560000Y148500D02*
X560090Y148590D01*
X560000Y144710D02*
Y148500D01*
X552260Y136970D02*
X560000Y144710D01*
X546290Y136970D02*
X552260D01*
X541020Y142240D02*
X546290Y136970D01*
X541020Y142240D02*
Y151480D01*
X541000Y151500D02*
X541020Y151480D01*
X521500Y201460D02*
X521970Y201930D01*
X521500Y195000D02*
Y201460D01*
X517080Y208470D02*
X517610Y209000D01*
X522000D01*
X530140D01*
X534500Y204640D01*
Y195000D02*
Y204640D01*
X499830Y209000D02*
X508000D01*
X495500Y204670D02*
X499830Y209000D01*
X495500Y195000D02*
Y204670D01*
X490220Y116840D02*
X491000Y117620D01*
Y122000D01*
X479820Y112000D02*
X480060Y111760D01*
X473000Y112000D02*
X479820D01*
X480330Y126000D02*
X483870Y129540D01*
X473000Y126000D02*
X480330D01*
X472440Y160730D02*
X473000Y161290D01*
X472440Y154940D02*
Y160730D01*
X108820Y152000D02*
X109220Y152400D01*
X86500Y152000D02*
X108820D01*
X71480Y168000D02*
X86500D01*
X68580Y165100D02*
X71480Y168000D01*
X63500Y170180D02*
X66040D01*
X86500Y272000D02*
X86720Y271780D01*
X69120Y256000D02*
X86500D01*
X63500Y261620D02*
X69120Y256000D01*
X63500Y261620D02*
Y264160D01*
X71280Y264000D02*
X86500D01*
X66040Y269240D02*
X71280Y264000D01*
X71860Y176000D02*
X86500D01*
X66040Y170180D02*
X71860Y176000D01*
X66040Y160020D02*
X86480D01*
X358955Y200510D02*
X362204D01*
X346000Y200500D02*
X349563D01*
X361356Y212662D02*
X362204Y213510D01*
X396240Y160020D02*
X397866Y161646D01*
Y190754D01*
X365760Y160020D02*
Y176648D01*
X379866Y190754D01*
X439420Y157480D02*
X440597Y158657D01*
Y168097D01*
X383540Y157480D02*
X383597Y157537D01*
Y168097D01*
X104760Y120000D02*
X106680Y121920D01*
X86500Y120000D02*
X104760D01*
X105140Y128000D02*
X106680Y129540D01*
X86500Y128000D02*
X105140D01*
X105300Y136000D02*
X106680Y134620D01*
X86500Y136000D02*
X105300D01*
X292100Y88400D02*
Y96520D01*
Y88400D02*
X293000Y87500D01*
X301160Y100500D02*
X311000D01*
X299720Y99060D02*
X301160Y100500D01*
X299720Y109220D02*
X304000Y113500D01*
X311000D01*
X15240Y142240D02*
X17000Y144000D01*
X39500D01*
X593000Y578000D02*
Y583020D01*
X591820Y584200D02*
X593000Y583020D01*
X581000Y578000D02*
Y583540D01*
X581660Y584200D01*
X568960Y578040D02*
X569000Y578000D01*
X568960Y578040D02*
Y584200D01*
X556514D02*
X557022Y583692D01*
X557000Y583670D02*
X557022Y583692D01*
X557000Y578000D02*
Y583670D01*
X553720Y513080D02*
X554000Y513360D01*
Y523500D01*
X552958Y551180D02*
X554000Y550138D01*
Y541500D02*
Y550138D01*
X66040Y472440D02*
X66480Y472000D01*
X86500D01*
X66040Y464820D02*
X66860Y464000D01*
X86500D01*
X17780Y464820D02*
X18600Y464000D01*
X39500D01*
X66040Y480060D02*
X66100Y480000D01*
X86500D01*
X113700Y280000D02*
X114300Y279400D01*
X106580Y216000D02*
X109220Y213360D01*
X106200Y224000D02*
X109220Y220980D01*
X86500Y216000D02*
X106580D01*
X86500Y224000D02*
X106200D01*
X86500Y232000D02*
X113440D01*
X86500Y240000D02*
X113060D01*
X17780Y223520D02*
X18260Y224000D01*
X39500D01*
X17780Y152400D02*
X39100D01*
X99960Y88000D02*
X106680Y81280D01*
X86500Y88000D02*
X99960D01*
X17780Y86360D02*
X19420Y88000D01*
X39500D01*
X108712Y182880D02*
X109220D01*
X108458Y182626D02*
X108712Y182880D01*
X107084Y184000D02*
X108458Y182626D01*
X86500Y184000D02*
X107084D01*
X173500Y199499D02*
X174000Y200000D01*
X173500Y182900D02*
Y199499D01*
X160800Y140200D02*
Y157500D01*
Y140200D02*
X161000Y140000D01*
X345860Y213360D02*
X346000Y213500D01*
X335280Y213360D02*
X345860D01*
X336256Y188000D02*
X341000D01*
X335280Y188976D02*
X336256Y188000D01*
X335280Y188976D02*
Y200660D01*
X314500Y188000D02*
Y200200D01*
X314960Y200660D01*
X301500Y193804D02*
X305000Y197304D01*
Y202000D01*
X289000Y188500D02*
Y189178D01*
X297180Y197358D01*
Y223266D01*
X294946Y225500D02*
X297180Y223266D01*
X289000Y225500D02*
X294946D01*
X273000D02*
X289000D01*
X271000Y227500D02*
X273000Y225500D01*
X294946D02*
X297480Y228034D01*
X289000Y201500D02*
Y212500D01*
X271000Y202964D02*
Y209500D01*
Y202964D02*
X272796Y201168D01*
X288668D01*
X289000Y201500D01*
X327000Y188000D02*
Y205638D01*
X318198Y214440D02*
X327000Y205638D01*
X306560Y214440D02*
X318198D01*
X305000Y216000D02*
X306560Y214440D01*
X346000Y200500D02*
X346500Y200000D01*
Y190710D02*
Y200000D01*
Y190710D02*
X348234Y188976D01*
X251100Y37000D02*
X257000D01*
X243100Y45000D02*
X251100Y37000D01*
X280852Y182952D02*
X283452D01*
X289000Y188500D01*
X224300Y182900D02*
Y199700D01*
X224000Y200000D02*
X224300Y199700D01*
X186000Y140000D02*
Y157300D01*
X186200Y157500D01*
X302808Y188000D02*
X307340Y192532D01*
X301500Y188000D02*
Y193804D01*
X158750Y511810D02*
X162190D01*
X126000Y513000D02*
X133000D01*
X134620Y514619D02*
Y527050D01*
X133000Y513000D02*
X134620Y514619D01*
X112000Y498000D02*
Y513000D01*
Y513320D01*
X119380Y520700D01*
X127000D01*
X212090Y572770D02*
X220330D01*
X212090Y572770D02*
X212090Y572770D01*
X144780Y552450D02*
X144780Y552450D01*
X151280Y554840D02*
X153670Y552450D01*
X151280Y554840D02*
Y561190D01*
X132080Y561340D02*
X138130D01*
X138280Y561190D01*
X18220Y472000D02*
X39500D01*
X63500Y269240D02*
X66040D01*
X86500Y112000D02*
X106440D01*
X109220Y109220D01*
X17780Y480060D02*
X17840Y480000D01*
X39500D01*
X17780Y472440D02*
X18220Y472000D01*
X104140Y19050D02*
X104140Y19050D01*
X95150Y19050D02*
X95150D01*
X104140D01*
X61218Y12950D02*
X73700D01*
X61214Y12954D02*
X61218Y12950D01*
X86720Y271780D02*
X114300D01*
X62234Y25150D02*
X73700D01*
X61722Y24638D02*
X62234Y25150D01*
X757650Y315000D02*
Y318548D01*
X755000Y321198D02*
X757650Y318548D01*
X755000Y321198D02*
Y327000D01*
X740886Y316484D02*
Y320834D01*
X738176Y323544D02*
X740886Y320834D01*
X736398Y323544D02*
X738176D01*
X712000Y297000D02*
Y300520D01*
X718598Y307118D01*
Y310896D01*
X717654Y293370D02*
X722428D01*
X716332Y292048D02*
X717654Y293370D01*
X712052Y292048D02*
X716332D01*
X712000Y292100D02*
X712052Y292048D01*
X712000Y285000D02*
Y292100D01*
Y297000D01*
X556260Y584200D02*
X556514D01*
X812586Y456000D02*
X831920D01*
X833120Y457200D01*
X812586Y448000D02*
X831540D01*
X859586Y456000D02*
X880180D01*
X881380Y457200D01*
X812586Y480000D02*
X833060D01*
X812586Y472000D02*
X813026Y472440D01*
X833120D01*
X812586Y464000D02*
X832300D01*
X833120Y464820D01*
X859586Y472000D02*
X880940D01*
X881380Y472440D01*
X859586Y464000D02*
X880560D01*
X881380Y464820D01*
X859586Y480000D02*
X881320D01*
X881380Y480060D01*
X745490Y278638D02*
X759968D01*
X772414Y291084D01*
Y300990D01*
X782574Y311150D01*
X753650Y365760D02*
Y371570D01*
X751840Y373380D02*
X753650Y371570D01*
X729996Y373380D02*
X751840D01*
X727170Y370554D02*
X729996Y373380D01*
X727170Y365760D02*
Y370554D01*
X859586Y344000D02*
X880000D01*
X880000Y344000D01*
X792000Y88000D02*
X812586D01*
X840000D02*
X859586D01*
Y176000D02*
X880000D01*
X750466Y293370D02*
X763016D01*
X764032Y292354D01*
X782574Y311150D02*
X787654Y316230D01*
X753650Y353790D02*
Y365760D01*
Y353790D02*
X756666Y350774D01*
X762000D01*
X726440Y419100D02*
X728000Y417540D01*
Y387000D02*
Y417540D01*
Y387000D02*
X729996Y385004D01*
Y373380D02*
Y385004D01*
X787654Y316230D02*
Y339598D01*
X831540Y448000D02*
X833120Y449580D01*
X718520Y243000D02*
Y252000D01*
Y233000D02*
Y243000D01*
X86500Y280000D02*
X113700D01*
D74*
X344170Y469900D02*
X355600Y481330D01*
X341630Y452120D02*
Y471424D01*
X372413Y488999D02*
X373000Y489586D01*
X338377Y488999D02*
X372413D01*
X335534Y486156D02*
X338377Y488999D01*
X402699Y423242D02*
X404368Y424911D01*
X402699Y420756D02*
Y423242D01*
Y420756D02*
X404368Y419088D01*
Y414911D02*
Y419088D01*
X402699Y413242D02*
X404368Y414911D01*
X402699Y410756D02*
Y413242D01*
Y410756D02*
X404368Y409088D01*
Y404911D02*
Y409088D01*
X402699Y403242D02*
X404368Y404911D01*
X402699Y400757D02*
Y403242D01*
Y400757D02*
X404368Y399088D01*
Y394911D02*
Y399088D01*
X402699Y393242D02*
X404368Y394911D01*
X402699Y390757D02*
Y393242D01*
Y390757D02*
X404368Y389088D01*
Y384911D02*
Y389088D01*
X402699Y383242D02*
X404368Y384911D01*
X402699Y380757D02*
Y383242D01*
Y380757D02*
X404368Y379088D01*
X321370Y282000D02*
X331724Y292354D01*
X316000Y282000D02*
X321370D01*
X347267Y314975D02*
X350776Y318484D01*
X347267Y314975D02*
Y314975D01*
X347243Y315000D02*
X347267Y314975D01*
X344757Y315000D02*
X347243D01*
X331724Y301966D02*
X344757Y315000D01*
X341884Y303641D02*
X353314Y315071D01*
X341884Y292354D02*
Y303641D01*
X331724Y292354D02*
Y301966D01*
X328029Y325374D02*
X334654Y318750D01*
X319374Y325374D02*
X328029D01*
X383000Y337900D02*
Y344500D01*
X381150Y339250D02*
Y345125D01*
X316000Y321999D02*
X316099D01*
X316000Y322000D02*
X316000Y321999D01*
X395224Y473710D02*
X399796Y469138D01*
X395224Y473710D02*
Y479806D01*
X350266Y306578D02*
X362712Y319024D01*
X334408Y316008D02*
X339156D01*
X330400Y312000D02*
X334408Y316008D01*
X346543Y318300D02*
X349000Y320757D01*
X341448Y318300D02*
X346543D01*
X350266Y288290D02*
Y306578D01*
X377600Y335700D02*
X381150Y339250D01*
X379150Y340350D02*
Y345842D01*
X377382Y338582D02*
X379150Y340350D01*
X382524Y317754D02*
Y333924D01*
X320000Y469940D02*
Y471000D01*
Y469940D02*
X320040Y469900D01*
X355600Y485140D02*
X355741Y484999D01*
X355999D01*
X363220Y485140D02*
X363349D01*
X335534Y477520D02*
Y486156D01*
X355600Y481330D02*
Y485140D01*
X398920Y485000D02*
X403098Y480822D01*
X398920Y485000D02*
X399000D01*
X392430Y472440D02*
Y477813D01*
X386334Y480239D02*
X390004D01*
X388620Y472412D02*
Y476620D01*
X389000Y477000D01*
X390004Y480239D02*
X392430Y477813D01*
X381140Y485000D02*
X382000D01*
X381000Y485140D02*
X381140Y485000D01*
X381000Y485140D02*
X381433D01*
X344170Y453112D02*
Y469900D01*
X346964Y452793D02*
Y465836D01*
Y452793D02*
X359156Y440601D01*
Y337058D02*
Y440601D01*
X344170Y453112D02*
X355600Y441683D01*
Y337058D02*
Y441683D01*
X330962Y453136D02*
Y464566D01*
X329184Y466344D02*
X330962Y464566D01*
X332962Y458248D02*
Y469678D01*
X332740Y469900D02*
X332962Y469678D01*
X335328Y464031D02*
X336296Y464999D01*
X335328Y460200D02*
Y464031D01*
Y460200D02*
X338836Y456692D01*
X336296Y464999D02*
Y469715D01*
X381000Y475742D02*
Y480000D01*
X439166Y380746D02*
Y434075D01*
X438706Y434535D02*
X439166Y434075D01*
X438706Y434535D02*
Y436091D01*
X763962Y366338D02*
X764794Y365506D01*
X763960Y366338D02*
X763962D01*
X17523Y102209D02*
Y102708D01*
Y102209D02*
X17526Y102206D01*
X17023Y126849D02*
Y127347D01*
X17018Y126844D02*
X17023Y126849D01*
X384194Y345694D02*
X386866D01*
X383751Y347726D02*
X386070D01*
X381730Y348422D02*
Y354298D01*
X379150Y345842D02*
X381730Y348422D01*
Y354298D02*
X391000Y363568D01*
X379508Y334408D02*
X383000Y337900D01*
X364016Y338582D02*
X377382D01*
X358584Y333150D02*
X364016Y338582D01*
X379508Y327692D02*
Y334408D01*
X389000Y364870D02*
Y383243D01*
X387858Y384385D02*
Y389616D01*
Y384385D02*
X389000Y383243D01*
X387858Y394385D02*
Y399616D01*
Y394385D02*
X389000Y393243D01*
Y390758D02*
Y393243D01*
X391000Y363568D02*
Y445864D01*
X393000Y393243D02*
X394208Y394451D01*
X393000Y390758D02*
Y393243D01*
Y390758D02*
X394208Y389550D01*
X387858Y404385D02*
Y409616D01*
Y404385D02*
X389000Y403243D01*
Y400758D02*
Y403243D01*
X387858Y399616D02*
X389000Y400758D01*
X387858Y414385D02*
Y419616D01*
Y414385D02*
X389000Y413243D01*
Y410758D02*
Y413243D01*
X387858Y424385D02*
Y429616D01*
Y424385D02*
X389000Y423243D01*
Y420758D02*
Y423243D01*
X387858Y434385D02*
Y439616D01*
Y434385D02*
X389000Y433243D01*
Y430758D02*
Y433243D01*
X387858Y429616D02*
X389000Y430758D01*
X387858Y444385D02*
Y446786D01*
Y444385D02*
X389000Y443243D01*
Y440758D02*
Y443243D01*
X386070Y347726D02*
X389890Y351546D01*
X386866Y345694D02*
X392300Y351128D01*
X382524Y333924D02*
X394000Y345400D01*
X397510Y394733D02*
Y399268D01*
Y394733D02*
X399000Y393243D01*
Y390758D02*
Y393243D01*
X397510Y389268D02*
X399000Y390758D01*
X397510Y384733D02*
Y389268D01*
X362360Y425606D02*
X364236Y427482D01*
X362360Y395641D02*
Y425606D01*
Y395641D02*
X366000Y392001D01*
X393000Y403243D02*
X394208Y404451D01*
X393000Y400758D02*
Y403243D01*
Y400758D02*
X394208Y399550D01*
X397510Y404733D02*
Y409268D01*
Y404733D02*
X399000Y403243D01*
Y400758D02*
Y403243D01*
X397510Y399268D02*
X399000Y400758D01*
X394208Y394451D02*
Y399550D01*
Y384451D02*
Y389550D01*
X397510Y384733D02*
X399000Y383243D01*
Y380758D02*
Y383243D01*
X397510Y379268D02*
X399000Y380758D01*
X397510Y374733D02*
Y379268D01*
X393000Y370757D02*
Y383243D01*
Y370757D02*
X394208Y369550D01*
Y363220D02*
Y369550D01*
Y414451D02*
Y419550D01*
X393000Y413243D02*
X394208Y414451D01*
X393000Y410758D02*
Y413243D01*
Y410758D02*
X394208Y409550D01*
Y404451D02*
Y409550D01*
X397510Y424733D02*
Y427611D01*
Y424733D02*
X399000Y423243D01*
Y420758D02*
Y423243D01*
X397510Y419268D02*
X399000Y420758D01*
X397510Y414733D02*
Y419268D01*
X404368Y434611D02*
Y439390D01*
X403000Y433243D02*
X404368Y434611D01*
X403000Y430758D02*
Y433243D01*
Y430758D02*
X404368Y429390D01*
X392300Y354674D02*
X401034Y363408D01*
X392300Y351128D02*
Y354674D01*
X399000Y356836D02*
X404876Y362712D01*
X392301Y348300D02*
X397400D01*
X397724Y345400D02*
X401000Y348676D01*
X394000Y345400D02*
X397724D01*
X364600Y335700D02*
X377600D01*
X360584Y331684D02*
X364600Y335700D01*
X360584Y323754D02*
Y331684D01*
X387100Y362970D02*
X389000Y364870D01*
X380770Y362970D02*
X387100D01*
X372100Y354300D02*
X380770Y362970D01*
X386000Y355012D02*
X394208Y363220D01*
X386000Y352000D02*
Y355012D01*
X389890Y355092D02*
X397510Y362712D01*
X389890Y351546D02*
Y355092D01*
X401000Y354071D02*
X410210Y363280D01*
X401000Y348676D02*
Y354071D01*
X403000Y353242D02*
X404758Y355000D01*
X403000Y346612D02*
Y353242D01*
X406146Y347472D02*
X421000Y362326D01*
X408086Y355000D02*
X413766Y360680D01*
X404758Y355000D02*
X408086D01*
X404876Y362712D02*
Y368882D01*
X401034Y363408D02*
Y369895D01*
X404000Y374605D02*
X404368Y374973D01*
X404000Y374243D02*
Y374605D01*
X403000Y373243D02*
X404000Y374243D01*
X403000Y370757D02*
Y373243D01*
Y370757D02*
X404876Y368882D01*
X408178Y384065D02*
Y389936D01*
Y384065D02*
X409000Y383243D01*
Y376777D02*
Y383243D01*
X408178Y444065D02*
Y457962D01*
Y444065D02*
X409000Y443243D01*
Y440758D02*
Y443243D01*
X408178Y439935D02*
X409000Y440758D01*
X408178Y434065D02*
Y439935D01*
X411194Y376142D02*
Y389736D01*
X413306Y385064D02*
X414528Y386286D01*
X413306Y380773D02*
Y385064D01*
Y380773D02*
X414528Y379551D01*
X372100Y345900D02*
Y354300D01*
Y345900D02*
X376000Y342000D01*
X339070Y318750D02*
X340223Y319903D01*
Y321681D02*
X347292Y328750D01*
X349250Y330708D02*
X355600Y337058D01*
X349250Y330653D02*
Y330708D01*
X347346Y328750D02*
X349250Y330653D01*
X347292Y328750D02*
X347346D01*
X354330Y328676D02*
Y332232D01*
X349000Y323346D02*
X354330Y328676D01*
X358584Y326326D02*
Y333150D01*
X354330Y332232D02*
X359156Y337058D01*
X340223Y319903D02*
Y321681D01*
X339156Y316008D02*
X341448Y318300D01*
X349000Y320757D02*
Y323346D01*
X326000Y312000D02*
X330400D01*
X334654Y318750D02*
X339070D01*
X333000Y440758D02*
Y446800D01*
Y440758D02*
X334264Y439494D01*
X323300Y456500D02*
X333000Y446800D01*
X334264Y434507D02*
Y439494D01*
X323300Y456500D02*
Y465032D01*
X327184Y468916D01*
X326898Y445345D02*
X329000Y443243D01*
Y440758D02*
Y443243D01*
X327406Y439164D02*
X329000Y440758D01*
X333000Y430758D02*
X334264Y429494D01*
X333000Y430758D02*
Y433243D01*
X334264Y434507D01*
X327406Y434837D02*
X329000Y433243D01*
Y430758D02*
Y433243D01*
X327406Y429164D02*
X329000Y430758D01*
X337820Y414423D02*
Y419578D01*
Y414423D02*
X339000Y413243D01*
Y410758D02*
Y413243D01*
X337820Y409578D02*
X339000Y410758D01*
X337820Y404423D02*
Y409578D01*
X333000Y399101D02*
Y403243D01*
X334264Y404507D01*
Y409494D01*
X337820Y434423D02*
Y439578D01*
Y434423D02*
X339000Y433243D01*
Y430758D02*
Y433243D01*
X337820Y429578D02*
X339000Y430758D01*
X333000Y410758D02*
X334264Y409494D01*
X333000Y410758D02*
Y413243D01*
X334264Y414507D01*
X337820Y404423D02*
X339000Y403243D01*
Y400758D02*
Y403243D01*
X337820Y399578D02*
X339000Y400758D01*
X337820Y394423D02*
Y399578D01*
X334010Y384253D02*
Y389748D01*
X333000Y390758D02*
X334010Y389748D01*
X333000Y390758D02*
Y394900D01*
X330994Y394077D02*
Y399924D01*
Y394077D02*
X331000Y394072D01*
Y384172D02*
Y394072D01*
X327406Y394837D02*
X329000Y393243D01*
Y390214D02*
Y393243D01*
X327152Y388366D02*
X329000Y390214D01*
X339000Y390758D02*
Y393243D01*
X337820Y389578D02*
X339000Y390758D01*
X337820Y384423D02*
Y389578D01*
Y384423D02*
X339000Y383243D01*
Y379132D02*
Y383243D01*
X341448Y375872D02*
Y387986D01*
X351536Y337256D02*
Y442214D01*
X342400Y388938D02*
Y447355D01*
X341448Y387986D02*
X342400Y388938D01*
X338836Y450919D02*
X342400Y447355D01*
X341376Y350266D02*
Y375800D01*
X341448Y375872D01*
X334868Y375000D02*
X339000Y379132D01*
X334010Y378460D02*
Y379748D01*
X333000Y380758D02*
X334010Y379748D01*
X333000Y380758D02*
Y383243D01*
X334010Y384253D01*
X329000Y382172D02*
X331000Y384172D01*
X333000Y354844D02*
Y373243D01*
X334757Y375000D01*
X334868D01*
X331000Y366958D02*
Y375450D01*
X329000Y370757D02*
Y382172D01*
X322072Y363829D02*
X329000Y370757D01*
X331000Y375450D02*
X334010Y378460D01*
X327152Y383153D02*
Y388366D01*
X326000Y382001D02*
X327152Y383153D01*
X337820Y394423D02*
X339000Y393243D01*
X330994Y399924D02*
X331000Y399929D01*
X327406Y404837D02*
X329000Y403243D01*
Y400758D02*
Y403243D01*
X327406Y399164D02*
X329000Y400758D01*
X333000Y394900D02*
X334264Y396164D01*
Y397837D01*
X327406Y394837D02*
Y399164D01*
X339000Y440758D02*
Y447927D01*
X336296Y450630D02*
X339000Y447927D01*
X337820Y439578D02*
X339000Y440758D01*
X391000Y445864D02*
X394462Y449326D01*
X393000Y444054D02*
X397002Y448056D01*
X393000Y440758D02*
Y444054D01*
Y440758D02*
X394208Y439550D01*
Y434451D02*
Y439550D01*
X399000Y429101D02*
Y444900D01*
X408178Y434065D02*
X409000Y433243D01*
Y430758D02*
Y433243D01*
X408178Y429935D02*
X409000Y430758D01*
X408178Y424065D02*
Y429935D01*
X411000Y389929D02*
Y464848D01*
X413000Y433243D02*
X414782Y435025D01*
X413000Y430758D02*
Y433243D01*
Y430758D02*
X414782Y428976D01*
X417830Y434413D02*
Y439588D01*
Y434413D02*
X419000Y433243D01*
Y430758D02*
Y433243D01*
X417830Y429588D02*
X419000Y430758D01*
X417830Y424413D02*
Y429588D01*
X421000Y399929D02*
Y444071D01*
X423926Y434169D02*
Y439832D01*
X423000Y433243D02*
X423926Y434169D01*
X423000Y430758D02*
Y433243D01*
Y430758D02*
X423926Y429832D01*
Y424169D02*
Y429832D01*
X439166Y436551D02*
Y452882D01*
X432816Y385185D02*
Y451104D01*
X414782Y425025D02*
Y428976D01*
X413000Y423243D02*
X414782Y425025D01*
X413000Y420758D02*
Y423243D01*
Y420758D02*
X414782Y418976D01*
Y415025D02*
Y418976D01*
X417830Y394413D02*
Y399588D01*
Y394413D02*
X419000Y393243D01*
Y387929D02*
Y393243D01*
X420878Y394194D02*
Y399807D01*
Y394194D02*
X421000Y394072D01*
Y362326D02*
Y394072D01*
X423000Y393243D02*
X423926Y394169D01*
X423000Y385000D02*
Y393243D01*
X429768Y375768D02*
Y470916D01*
X414782Y395025D02*
Y398976D01*
X413000Y393243D02*
X414782Y395025D01*
X413000Y390758D02*
Y393243D01*
Y390758D02*
X414528Y389230D01*
Y386286D02*
Y389230D01*
X417830Y414413D02*
Y419588D01*
Y414413D02*
X419000Y413243D01*
Y410758D02*
Y413243D01*
X417830Y409588D02*
X419000Y410758D01*
X417830Y404413D02*
Y409588D01*
X423000Y413243D02*
X423926Y414169D01*
X423000Y410758D02*
Y413243D01*
Y410758D02*
X423926Y409832D01*
X417830Y404413D02*
X419000Y403243D01*
Y400758D02*
Y403243D01*
X417830Y399588D02*
X419000Y400758D01*
X420878Y399807D02*
X421000Y399929D01*
X423000Y403243D02*
X423926Y404169D01*
X423000Y400758D02*
Y403243D01*
Y400758D02*
X423926Y399832D01*
X414782Y445025D02*
Y478536D01*
X413000Y443243D02*
X414782Y445025D01*
X413000Y440758D02*
Y443243D01*
Y440758D02*
X414782Y438976D01*
Y435025D02*
Y438976D01*
X403146Y443389D02*
Y444246D01*
X403000Y443243D02*
X403146Y443389D01*
X403000Y440758D02*
Y443243D01*
Y440758D02*
X404368Y439390D01*
X436000Y377580D02*
X439166Y380746D01*
X423000Y440758D02*
Y444082D01*
Y440758D02*
X423926Y439832D01*
X420878Y444194D02*
Y460756D01*
Y444194D02*
X421000Y444071D01*
X423000Y420758D02*
Y423243D01*
Y420758D02*
X423926Y419832D01*
Y414169D02*
Y419832D01*
Y404169D02*
Y409832D01*
Y394169D02*
Y399832D01*
X411000Y389929D02*
X411194Y389736D01*
X408178Y394065D02*
X409000Y393243D01*
Y390758D02*
Y393243D01*
X408178Y389936D02*
X409000Y390758D01*
X408178Y404065D02*
Y409936D01*
Y404065D02*
X409000Y403243D01*
Y400758D02*
Y403243D01*
X408178Y399936D02*
X409000Y400758D01*
X408178Y394065D02*
Y399936D01*
X417830Y424413D02*
X419000Y423243D01*
Y420758D02*
Y423243D01*
X417830Y419588D02*
X419000Y420758D01*
X371348Y433148D02*
X379000Y440800D01*
Y447072D02*
X386334Y454406D01*
X379000Y440800D02*
Y447072D01*
X381762Y446024D02*
X388874Y453136D01*
X381762Y429260D02*
Y446024D01*
X387858Y439616D02*
X389000Y440758D01*
X387858Y419616D02*
X389000Y420758D01*
X387858Y409616D02*
X389000Y410758D01*
X387858Y389616D02*
X389000Y390758D01*
X393000Y383243D02*
X394208Y384451D01*
X397510Y374733D02*
X399000Y373243D01*
Y370757D02*
Y373243D01*
X397510Y369267D02*
X399000Y370757D01*
X397510Y362712D02*
Y369267D01*
X413000Y370757D02*
Y375120D01*
Y370757D02*
X413766Y369992D01*
Y360680D02*
Y369992D01*
X388874Y453136D02*
Y464312D01*
X410210Y363280D02*
Y375158D01*
X398387Y342000D02*
X403000Y346612D01*
X396000Y342000D02*
X398387D01*
X764794Y365506D02*
X765048D01*
X766318Y366776D01*
X381433Y485140D02*
X386334Y480239D01*
X403146Y444246D02*
X405130Y446230D01*
X417830Y444413D02*
Y476250D01*
Y444413D02*
X419000Y443243D01*
Y440758D02*
Y443243D01*
X417830Y439588D02*
X419000Y440758D01*
X423000Y444082D02*
X425958Y447040D01*
X393000Y430758D02*
X394208Y429550D01*
Y424451D02*
Y429550D01*
X397002Y448056D02*
Y467868D01*
X394462Y449326D02*
Y466570D01*
X391858Y450786D02*
Y464953D01*
X387858Y446786D02*
X391858Y450786D01*
X399034Y448424D02*
X399796Y449186D01*
X399034Y444934D02*
Y448424D01*
X399000Y444900D02*
X399034Y444934D01*
X401146Y445874D02*
X402590Y447318D01*
X401146Y444217D02*
Y445874D01*
X371348Y430530D02*
Y433148D01*
X341630Y452120D02*
X351536Y442214D01*
X687500Y330500D02*
X688000Y330000D01*
X687500Y335500D02*
X688000Y336000D01*
X336296Y469715D02*
X341090Y474509D01*
X830000Y272000D02*
X830000D01*
X432816Y385185D02*
X436000Y382001D01*
X432816Y451104D02*
X438177Y456465D01*
X405130Y446230D02*
Y470154D01*
X402590Y447318D02*
Y471932D01*
X399796Y449186D02*
Y469138D01*
X438706Y436091D02*
X439166Y436551D01*
X323000Y340757D02*
Y343242D01*
Y340757D02*
X326000Y337757D01*
X323000Y343242D02*
X323270Y343512D01*
X326000Y332000D02*
Y337757D01*
X332558Y339018D02*
X336000Y335576D01*
X322072Y351685D02*
X323270Y350487D01*
Y343512D02*
Y350487D01*
X329470Y328529D02*
Y351314D01*
X333000Y354844D01*
X346000Y332000D02*
X347216Y333216D01*
X336000Y332000D02*
Y335576D01*
X366522Y327406D02*
X379222D01*
X373000Y489586D02*
Y507586D01*
X329184Y471170D02*
X335534Y477520D01*
X329184Y466344D02*
Y471170D01*
X327184Y473694D02*
X330248Y476758D01*
X327184Y468916D02*
Y473694D01*
X332962Y458248D02*
X336296Y454914D01*
X330962Y453136D02*
X336000Y448098D01*
X338836Y450919D02*
Y456692D01*
X336296Y450630D02*
Y454914D01*
X336000Y442000D02*
Y448098D01*
X324104Y468884D02*
Y483616D01*
X320802Y465582D02*
X324104Y468884D01*
X320802Y455930D02*
X331000Y445732D01*
X320802Y455930D02*
Y465582D01*
X506703Y530400D02*
X513080Y536777D01*
X506435Y527304D02*
X515874Y536743D01*
X414480Y488140D02*
X418640D01*
X412750Y486410D02*
X414480Y488140D01*
X418640D02*
X421640Y485140D01*
X412750Y482346D02*
Y486410D01*
X411940Y465788D02*
Y470964D01*
X411000Y464848D02*
X411940Y465788D01*
X410718Y480314D02*
X412750Y482346D01*
X410718Y472186D02*
Y480314D01*
Y472186D02*
X411940Y470964D01*
X410210Y375158D02*
X411194Y376142D01*
X386000Y312000D02*
Y314278D01*
X382524Y317754D02*
X386000Y314278D01*
X86480Y160020D02*
X86500Y160000D01*
X525306Y573278D02*
X582930D01*
X525018Y570738D02*
X564642D01*
X515874Y579882D02*
X525018Y570738D01*
X524764Y568198D02*
X561594D01*
X513080Y556514D02*
X524764Y568198D01*
X524884Y564000D02*
X557000D01*
X515874Y554990D02*
X524884Y564000D01*
X564642Y570738D02*
X566420Y568960D01*
X582930Y573278D02*
X586994Y569214D01*
X22350Y104000D02*
X39500D01*
X20556Y102206D02*
X22350Y104000D01*
X17526Y102206D02*
X20556D01*
X22350Y96000D02*
X39500D01*
X20544Y97806D02*
X22350Y96000D01*
X17526Y97806D02*
X20544D01*
X17018Y126844D02*
X21194D01*
X22350Y120000D02*
X39500D01*
X19906Y122444D02*
X22350Y120000D01*
X17018Y122444D02*
X19906D01*
X326000Y282000D02*
X331216Y287216D01*
X336746D01*
X336000Y282000D02*
X340512Y286512D01*
X348488D01*
X350266Y288290D01*
X426000Y372000D02*
X429768Y375768D01*
X501000Y574000D02*
X506882Y579882D01*
X493000Y573836D02*
X501046Y581882D01*
X561594Y568198D02*
X563880Y565912D01*
Y560578D02*
Y565912D01*
Y560578D02*
X566674Y557784D01*
X579628D01*
X581000Y559156D01*
Y564000D01*
X501046Y581882D02*
X516702D01*
X525306Y573278D01*
X506882Y579882D02*
X515874D01*
X336746Y287216D02*
X341884Y292354D01*
X316000Y322000D02*
X319374Y325374D01*
X329470Y328529D02*
X336000Y322000D01*
X347216Y333216D02*
X347496D01*
X341090Y474509D02*
Y484664D01*
X366000Y412000D02*
X371094Y417094D01*
Y425196D01*
X373126Y427228D01*
X379730D01*
X364236Y427482D02*
X368300D01*
X371348Y430530D01*
X379730Y427228D02*
X381762Y429260D01*
X379222Y327406D02*
X379508Y327692D01*
X406000Y372000D02*
Y373777D01*
X416306Y382016D02*
Y385235D01*
X408178Y419936D02*
X409000Y420758D01*
Y423243D01*
X408178Y424065D02*
X409000Y423243D01*
X423000D02*
X423926Y424169D01*
X413000Y375120D02*
X414528Y376648D01*
X350776Y318484D02*
Y318518D01*
X358584Y326326D01*
X332558Y345948D02*
X333828Y347218D01*
X338328D01*
X341376Y350266D01*
X332558Y339018D02*
Y345948D01*
X413000Y413243D02*
X414782Y415025D01*
X413000Y410758D02*
Y413243D01*
X408178Y409936D02*
X409000Y410758D01*
X406000Y373777D02*
X409000Y376777D01*
X413000Y410758D02*
X414782Y408976D01*
X414528Y376648D02*
Y379551D01*
X414782Y405025D02*
Y408976D01*
X413000Y403243D02*
X414782Y405025D01*
X413000Y400758D02*
Y403243D01*
Y400758D02*
X414782Y398976D01*
X423000Y385000D02*
X426000Y382001D01*
X416306Y385235D02*
X419000Y387929D01*
X326136Y361950D02*
Y362094D01*
X331000Y366958D01*
X347496Y333216D02*
X351536Y337256D01*
X327406Y404837D02*
Y409164D01*
Y414837D02*
Y419164D01*
Y424837D02*
Y429164D01*
X333000Y399101D02*
X334264Y397837D01*
X322072Y351685D02*
Y363829D01*
X353314Y315071D02*
Y316484D01*
X360584Y323754D01*
X362712Y319024D02*
Y323596D01*
X366522Y327406D01*
X397510Y409268D02*
X399000Y410758D01*
Y413243D01*
X397510Y414733D02*
X399000Y413243D01*
X409000Y410758D02*
Y413243D01*
X408178Y414065D02*
X409000Y413243D01*
X393000Y420758D02*
X394208Y419550D01*
X393000Y420758D02*
Y423243D01*
X394208Y424451D01*
X393000Y430758D02*
Y433243D01*
X394208Y434451D01*
X397510Y427611D02*
X399000Y429101D01*
X408178Y414065D02*
Y419936D01*
X438177Y456465D02*
Y473737D01*
X444500Y480060D01*
Y485140D01*
X417830Y476250D02*
X421640Y480060D01*
X326815Y445345D02*
X326898D01*
X347980Y477774D02*
Y485140D01*
X389446Y467296D02*
X389515D01*
X391858Y464953D01*
X381000Y475742D02*
X389446Y467296D01*
X363220Y481584D02*
X373888Y470916D01*
X378714D01*
X363220Y481584D02*
Y485140D01*
X406654Y471678D02*
Y482854D01*
X407162Y466852D02*
X408940Y468630D01*
X405130Y470154D02*
X406654Y471678D01*
X407162Y458978D02*
Y466852D01*
X406654Y482854D02*
X408940Y485140D01*
X403098Y472440D02*
Y480822D01*
X402590Y471932D02*
X403098Y472440D01*
X389890Y485140D02*
X395224Y479806D01*
X388620Y485140D02*
X389890D01*
X407162Y458978D02*
X408178Y457962D01*
X414782Y478536D02*
X416560Y480314D01*
X425958Y481838D02*
X429260Y485140D01*
X429768Y470916D02*
X434340Y475488D01*
Y485140D01*
X439166Y452882D02*
X441706Y455422D01*
Y471932D01*
X449580Y479806D01*
Y485140D01*
X425958Y447040D02*
Y481838D01*
X392430Y472440D02*
X397002Y467868D01*
X388620Y472412D02*
X394462Y466570D01*
X330248Y476758D02*
Y485140D01*
X322580D02*
X324104Y483616D01*
X368300Y484886D02*
X388874Y464312D01*
X378714Y470916D02*
X386334Y463296D01*
Y454406D02*
Y463296D01*
X436000Y372000D02*
Y377580D01*
X327406Y409164D02*
X329000Y410758D01*
Y413243D01*
X327406Y414837D02*
X329000Y413243D01*
X317754Y454406D02*
X326815Y445345D01*
X317754Y454406D02*
Y467614D01*
X320040Y469900D01*
X341630Y471424D02*
X347980Y477774D01*
X346964Y465836D02*
X351282Y470154D01*
X327406Y434837D02*
Y439164D01*
X493000Y526836D02*
X496564Y530400D01*
X506703D01*
X513080Y536777D02*
Y556514D01*
X502000Y527304D02*
X506435D01*
X515874Y536743D02*
Y554990D01*
X21194Y126844D02*
X22350Y128000D01*
X39500D01*
X766064Y366776D02*
X766318D01*
X327406Y419164D02*
X329000Y420758D01*
Y423243D01*
X327406Y424837D02*
X329000Y423243D01*
X331000Y399929D02*
Y445732D01*
X337820Y419578D02*
X339000Y420758D01*
X337820Y424423D02*
Y429578D01*
Y424423D02*
X339000Y423243D01*
Y420758D02*
Y423243D01*
X334264Y414507D02*
Y419494D01*
X333000Y420758D02*
X334264Y419494D01*
X333000Y420758D02*
Y423243D01*
X334264Y424507D01*
Y429494D01*
X404368Y424911D02*
Y429390D01*
Y374973D02*
Y379088D01*
X400949Y369980D02*
Y444020D01*
Y369980D02*
X401034Y369895D01*
X400949Y444020D02*
X401146Y444217D01*
X397400Y348300D02*
X399000Y349900D01*
Y356836D01*
X381150Y345125D02*
X383751Y347726D01*
X383000Y344500D02*
X384194Y345694D01*
X386000Y342000D02*
X392301Y348300D01*
D76*
X19339Y258099D02*
X25240Y264000D01*
X19339Y258099D02*
Y258460D01*
X812586Y104000D02*
X832980D01*
X833120Y104140D01*
X832231Y246000D02*
X833998D01*
X830230Y248000D02*
X832231Y246000D01*
X830000Y296000D02*
X833000Y293000D01*
X836000D01*
X689610Y346710D02*
X690753D01*
X679250Y350500D02*
X691980D01*
X690753Y346710D02*
X693000Y344463D01*
Y342480D02*
Y344463D01*
X691980Y350500D02*
X693000Y351520D01*
X671000Y262000D02*
X672500Y260500D01*
X679250D01*
X56160Y208000D02*
X59000Y205160D01*
Y203000D02*
Y205160D01*
X114300Y210820D02*
Y217170D01*
X111480Y208000D02*
X114300Y210820D01*
X86500Y208000D02*
X111480D01*
X840000Y331000D02*
X843000Y328000D01*
X812586Y96000D02*
X832000D01*
X833633Y251931D02*
Y252367D01*
X830191Y328000D02*
X833191Y331000D01*
X835450Y317500D02*
X835977Y316973D01*
X400954Y296926D02*
X411278D01*
X390520Y317000D02*
X401566D01*
X17500Y297500D02*
X20000D01*
X17000Y298000D02*
X17500Y297500D01*
X20000D02*
X21500Y296000D01*
X21000Y301000D02*
Y301580D01*
X20320Y302260D02*
X21000Y301580D01*
X21500Y296000D02*
X39500D01*
X396489Y527489D02*
X396999Y527999D01*
X396489Y527347D02*
Y527489D01*
Y527347D02*
X397000Y526836D01*
X341000Y531500D02*
X343000Y533500D01*
Y534000D01*
X57480Y408000D02*
X59000Y409520D01*
Y410000D01*
X497520Y218000D02*
X503000D01*
X503000Y218000D01*
X484000Y218000D02*
Y218000D01*
Y218000D02*
X484000Y218000D01*
X488480D01*
X55520Y168000D02*
X58520Y165000D01*
X59000D01*
X20540Y272000D02*
X39500D01*
X17780Y269240D02*
X20540Y272000D01*
X15240Y269240D02*
X17780D01*
X453164Y574000D02*
X455000D01*
X453000Y573836D02*
X453164Y574000D01*
X453000Y554586D02*
Y573836D01*
X429000Y507586D02*
Y533000D01*
X429000Y533000D01*
X403000Y528836D02*
Y529000D01*
Y528836D02*
X405000Y526836D01*
X389000Y507586D02*
Y529000D01*
X357000Y507586D02*
Y527000D01*
X358000Y528000D01*
X349000Y507586D02*
Y527000D01*
X348000Y528000D02*
X349000Y527000D01*
X330000Y528000D02*
Y528120D01*
X330200Y528320D01*
X333000Y525520D01*
X552000Y463000D02*
Y463000D01*
X552000Y463000D02*
X552000Y463000D01*
X609000Y463000D02*
X609000Y463000D01*
X840000Y273998D02*
Y275000D01*
Y273998D02*
X841998Y272000D01*
X830000D02*
X833000Y275000D01*
X834000D01*
X447026Y426720D02*
X447040D01*
X446999Y426747D02*
X447026Y426720D01*
X446999Y426747D02*
Y426999D01*
X447040Y426720D02*
X447320Y427000D01*
X457000Y253000D02*
Y284000D01*
X830698Y320000D02*
X832698Y322000D01*
X833000D01*
Y331000D02*
X833191D01*
X832549Y317500D02*
X835450D01*
X829498Y314449D02*
X832549Y317500D01*
X835977Y316973D02*
X835977D01*
X829498Y314448D02*
Y314449D01*
X827050Y312000D02*
X829498Y314448D01*
X835977Y316973D02*
X835998Y316995D01*
Y316999D01*
X833702Y252000D02*
X834000D01*
X833633Y251931D02*
X833702Y252000D01*
X631999Y213001D02*
Y213300D01*
Y213001D02*
X632000Y213000D01*
X623999Y213001D02*
Y213100D01*
Y213001D02*
X624000Y213000D01*
X859586Y184000D02*
X878200D01*
X879300Y185100D01*
X840000Y192000D02*
X859586D01*
X832230Y144000D02*
X833430Y142800D01*
X812586Y200000D02*
X830530D01*
X831970Y201440D01*
X830000Y256000D02*
X833633Y252367D01*
X812586Y320000D02*
X830698D01*
X812586Y328000D02*
X830191D01*
X560500Y444250D02*
Y455660D01*
X560780Y455940D01*
X16200Y254960D02*
X21790D01*
X12521Y251281D02*
X16200Y254960D01*
X22970Y256140D02*
X39360D01*
X21790Y254960D02*
X22970Y256140D01*
X12520Y251281D02*
X12521D01*
X61980Y280420D02*
X63000Y279400D01*
Y274700D02*
Y279400D01*
X61980Y280420D02*
Y280790D01*
X365999Y352001D02*
Y352099D01*
Y352001D02*
X366000Y352000D01*
X59182Y270882D02*
X63000Y274700D01*
X59182Y254000D02*
Y270882D01*
X61000Y77000D02*
X66040Y82040D01*
X34280Y77000D02*
X61000D01*
X30940Y73660D02*
X34280Y77000D01*
X252730Y57404D02*
Y65278D01*
X237998Y80010D02*
X252730Y65278D01*
X237998Y80010D02*
Y105156D01*
X264414Y131572D01*
Y165100D01*
X260858Y140970D02*
Y168148D01*
X250698Y130810D02*
X260858Y140970D01*
X235712Y130810D02*
X250698D01*
X233680Y128778D02*
X235712Y130810D01*
X233680Y86680D02*
Y128778D01*
X170000Y23000D02*
X233680Y86680D01*
X842370Y168000D02*
X859586D01*
X840994Y166624D02*
X842370Y168000D01*
X859586Y128016D02*
X876808D01*
X878840Y125984D01*
X842772Y112000D02*
X859586D01*
X839724Y110236D02*
X841502Y112014D01*
X842772D01*
X841160Y136000D02*
X859586D01*
X840000Y137160D02*
X841160Y136000D01*
X846478Y184000D02*
X859586D01*
X812586Y248000D02*
X830230D01*
X690000Y247000D02*
X696520D01*
X688000Y249000D02*
X690000Y247000D01*
X58140Y81000D02*
X60960Y83820D01*
X22580Y81000D02*
X58140D01*
X20320Y78740D02*
X22580Y81000D01*
X66040Y82040D02*
Y93980D01*
X123190Y264160D02*
Y278810D01*
X116250Y285750D02*
X123190Y278810D01*
X669000Y333000D02*
Y335000D01*
X667000Y337000D02*
X669000Y335000D01*
X661000Y337000D02*
X667000D01*
X659000Y335000D02*
X661000Y337000D01*
X840000Y104000D02*
X859586D01*
X840000Y96000D02*
X859586D01*
X659000Y326000D02*
Y335000D01*
X20320Y285750D02*
X22570Y288000D01*
X39500D01*
X557000Y564000D02*
X560000Y561000D01*
Y559000D02*
Y561000D01*
X671000Y275000D02*
X671500Y275500D01*
X679250D01*
X447040Y348040D02*
Y348234D01*
X510000Y453000D02*
X510500Y452500D01*
X500000Y453000D02*
X500500Y452500D01*
X401566Y317000D02*
X406000Y312566D01*
Y312000D02*
Y312566D01*
X410520Y312000D02*
Y317000D01*
Y307000D02*
Y312000D01*
X410520Y312000D01*
X416000D01*
X410520Y307000D02*
X419440D01*
X420318Y306122D01*
Y296926D02*
Y306122D01*
X400700Y297180D02*
X401480Y297960D01*
X400700Y297180D02*
X400954Y296926D01*
X390520Y307000D02*
Y317000D01*
Y307000D02*
X390652Y306868D01*
X390520Y317000D02*
X390652Y317132D01*
X391480Y297000D02*
Y301432D01*
X390652Y302260D02*
X391480Y301432D01*
X390652Y302260D02*
Y306868D01*
X396000Y312000D02*
X401000Y307000D01*
X448000Y349000D02*
X452480D01*
X447040Y348040D02*
X448000Y349000D01*
X520500Y444250D02*
Y452500D01*
X520000Y453000D02*
X520500Y452500D01*
X515000Y453000D02*
X515500Y452500D01*
Y444250D02*
Y452500D01*
X525500Y444250D02*
Y452500D01*
X525000Y453000D02*
X525500Y452500D01*
X812586Y272000D02*
X830000D01*
X841998D02*
X859586D01*
X840000Y248000D02*
X859586D01*
X812586Y256000D02*
X830000D01*
X840000D02*
X859586D01*
X792000Y264000D02*
X812586D01*
X859586D02*
X878000D01*
X812586Y280000D02*
X832000D01*
X840000D02*
X859586D01*
X812586Y216000D02*
X832000D01*
X840000D02*
X859586D01*
X812586Y224000D02*
X832000D01*
X840000D02*
X859586D01*
X812586Y232000D02*
X832000D01*
X840000D02*
X859586D01*
X812586Y240000D02*
X832000D01*
X840000D02*
X859586D01*
Y120000D02*
X879000D01*
X828000Y128000D02*
X832000Y132000D01*
X485000Y453000D02*
X485500Y452500D01*
Y444250D02*
Y452500D01*
X595000Y453000D02*
X595500Y452500D01*
Y444250D02*
Y452500D01*
X585000Y453000D02*
X585500Y452500D01*
Y444250D02*
Y452500D01*
X457000Y253000D02*
X459500Y250500D01*
X466750D01*
X430500Y317500D02*
X436000Y312000D01*
X420266Y255882D02*
X420370Y255778D01*
X420266Y255882D02*
Y263398D01*
X421124Y312166D02*
Y317306D01*
X22060Y304000D02*
X39500D01*
X20320Y302260D02*
X22060Y304000D01*
X391480Y322480D02*
Y327000D01*
Y337000D01*
X431000Y290000D02*
Y297480D01*
X427520Y286520D02*
X431000Y290000D01*
X411000Y286520D02*
X427520D01*
X391480Y289520D02*
X394480Y286520D01*
X391480Y289520D02*
Y297000D01*
X394480Y286520D02*
X411000D01*
X390652Y321652D02*
X391480Y322480D01*
X390652Y317132D02*
Y321652D01*
X20740Y312000D02*
X39500D01*
X20320Y312420D02*
X20740Y312000D01*
X20360Y320000D02*
X39500D01*
X20320Y320040D02*
X20360Y320000D01*
X20660Y328000D02*
X39500D01*
X20320Y327660D02*
X20660Y328000D01*
X21160Y392000D02*
X39500D01*
X20320Y391160D02*
X21160Y392000D01*
X20780Y384000D02*
X39500D01*
X20320Y383540D02*
X20780Y384000D01*
X20400Y376000D02*
X39500D01*
X20320Y375920D02*
X20400Y376000D01*
X20620Y368000D02*
X39500D01*
X20320Y368300D02*
X20620Y368000D01*
X21000Y360000D02*
X39500D01*
X20320Y360680D02*
X21000Y360000D01*
X20530Y352000D02*
X39500D01*
X20320Y351790D02*
X20530Y352000D01*
X20490Y344000D02*
X39500D01*
X20320Y344170D02*
X20490Y344000D01*
X21040Y336000D02*
X39500D01*
X20320Y335280D02*
X21040Y336000D01*
X448000Y357000D02*
X452480D01*
X447040Y357960D02*
X448000Y357000D01*
X366000Y342000D02*
Y346950D01*
X166000Y409000D02*
X169480Y412480D01*
X281480Y356520D02*
X286000Y352000D01*
X301000Y357000D02*
X306000Y352000D01*
X296000Y332000D02*
X301000Y337000D01*
X55570Y432760D02*
X61920D01*
X54610Y431800D02*
X55570Y432760D01*
X39500Y408000D02*
X57480D01*
X61920Y432760D02*
X66040Y436880D01*
X20320Y398780D02*
X21540Y400000D01*
X39500D01*
X67310Y416560D02*
X67870Y416000D01*
X86500D01*
Y288000D02*
X103160D01*
X582930Y92560D02*
X583288Y92202D01*
X591566D01*
X549910Y168910D02*
Y171450D01*
X545500Y164500D02*
X549910Y168910D01*
X546100Y69850D02*
X546100Y69850D01*
X539130Y69850D02*
X546100D01*
X483870Y135890D02*
X490890D01*
X560000Y166500D02*
X566290D01*
X570270Y162520D01*
X575000D01*
X574040Y168910D02*
X575000Y167950D01*
Y162520D02*
Y167950D01*
X541000Y164500D02*
X545500D01*
X549910Y171450D02*
X554860Y166500D01*
X560000D01*
X490890Y135890D02*
X491000Y136000D01*
X39480Y160020D02*
X39500Y160000D01*
X17780Y160020D02*
X39480D01*
X39500Y168000D02*
X55520D01*
X39500Y208000D02*
X56160D01*
X38840Y200660D02*
X39500Y200000D01*
X12700Y195580D02*
X17780Y190500D01*
X477000Y554586D02*
Y573836D01*
X469000Y554586D02*
Y573836D01*
X25240Y264000D02*
X39500D01*
X18380Y280000D02*
X39500D01*
Y256000D02*
X40640D01*
X24160Y240000D02*
X39500D01*
X276860Y177546D02*
Y177895D01*
X260858Y168148D02*
X270510Y177800D01*
X264414Y165100D02*
X276860Y177546D01*
X15240Y134620D02*
X16620Y136000D01*
X39500D01*
X169502Y263502D02*
X171958D01*
X164000Y258000D02*
X169502Y263502D01*
X156000Y306000D02*
X157990Y307990D01*
X164592D01*
X180000Y298000D02*
X184630Y293370D01*
X190096D01*
X193000Y277000D02*
X196000Y274000D01*
X184000Y277000D02*
X193000D01*
X187000Y266000D02*
X196000D01*
X184000Y263000D02*
X187000Y266000D01*
X420266Y263398D02*
X430380D01*
Y255674D02*
Y263398D01*
X407266Y257660D02*
Y263398D01*
X404368Y254762D02*
X407266Y257660D01*
X404368Y243586D02*
Y254762D01*
X387096Y253238D02*
X387096Y253238D01*
X387096Y247762D02*
Y253238D01*
X410972Y273050D02*
X411000Y273078D01*
Y277480D01*
X399730Y274000D02*
X399796Y274066D01*
X393500Y274000D02*
X399730D01*
X380500Y269994D02*
Y274000D01*
Y269994D02*
X387096Y263398D01*
Y261762D02*
Y263398D01*
X566420Y568960D02*
X567182D01*
X569000Y567142D01*
Y564000D02*
Y567142D01*
X593090Y564090D02*
Y566652D01*
X590782Y568960D02*
X593090Y566652D01*
X586740Y568960D02*
X590782D01*
X593000Y564000D02*
X593090Y564090D01*
X586740Y568960D02*
X586994Y569214D01*
X581000Y568300D02*
X581660Y568960D01*
X581000Y564000D02*
Y568300D01*
X316000Y352000D02*
X319520Y348480D01*
X145217Y369520D02*
X148447Y372750D01*
X154250D01*
X286000Y322000D02*
X290520Y326520D01*
X501000Y526000D02*
X502000Y527000D01*
X501000Y507586D02*
Y526000D01*
Y554586D02*
Y574000D01*
X381000Y507586D02*
Y526836D01*
Y554586D02*
Y573836D01*
X389000Y554586D02*
Y573836D01*
X373000Y507586D02*
Y526836D01*
Y554586D02*
Y573836D01*
X397000Y507586D02*
Y526836D01*
Y554586D02*
Y573836D01*
X365000Y507586D02*
Y526836D01*
Y554586D02*
Y573836D01*
X405000Y507586D02*
Y526836D01*
Y554586D02*
Y573836D01*
X357000Y554586D02*
Y573836D01*
X413000Y507586D02*
Y526836D01*
Y554586D02*
Y573836D01*
X349000Y554586D02*
Y573836D01*
X421000Y507586D02*
Y526836D01*
Y554586D02*
Y573836D01*
X341000Y554586D02*
Y573836D01*
X429000Y554586D02*
Y573836D01*
X333000Y554586D02*
Y573836D01*
X437000Y507586D02*
Y526836D01*
Y554586D02*
Y573836D01*
X325000Y507586D02*
Y526836D01*
Y554586D02*
Y573836D01*
X445000Y507586D02*
Y526836D01*
Y554586D02*
Y573836D01*
X317000Y554586D02*
Y573836D01*
X309000Y507586D02*
Y526836D01*
Y554586D02*
Y573836D01*
X461000Y554586D02*
Y573836D01*
X301000Y507586D02*
Y526836D01*
Y554586D02*
Y573836D01*
X293000Y507586D02*
Y526836D01*
Y554586D02*
Y573836D01*
X477000Y507586D02*
Y526836D01*
X285000Y507586D02*
Y526836D01*
Y554586D02*
Y573836D01*
X485000Y507586D02*
Y526836D01*
Y554586D02*
Y573836D01*
X277000Y507586D02*
Y526836D01*
Y554586D02*
Y573836D01*
X493000Y507586D02*
Y526836D01*
Y554586D02*
Y573836D01*
X269000Y507586D02*
Y526836D01*
Y554586D02*
Y573836D01*
X320520Y377480D02*
X321000D01*
X316000Y382001D02*
X320520Y377480D01*
X321000Y386520D02*
Y387000D01*
X316000Y392001D02*
X321000Y387000D01*
X320520Y397000D02*
Y397480D01*
X316000Y402000D02*
X320520Y397480D01*
X311000Y397000D02*
X311480D01*
X306000Y402000D02*
X311000Y397000D01*
X300520D02*
X301000D01*
X306000Y402000D01*
X286000D02*
X291000Y397000D01*
X291480D01*
X380440Y306832D02*
X381168D01*
X386000Y302000D01*
X380440Y286766D02*
X381234D01*
X386000Y282000D01*
X431480Y306520D02*
X436000Y302000D01*
X431000Y306520D02*
X431480D01*
X401480Y297960D02*
Y307000D01*
X401000D02*
X401480D01*
X380500Y274000D02*
Y276500D01*
X386000Y282000D01*
X381000Y297000D02*
X386000Y292000D01*
X371400Y297000D02*
Y306832D01*
X400520Y327000D02*
X401000D01*
X406000Y322000D01*
X410520Y317000D02*
X411000Y317480D01*
X410520Y317000D02*
X411000D01*
Y336520D02*
X421000D01*
X401000D02*
X411000D01*
X400520Y337000D02*
X401000Y336520D01*
X320520Y306520D02*
Y307000D01*
X316000Y302000D02*
X320520Y306520D01*
Y297000D02*
Y297479D01*
X316000Y302000D02*
X320520Y297479D01*
Y307000D02*
Y317000D01*
X311000Y307000D02*
X311480D01*
X306000Y312000D02*
X311000Y307000D01*
X306000Y312000D02*
X311000Y317000D01*
X311480D01*
X306000Y292000D02*
X311000Y297000D01*
X311480D01*
X286000Y282000D02*
X290520Y286520D01*
Y287000D01*
X281000D02*
X281480D01*
X276000Y282000D02*
X281000Y287000D01*
X290520Y326520D02*
Y327000D01*
X281000D02*
X281480D01*
X276000Y322000D02*
X281000Y327000D01*
X301000Y337000D02*
Y337480D01*
X300520Y346520D02*
X301000D01*
X296000Y342000D02*
X300520Y346520D01*
X310480Y346480D02*
Y347000D01*
X306000Y342000D02*
X310480Y346480D01*
X319520Y347000D02*
Y348480D01*
X290520Y357000D02*
X301000D01*
X281480Y356520D02*
Y357000D01*
X301000Y436520D02*
Y437000D01*
X296000Y442000D02*
X301000Y437000D01*
Y427001D02*
Y427480D01*
X296000Y422000D02*
X301000Y427001D01*
X455020Y355500D02*
X466750D01*
X453000Y357520D02*
X455020Y355500D01*
Y350500D02*
X466750D01*
X453000Y348480D02*
X455020Y350500D01*
Y425500D02*
X466750D01*
X453000Y427520D02*
X455020Y425500D01*
X453000Y418480D02*
X455020Y420500D01*
X545500Y444250D02*
Y455980D01*
X543480Y458000D02*
X545500Y455980D01*
X550500Y444250D02*
Y455980D01*
X552520Y458000D01*
X610500Y444250D02*
Y455980D01*
X608480Y458000D02*
X610500Y455980D01*
X615500Y444250D02*
Y455980D01*
X617520Y458000D01*
X679250Y405500D02*
X690980D01*
X693000Y407520D01*
X679250Y400500D02*
X690980D01*
X693000Y398480D01*
X630500Y220020D02*
Y231750D01*
Y220020D02*
X632520Y218000D01*
X625500Y220020D02*
Y231750D01*
X623480Y218000D02*
X625500Y220020D01*
X565500D02*
Y231750D01*
Y220020D02*
X567520Y218000D01*
X560500Y220020D02*
Y231750D01*
X558480Y218000D02*
X560500Y220020D01*
X495500D02*
Y231750D01*
Y220020D02*
X497520Y218000D01*
X490500Y220020D02*
Y231750D01*
X488480Y218000D02*
X490500Y220020D01*
X693000Y351520D02*
Y355000D01*
X692000Y356000D02*
X693000Y355000D01*
X632000Y213000D02*
Y217480D01*
X632520Y218000D01*
X624000Y213000D02*
Y217480D01*
X623480Y218000D02*
X624000Y217480D01*
X567000Y213000D02*
Y217480D01*
X567520Y218000D01*
X559000Y213000D02*
Y217480D01*
X558480Y218000D02*
X559000Y217480D01*
X452480Y349000D02*
X453000Y348480D01*
X452480Y357000D02*
X453000Y357520D01*
X452480Y427000D02*
X453000Y427520D01*
X452480Y419000D02*
X453000Y418480D01*
X543000Y458480D02*
Y463000D01*
Y458480D02*
X543480Y458000D01*
X552000Y458520D02*
Y463000D01*
Y458520D02*
X552520Y458000D01*
X609000Y458520D02*
Y463000D01*
X608480Y458000D02*
X609000Y458520D01*
X617000D02*
Y463000D01*
Y458520D02*
X617520Y458000D01*
X693000Y398480D02*
X693520Y399000D01*
X150000Y395480D02*
Y401000D01*
X158000Y396520D02*
Y401000D01*
Y396520D02*
X159520Y395000D01*
X166000Y393000D02*
X168520Y395520D01*
X173000D01*
X203480D02*
X206000Y393000D01*
X198000Y395520D02*
X203480D01*
X166000Y379480D02*
X173000Y386480D01*
X166000Y377000D02*
Y379480D01*
X198000Y386480D02*
X206000Y378480D01*
Y377000D02*
Y378480D01*
X190000Y377000D02*
X206000D01*
X186000Y373000D02*
X190000Y377000D01*
X166000D02*
X182000D01*
X186000Y373000D01*
X144000Y369520D02*
X145217D01*
X154250Y372750D02*
X158000Y369000D01*
X144520Y361000D02*
X150000D01*
X144000Y360480D02*
X144520Y361000D01*
X226783Y369520D02*
X228000D01*
X223553Y372750D02*
X226783Y369520D01*
X217750Y372750D02*
X223553D01*
X214000Y369000D02*
X217750Y372750D01*
X222520Y360480D02*
X228000D01*
X222000Y361000D02*
X222520Y360480D01*
Y392480D02*
X228000D01*
X222000Y393000D02*
X222520Y392480D01*
X226783Y401520D02*
X228000D01*
X223553Y404750D02*
X226783Y401520D01*
X217750Y404750D02*
X223553D01*
X214000Y401000D02*
X217750Y404750D01*
X169480Y412480D02*
X177000D01*
X195000D02*
X202520D01*
X206000Y409000D01*
X195000Y421520D02*
Y427000D01*
X201000Y433000D01*
X206000D01*
Y425520D02*
Y433000D01*
X205480Y425000D02*
X206000Y425520D01*
X177000Y421520D02*
Y427000D01*
X171000Y433000D02*
X177000Y427000D01*
X166000Y433000D02*
X171000D01*
X166000Y425520D02*
Y433000D01*
Y425520D02*
X166520Y425000D01*
X158000Y417000D02*
X166000Y425000D01*
X166520D01*
X213480Y417000D02*
X214000D01*
X205480Y425000D02*
X213480Y417000D01*
X214520Y425000D02*
Y432480D01*
X214000Y433000D02*
X214520Y432480D01*
X157480Y425000D02*
Y425520D01*
X150000Y433000D02*
X157480Y425520D01*
X145000Y460480D02*
X146520D01*
X150000Y457000D01*
X148480Y473000D02*
X150000D01*
X145000Y469520D02*
X148480Y473000D01*
X225480Y477520D02*
X227000D01*
X222000Y481000D02*
X225480Y477520D01*
Y468480D02*
X227000D01*
X222000Y465000D02*
X225480Y468480D01*
X190000Y345000D02*
X206000Y361000D01*
X166000D02*
X182000Y345000D01*
X448761Y52889D02*
X448818Y52832D01*
Y64052D01*
X448761Y64109D02*
X448818Y64052D01*
X442976Y51054D02*
X446786Y47244D01*
X439928Y51054D02*
X442976D01*
X437697Y53285D02*
X439928Y51054D01*
X437697Y53285D02*
Y64274D01*
X415798Y44704D02*
Y64173D01*
X415697Y64274D02*
X415798Y64173D01*
X393700Y44958D02*
Y64271D01*
X393697Y64274D02*
X393700Y64271D01*
X382778Y48260D02*
Y68193D01*
X382697Y68274D02*
X382778Y68193D01*
X371856Y51816D02*
Y64115D01*
X371697Y64274D02*
X371856Y64115D01*
X317000Y507586D02*
Y526836D01*
X336000Y368342D02*
Y372000D01*
Y352000D02*
Y356066D01*
X346000Y367642D02*
Y372000D01*
X345948Y372052D02*
Y376734D01*
Y372052D02*
X346000Y372000D01*
Y352000D02*
Y356922D01*
Y347270D02*
Y352000D01*
X345694Y347166D02*
X345948Y347420D01*
X346000Y338126D02*
Y342000D01*
X366000Y352000D02*
Y355840D01*
Y370064D02*
Y372000D01*
X376000Y369904D02*
Y372000D01*
X386000Y369744D02*
Y372000D01*
X366000Y378700D02*
Y382001D01*
X376000Y378794D02*
Y382001D01*
X386000Y378837D02*
Y382001D01*
X346000D02*
Y385572D01*
X341000Y507586D02*
Y531500D01*
X447040Y419100D02*
X447140Y419000D01*
X452480D01*
X447320Y427000D02*
X452480D01*
X421000Y327480D02*
X438520D01*
X447040Y357960D02*
Y358140D01*
X252730Y57404D02*
X261874Y48260D01*
X267716D01*
X271000Y44976D01*
Y37000D02*
Y44976D01*
X265346Y37000D02*
X271000D01*
X264160Y35814D02*
X265346Y37000D01*
X264160Y23876D02*
Y35814D01*
X263284Y23000D02*
X264160Y23876D01*
X257000Y23000D02*
X263284D01*
X271000D02*
X275730D01*
X277622Y24892D01*
Y51078D01*
X268500Y60200D02*
X277622Y51078D01*
X142000Y23000D02*
Y45000D01*
X400520Y327000D02*
Y337000D01*
X411000Y317480D02*
Y327480D01*
X429970Y317500D02*
X430500D01*
X17780Y215900D02*
X39400D01*
X39500Y216000D01*
X38580Y248920D02*
X39500Y248000D01*
X12700Y246380D02*
X17780D01*
Y251460D02*
X20320Y248920D01*
X38580D01*
X68580Y96520D02*
X85980D01*
X86500Y96000D01*
X68440Y104000D02*
X86500D01*
X66040Y93980D02*
X68580Y96520D01*
X20320Y73660D02*
X30940D01*
X57860Y416000D02*
X58420Y416560D01*
X39500Y416000D02*
X57860D01*
X101420Y424000D02*
X104140Y426720D01*
X333000Y507586D02*
Y525520D01*
X453000Y507586D02*
Y526836D01*
X461000Y507586D02*
Y526836D01*
X469000Y507586D02*
Y526836D01*
X65182Y248000D02*
X86500D01*
X59182Y254000D02*
X65182Y248000D01*
X371400Y297000D02*
X381000D01*
X371400Y286766D02*
Y297000D01*
X60960Y83820D02*
Y96520D01*
X68440Y104000D01*
X17780Y198120D02*
X23900Y192000D01*
X39500D01*
X17540Y112000D02*
X39500D01*
X12700Y195580D02*
Y200660D01*
X20320Y203200D02*
X22860Y200660D01*
X38840D01*
X39680Y424180D02*
X58420D01*
X39500Y424000D02*
X39680Y424180D01*
X67310Y403860D02*
Y405130D01*
X70180Y408000D01*
X86500D01*
X39500Y440000D02*
X55300D01*
X58420Y436880D01*
X73100Y440000D02*
X86500D01*
X71320Y432000D02*
X86360D01*
X17780Y184150D02*
X39370D01*
X17780Y176530D02*
X38840D01*
X39370Y176000D01*
X698090Y399000D02*
X702860Y403770D01*
X693520Y399000D02*
X698090D01*
X702860Y405680D02*
X703580Y406400D01*
X702860Y403770D02*
Y405680D01*
X679250Y345500D02*
X685994D01*
X689014Y342480D01*
X693000D01*
X705866Y310896D02*
X705866Y310896D01*
X709898D01*
X792000Y440000D02*
X812586D01*
X792000Y432000D02*
X812586D01*
X792000Y424000D02*
X812586D01*
X792000Y416000D02*
X812586D01*
X792000Y408000D02*
X812586D01*
X792000Y400000D02*
X812586D01*
X792000Y392000D02*
X812586D01*
X792000Y384000D02*
X812586D01*
X792000Y376000D02*
X812586D01*
X792000Y368000D02*
X812586D01*
X792000Y360000D02*
X812586D01*
Y312000D02*
X827050D01*
X812586Y304000D02*
X824950D01*
X843000Y328000D02*
X859586D01*
X840000Y336000D02*
X859586D01*
X840000Y320000D02*
X859586D01*
X840000Y312000D02*
X859586D01*
X812586Y296000D02*
X830000Y296000D01*
X840000Y296000D02*
X859586D01*
Y304000D02*
X878000D01*
X812586Y288000D02*
X832000D01*
X840000D02*
X859586D01*
X812586Y208000D02*
X832000D01*
X840000D02*
X859586D01*
X840000Y200000D02*
X859586D01*
X812586Y192000D02*
X832000D01*
X792000Y184000D02*
X812586D01*
X792000Y176000D02*
X812586D01*
Y160000D02*
X832000D01*
X840000D02*
X859586D01*
X812586Y152000D02*
X832000D01*
X840000D02*
X859586D01*
X812586Y144000D02*
X832230D01*
X840000D02*
X859586D01*
X812586Y128000D02*
X828000D01*
X840000Y352000D02*
X859586D01*
X840000Y360000D02*
X859586D01*
X840000Y368000D02*
X859586D01*
X840000Y376000D02*
X859586D01*
X840000Y384000D02*
X859586D01*
X840000Y392000D02*
X859586D01*
X840000Y400000D02*
X859586D01*
X840000Y408000D02*
X859586D01*
X840000Y416000D02*
X859586D01*
X840000Y424000D02*
X859586D01*
X840000Y432000D02*
X859586D01*
X840000Y440000D02*
X859586D01*
X792000Y352000D02*
X812586D01*
X792000Y344000D02*
X812586D01*
X660500Y444250D02*
Y452500D01*
X655500Y444250D02*
Y452500D01*
X650500Y444250D02*
Y452500D01*
X645500Y444250D02*
Y452500D01*
X640500Y444250D02*
Y452500D01*
X635500Y444250D02*
Y452500D01*
X630500Y444250D02*
Y452500D01*
X625500Y444250D02*
Y452500D01*
X620500Y444250D02*
Y452500D01*
X605500Y444250D02*
Y452500D01*
X600500Y444250D02*
Y452500D01*
X590500Y444250D02*
Y452500D01*
X590000Y453000D02*
X590500Y452500D01*
X570500Y444250D02*
Y452500D01*
X570000Y453000D02*
X570500Y452500D01*
X565500Y444250D02*
Y452500D01*
X555500Y444250D02*
Y452500D01*
X556000Y453000D01*
X540500Y444250D02*
Y452500D01*
X540000Y453000D02*
X540500Y452500D01*
X535500Y444250D02*
Y452500D01*
X535000Y453000D02*
X535500Y452500D01*
X530500Y444250D02*
Y452500D01*
X530000Y453000D02*
X530500Y452500D01*
X510500Y444250D02*
Y452500D01*
X505500Y444250D02*
Y452500D01*
X505000Y453000D02*
X505500Y452500D01*
X500500Y444250D02*
Y452500D01*
X495500Y444250D02*
Y452500D01*
X495000Y453000D02*
X495500Y452500D01*
X490500Y444250D02*
Y452500D01*
X490000Y453000D02*
X490500Y452500D01*
X455020Y420500D02*
X466750D01*
X679250Y340500D02*
X687034D01*
X689014Y342480D01*
X693000Y407520D02*
X697380D01*
X698500Y406400D01*
X580000Y453000D02*
X580500Y452500D01*
Y444250D02*
Y452500D01*
X575000Y453000D02*
X575500Y452500D01*
Y444250D02*
Y452500D01*
X565000Y453000D02*
X565500Y452500D01*
X679250Y270500D02*
X713980D01*
X679250Y265500D02*
X687500D01*
X691520Y261480D01*
X694000D01*
X704000D01*
X692480Y252000D02*
Y259960D01*
X694000Y261480D01*
X679250Y260500D02*
X686500D01*
X688000Y259000D01*
Y249000D02*
Y259000D01*
X696520Y247000D02*
X701520Y252000D01*
X709480D01*
X696520Y247000D02*
X696520D01*
X701520Y242000D02*
X708480D01*
X709480Y243000D01*
X688000Y242000D02*
X692480D01*
X688000Y242000D02*
X688000Y242000D01*
X696520Y247000D02*
X701520Y242000D01*
Y238020D02*
Y242000D01*
X700500Y237000D02*
X701520Y238020D01*
X700500Y231000D02*
Y237000D01*
X709480Y228520D02*
Y233000D01*
Y228520D02*
X710000Y228000D01*
X659000Y326000D02*
X664500Y320500D01*
X679250D01*
X626000Y242000D02*
X633000D01*
X635500Y239500D01*
Y231750D02*
Y239500D01*
X796000Y120000D02*
X812586D01*
X794000Y122000D02*
X796000Y120000D01*
X794000Y122000D02*
Y125000D01*
X795000Y112000D02*
X812586D01*
X794000Y113000D02*
X795000Y112000D01*
X794000Y113000D02*
Y115000D01*
X795000Y136000D02*
X812586D01*
X794000Y137000D02*
X795000Y136000D01*
X794000Y137000D02*
Y140000D01*
X12700Y266700D02*
X15240Y269240D01*
X12700Y257810D02*
Y266700D01*
Y233680D02*
Y238760D01*
X15240Y241300D01*
X17780D01*
Y246380D02*
X24160Y240000D01*
X12700Y233680D02*
X14380Y232000D01*
X39500D01*
X12700Y200660D02*
X15240Y203200D01*
X20320D01*
X15240Y114300D02*
X17540Y112000D01*
X69540Y435430D02*
Y436440D01*
X73100Y440000D01*
X66040Y426720D02*
X71320Y432000D01*
X58420Y429260D02*
X63370D01*
X69540Y435430D01*
X103160Y288000D02*
X105410Y285750D01*
X116250D01*
X840740Y448310D02*
X873690D01*
X156000Y23000D02*
X170000D01*
X794000Y125000D02*
X794606Y124394D01*
Y124000D02*
Y124394D01*
D80*
X158242Y118618D02*
X173482Y103378D01*
X149050Y118618D02*
X158242D01*
X143360Y124308D02*
X149050Y118618D01*
X173482Y83566D02*
Y103378D01*
X155956Y66040D02*
X173482Y83566D01*
X137160Y66040D02*
X155956D01*
X710000Y27500D02*
X710440Y27940D01*
X721360D01*
X652756Y93980D02*
X658480D01*
X652756D02*
X652768Y93992D01*
X646826Y93980D02*
X652756D01*
X620000Y74000D02*
X620014Y74015D01*
Y84940D01*
X636140Y39500D02*
X639000D01*
X630140Y45500D02*
X636140Y39500D01*
X621000Y45500D02*
X630140D01*
X620000Y46501D02*
X621000Y45500D01*
X620000Y46501D02*
Y60000D01*
X693420Y20320D02*
X701040D01*
X680720D02*
X693420D01*
X708220Y27500D02*
X710000D01*
X701040Y20320D02*
X708220Y27500D01*
X678180Y17780D02*
X680720Y20320D01*
X670560Y17780D02*
X678180D01*
X662940D02*
X670560D01*
X640080D02*
X662940D01*
X622300D02*
X640080D01*
X639000Y26500D02*
X640080Y25420D01*
Y17780D02*
Y25420D01*
X621000Y27500D02*
X622300Y26200D01*
Y17780D02*
Y26200D01*
X586740Y35560D02*
X596900D01*
X599000Y33460D01*
Y27750D02*
Y33460D01*
X284480Y15240D02*
X285390Y16150D01*
Y25400D01*
X303890Y25400D02*
X312420D01*
X568000Y27940D02*
X579120D01*
X581660Y25400D01*
X586740Y55880D02*
X594360D01*
X599000Y51240D01*
Y46250D02*
Y51240D01*
X225552Y137818D02*
X225560Y137810D01*
X241046D01*
X241046Y116332D02*
Y123810D01*
X225552Y116586D02*
Y124818D01*
X207264Y113284D02*
Y121040D01*
X198900Y182900D02*
Y203980D01*
X149860Y127000D02*
X150860Y126000D01*
X161000D01*
X186000D01*
X215544Y139548D02*
X217274Y137818D01*
X225552D01*
X206756Y139548D02*
X215544D01*
X201524D02*
X206756D01*
X195580Y133604D02*
X201524Y139548D01*
X195580Y129032D02*
Y133604D01*
X192548Y126000D02*
X195580Y129032D01*
X186000Y126000D02*
X192548D01*
X198900Y170200D02*
Y182900D01*
Y170200D02*
X211600Y157500D01*
X206756Y139548D02*
Y150350D01*
X211600Y155194D02*
Y157500D01*
X206756Y150350D02*
X211600Y155194D01*
X188880Y214000D02*
X198900Y203980D01*
X174000Y214000D02*
X188880D01*
X233822Y227218D02*
X251460D01*
X198900Y203980D02*
X208920Y214000D01*
X224000D01*
Y217396D01*
X233822Y227218D01*
X251460D02*
X251742Y227500D01*
X271000D01*
X501800Y160170D02*
X502920Y161290D01*
X494030Y160170D02*
X501800D01*
X579860Y46250D02*
X580390Y45720D01*
X568000Y46250D02*
X579860D01*
X449580Y200660D02*
X455930Y194310D01*
Y161290D02*
Y194310D01*
X445770Y151130D02*
X455930Y161290D01*
X427990Y151130D02*
X445770D01*
X424180Y147320D02*
X427990Y151130D01*
X424180Y96520D02*
Y147320D01*
X416560Y88900D02*
X424180Y96520D01*
X411480Y88900D02*
X416560D01*
X486410Y104140D02*
X492760Y110490D01*
X431800Y88900D02*
Y143510D01*
Y88900D02*
X440690Y80010D01*
X457200D01*
X471170Y66040D01*
Y40640D02*
Y66040D01*
Y40640D02*
X477910Y33900D01*
X486410D01*
X486410Y61610D02*
Y104140D01*
X486410Y47610D02*
X486410Y47610D01*
X486410Y33900D02*
Y47610D01*
Y33900D02*
X486800Y34290D01*
X505460D01*
X516890Y31750D02*
X524510D01*
X514350Y34290D02*
X516890Y31750D01*
X505460Y34290D02*
X514350D01*
X505460D02*
Y45720D01*
X506730Y46990D01*
X512430D01*
X540870D02*
X541020Y47140D01*
X526430Y46990D02*
X540870D01*
X526430D02*
Y55230D01*
X523240Y58420D02*
X526430Y55230D01*
X508000Y58420D02*
X523240D01*
X500380Y66040D02*
X508000Y58420D01*
X500380Y66040D02*
Y82550D01*
X408940Y91440D02*
X411480Y88900D01*
X391160Y91440D02*
X408940D01*
X386080Y86360D02*
X391160Y91440D01*
X355600Y86360D02*
X386080D01*
X343240Y74000D02*
X355600Y86360D01*
X311000Y74000D02*
X343240D01*
X406400Y76200D02*
X408940D01*
X404697Y74497D02*
X406400Y76200D01*
X404697Y62274D02*
Y74497D01*
X416560Y78740D02*
X421640D01*
X426697Y73683D01*
Y62274D02*
Y73683D01*
X330200Y91440D02*
Y106680D01*
X326760Y88000D02*
X330200Y91440D01*
X311000Y88000D02*
X326760D01*
X360680Y20320D02*
Y76200D01*
X345440Y5080D02*
X360680Y20320D01*
X279400Y5080D02*
X345440D01*
X274320Y10160D02*
X279400Y5080D01*
X137160Y10160D02*
X274320D01*
X127000Y20320D02*
X137160Y10160D01*
X127000Y20320D02*
Y55880D01*
X137160Y66040D01*
X143360Y124308D02*
Y136040D01*
X135400Y144000D02*
X143360Y136040D01*
X325000Y17660D02*
Y26000D01*
X320040Y12700D02*
X325000Y17660D01*
X299720Y43500D02*
X310000D01*
X290000D02*
X299720D01*
Y50800D01*
X311000Y62501D02*
Y74000D01*
X310000Y61500D02*
X311000Y62501D01*
X290000Y61500D02*
X310000D01*
X290000D02*
Y66480D01*
X293000Y69480D01*
Y74500D01*
X86500Y144000D02*
X135400D01*
D81*
X170690Y277770D02*
X171958Y276502D01*
X159770Y277770D02*
X170690D01*
X156000Y274000D02*
X159770Y277770D01*
X168290Y293990D02*
X171958Y290322D01*
X164592Y293990D02*
X168290D01*
X203096Y293370D02*
X206466Y290000D01*
X212000D01*
D83*
X875000Y575000D02*
D03*
X160800Y157500D02*
D03*
X173500Y182900D02*
D03*
X198900D02*
D03*
X224300D02*
D03*
X186200Y157500D02*
D03*
X211600D02*
D03*
X249700Y182900D02*
D03*
X237000Y157500D02*
D03*
X142000Y45000D02*
D03*
X167400Y60200D02*
D03*
X243100Y45000D02*
D03*
X268500Y60200D02*
D03*
D84*
X367000Y259000D02*
D03*
D85*
Y459000D02*
D03*
D86*
X526000Y531995D02*
D03*
D87*
X244000Y531795D02*
D03*
D88*
X126500Y124500D02*
D03*
X284000D02*
D03*
D89*
X148100Y94000D02*
D03*
X262400D02*
D03*
D90*
X762000Y19050D02*
D03*
X736600D02*
D03*
X812800D02*
D03*
X787400D02*
D03*
D91*
X833120Y104140D02*
D03*
X689610Y346710D02*
D03*
X119380Y217170D02*
D03*
X114300D02*
D03*
X307340Y192532D02*
D03*
X326930Y218530D02*
D03*
X315450Y218480D02*
D03*
X314960Y200660D02*
D03*
X335280D02*
D03*
Y213360D02*
D03*
X427000Y282000D02*
D03*
X416000D02*
D03*
X276000Y292000D02*
D03*
X296000D02*
D03*
X286000D02*
D03*
X306000D02*
D03*
X316000D02*
D03*
X336000D02*
D03*
X326000D02*
D03*
X346000D02*
D03*
X366000D02*
D03*
X376000D02*
D03*
X396000D02*
D03*
X386000D02*
D03*
X406000D02*
D03*
Y322000D02*
D03*
Y282000D02*
D03*
X336000D02*
D03*
X346000D02*
D03*
X316000D02*
D03*
X296000D02*
D03*
X286000D02*
D03*
X276000D02*
D03*
X306000D02*
D03*
X346000Y312000D02*
D03*
X326000Y282000D02*
D03*
Y312000D02*
D03*
X316000D02*
D03*
X306000D02*
D03*
X296000D02*
D03*
X336000D02*
D03*
X386000Y282000D02*
D03*
X376000D02*
D03*
X396000D02*
D03*
X387096Y253238D02*
D03*
X326000Y322000D02*
D03*
X396000Y302000D02*
D03*
X376000D02*
D03*
X386000D02*
D03*
X286000D02*
D03*
X306000D02*
D03*
X316000D02*
D03*
X326000D02*
D03*
X336000D02*
D03*
X346000D02*
D03*
X366000D02*
D03*
X436000Y312000D02*
D03*
Y302000D02*
D03*
Y292000D02*
D03*
Y282000D02*
D03*
X426000Y312000D02*
D03*
X421124Y312166D02*
D03*
X416000Y312000D02*
D03*
X406000D02*
D03*
Y301000D02*
D03*
X366000Y312000D02*
D03*
X396000D02*
D03*
X416000Y292000D02*
D03*
X426000Y301000D02*
D03*
X416000D02*
D03*
X276000Y302000D02*
D03*
X296000D02*
D03*
X386000Y312000D02*
D03*
Y342000D02*
D03*
Y322000D02*
D03*
Y372000D02*
D03*
Y352000D02*
D03*
X316099Y331999D02*
D03*
Y321999D02*
D03*
X399796Y274066D02*
D03*
X410972Y273050D02*
D03*
X286000Y312000D02*
D03*
X831998Y95000D02*
D03*
X21000Y301000D02*
D03*
X17000Y298000D02*
D03*
X400000Y476000D02*
D03*
X396999Y527999D02*
D03*
X380000Y582000D02*
D03*
X343000Y534000D02*
D03*
X12000Y508000D02*
D03*
Y503000D02*
D03*
X19000Y537000D02*
D03*
X59000Y410000D02*
D03*
X121000Y233000D02*
D03*
X345750Y322250D02*
D03*
X376000Y312000D02*
D03*
Y342000D02*
D03*
X352026Y237236D02*
D03*
X387800Y212200D02*
D03*
X402000Y213000D02*
D03*
X353999Y192000D02*
D03*
X480060Y298450D02*
D03*
X650000Y335000D02*
D03*
X627000Y361000D02*
D03*
X516999Y210000D02*
D03*
X503000Y218000D02*
D03*
X484000D02*
D03*
X465000Y206000D02*
D03*
X451000Y216408D02*
D03*
X352999Y224000D02*
D03*
X353999Y218000D02*
D03*
X354999Y209000D02*
D03*
X354254Y201466D02*
D03*
X379730Y201000D02*
D03*
X59000Y165000D02*
D03*
X66000Y203000D02*
D03*
X63758Y213500D02*
D03*
X63000Y209000D02*
D03*
X59000Y203000D02*
D03*
X17000Y274000D02*
D03*
Y280000D02*
D03*
X455000Y574000D02*
D03*
X418000Y583000D02*
D03*
X434340Y581660D02*
D03*
X420878Y573786D02*
D03*
X489000Y534000D02*
D03*
X493000Y526836D02*
D03*
X429000Y533000D02*
D03*
X380000Y533999D02*
D03*
X385000Y535000D02*
D03*
X403000Y529000D02*
D03*
X389000D02*
D03*
X357000Y533000D02*
D03*
X351790D02*
D03*
X358000Y528000D02*
D03*
X348000D02*
D03*
X329000Y536000D02*
D03*
X330000Y528000D02*
D03*
X320000Y471000D02*
D03*
Y479000D02*
D03*
X363349Y485140D02*
D03*
X355999Y484999D02*
D03*
X329999Y485999D02*
D03*
X340999D02*
D03*
X347980Y485140D02*
D03*
X367999Y485999D02*
D03*
X372999D02*
D03*
X322580Y485140D02*
D03*
X416737Y484963D02*
D03*
X399000Y485000D02*
D03*
X389000Y477000D02*
D03*
X382000Y485000D02*
D03*
X465000Y484960D02*
D03*
X457000Y485000D02*
D03*
X552000Y463000D02*
D03*
X609000D02*
D03*
X505000Y370036D02*
D03*
X514000Y366000D02*
D03*
X515000Y360000D02*
D03*
X533000Y361000D02*
D03*
X526000Y400000D02*
D03*
X504984Y304984D02*
D03*
X514999Y294999D02*
D03*
X533999Y338999D02*
D03*
X598000Y341000D02*
D03*
X600000Y348033D02*
D03*
X592000Y357000D02*
D03*
X575000Y372000D02*
D03*
X565000D02*
D03*
X840000Y281000D02*
D03*
Y275000D02*
D03*
X834000D02*
D03*
Y281000D02*
D03*
Y287000D02*
D03*
X836000Y293000D02*
D03*
X515822Y200458D02*
D03*
X513000Y204000D02*
D03*
X464000Y239000D02*
D03*
X436999Y247999D02*
D03*
X413999Y252999D02*
D03*
X420370Y255778D02*
D03*
X371999Y444999D02*
D03*
X366000Y442000D02*
D03*
X360000Y444000D02*
D03*
X327000Y463000D02*
D03*
X338328Y462026D02*
D03*
X381000Y480000D02*
D03*
X435999Y432999D02*
D03*
X442999Y434999D02*
D03*
X446999Y426999D02*
D03*
X443000Y446000D02*
D03*
X450000D02*
D03*
X460000Y442982D02*
D03*
X493000Y427000D02*
D03*
X486000D02*
D03*
X497000Y421000D02*
D03*
X486000D02*
D03*
X495999Y255000D02*
D03*
X457000Y284000D02*
D03*
X439000Y196000D02*
D03*
Y200856D02*
D03*
X833000Y322000D02*
D03*
Y331000D02*
D03*
X840000Y313000D02*
D03*
X832998Y312999D02*
D03*
X835998Y316999D02*
D03*
X840000Y322000D02*
D03*
Y331000D02*
D03*
X834000Y252000D02*
D03*
X833998Y246000D02*
D03*
X832000Y240000D02*
D03*
X840000Y256000D02*
D03*
Y248000D02*
D03*
X592000Y152000D02*
D03*
X656000Y185000D02*
D03*
X642000Y149000D02*
D03*
X675000Y136000D02*
D03*
X650000Y286000D02*
D03*
X661000Y281000D02*
D03*
X653000D02*
D03*
X702818Y291000D02*
D03*
X707318D02*
D03*
X671000Y262000D02*
D03*
X658000Y251000D02*
D03*
Y258000D02*
D03*
X702000Y380000D02*
D03*
X691000Y371000D02*
D03*
X639000Y404000D02*
D03*
X630000Y417000D02*
D03*
X635831Y416999D02*
D03*
X639568Y411000D02*
D03*
X574000Y416000D02*
D03*
X544000Y417000D02*
D03*
X549000Y406000D02*
D03*
X543000Y393000D02*
D03*
X505000Y375000D02*
D03*
X508000Y358394D02*
D03*
X518000Y349000D02*
D03*
X515000Y310000D02*
D03*
X547000Y348000D02*
D03*
Y330000D02*
D03*
X572770Y306578D02*
D03*
X579300Y310000D02*
D03*
X544100Y296700D02*
D03*
X544300Y288194D02*
D03*
X545338Y275082D02*
D03*
X600710Y261620D02*
D03*
X593512Y292694D02*
D03*
X600012Y298866D02*
D03*
X597662Y303022D02*
D03*
X597408Y311150D02*
D03*
X628100Y288500D02*
D03*
X627888Y271780D02*
D03*
X577000Y247000D02*
D03*
X586499Y241999D02*
D03*
X573499Y273899D02*
D03*
X592099Y273599D02*
D03*
X597000Y247000D02*
D03*
Y242000D02*
D03*
X653000Y214000D02*
D03*
X658799Y213800D02*
D03*
X669499Y206000D02*
D03*
X631999Y213300D02*
D03*
X623999Y213100D02*
D03*
X744340Y134500D02*
D03*
X792000Y155000D02*
D03*
X786384Y135636D02*
D03*
X773938Y137414D02*
D03*
X840600Y202198D02*
D03*
X879300Y185100D02*
D03*
X833430Y142800D02*
D03*
X837696Y148062D02*
D03*
X839978Y152146D02*
D03*
X840000Y144000D02*
D03*
X839978Y137160D02*
D03*
X831970Y201440D02*
D03*
X839297Y191706D02*
D03*
X792840Y330990D02*
D03*
X779752Y321754D02*
D03*
X772547Y343671D02*
D03*
X765091Y344652D02*
D03*
X760327Y344572D02*
D03*
X766046Y353554D02*
D03*
X763880Y357752D02*
D03*
X768390Y341450D02*
D03*
X766000Y362000D02*
D03*
X763960Y366338D02*
D03*
X560780Y455940D02*
D03*
X565000Y453000D02*
D03*
X625580Y407300D02*
D03*
X597000Y387000D02*
D03*
X529132Y405968D02*
D03*
X416000Y322000D02*
D03*
X423161Y228093D02*
D03*
X418254Y228092D02*
D03*
X17523Y102708D02*
D03*
X17023Y127347D02*
D03*
X17018Y122444D02*
D03*
X63758Y218436D02*
D03*
X57994Y213362D02*
D03*
X63158Y223340D02*
D03*
X19339Y258460D02*
D03*
X12520Y251281D02*
D03*
X61980Y280790D02*
D03*
X147322Y304821D02*
D03*
X139696Y299698D02*
D03*
X386000Y392001D02*
D03*
X396000D02*
D03*
X386000Y402000D02*
D03*
Y412000D02*
D03*
Y422000D02*
D03*
Y432000D02*
D03*
Y442000D02*
D03*
Y382001D02*
D03*
X396000Y342000D02*
D03*
Y412000D02*
D03*
Y402000D02*
D03*
Y382001D02*
D03*
X406000Y432000D02*
D03*
X396000Y372000D02*
D03*
Y422000D02*
D03*
X406000Y442000D02*
D03*
X376000Y372000D02*
D03*
X396000Y352000D02*
D03*
X406000D02*
D03*
X406146Y347472D02*
D03*
X406000Y372000D02*
D03*
X416306Y382016D02*
D03*
X365999Y352099D02*
D03*
X306000Y322000D02*
D03*
X413999Y262899D02*
D03*
X372999Y103600D02*
D03*
X326000Y442000D02*
D03*
Y432000D02*
D03*
X336000Y442000D02*
D03*
Y432000D02*
D03*
Y412000D02*
D03*
Y402000D02*
D03*
Y392001D02*
D03*
X326000D02*
D03*
X336000Y382001D02*
D03*
X346000Y392001D02*
D03*
X326000Y382001D02*
D03*
Y372000D02*
D03*
Y402000D02*
D03*
X396000Y432000D02*
D03*
X416000D02*
D03*
X426000Y422000D02*
D03*
Y432000D02*
D03*
Y442000D02*
D03*
X436000D02*
D03*
Y392001D02*
D03*
Y412000D02*
D03*
Y382001D02*
D03*
Y402000D02*
D03*
Y422000D02*
D03*
X447040Y419100D02*
D03*
X416000Y422000D02*
D03*
Y392001D02*
D03*
X426000D02*
D03*
X416000Y412000D02*
D03*
X426000D02*
D03*
X416000Y402000D02*
D03*
X426000D02*
D03*
X416000Y442000D02*
D03*
X375599Y441999D02*
D03*
X436000Y372000D02*
D03*
X426000D02*
D03*
X416000D02*
D03*
X721360Y379476D02*
D03*
X705760Y383000D02*
D03*
X416000Y342000D02*
D03*
Y352000D02*
D03*
X406000Y342000D02*
D03*
X426000Y352000D02*
D03*
Y342000D02*
D03*
X532638Y356108D02*
D03*
X532892Y403352D02*
D03*
X546100Y396748D02*
D03*
X623941Y412867D02*
D03*
X781050Y328930D02*
D03*
X791718Y384302D02*
D03*
X791972Y376682D02*
D03*
X785876Y356108D02*
D03*
X791972Y359410D02*
D03*
X792000Y368000D02*
D03*
X732282Y365506D02*
D03*
X840994Y166624D02*
D03*
X878840Y125984D02*
D03*
X839724Y110236D02*
D03*
X263200Y509600D02*
D03*
X256540Y546100D02*
D03*
X76000Y495500D02*
D03*
X396000Y442000D02*
D03*
X376000Y432000D02*
D03*
X671000Y275000D02*
D03*
Y280000D02*
D03*
X688000Y242000D02*
D03*
X657000Y284000D02*
D03*
X548894Y156210D02*
D03*
X528574Y182880D02*
D03*
X759460Y245110D02*
D03*
X745490D02*
D03*
X642620Y135890D02*
D03*
Y173990D02*
D03*
X665480D02*
D03*
X768350Y394970D02*
D03*
Y400050D02*
D03*
X754380Y394970D02*
D03*
Y400050D02*
D03*
X753110Y458470D02*
D03*
Y476250D02*
D03*
Y469900D02*
D03*
X740410D02*
D03*
X746760D02*
D03*
X770890Y476250D02*
D03*
Y469900D02*
D03*
X777240D02*
D03*
X783590D02*
D03*
X789940Y457200D02*
D03*
Y463550D02*
D03*
Y469900D02*
D03*
Y476250D02*
D03*
Y482600D02*
D03*
X783590D02*
D03*
X613410D02*
D03*
X619760D02*
D03*
X626110D02*
D03*
X632460D02*
D03*
X638810D02*
D03*
X645160D02*
D03*
X651510D02*
D03*
X657860D02*
D03*
X664210D02*
D03*
X670560D02*
D03*
X676910D02*
D03*
X683260D02*
D03*
X689610D02*
D03*
X695960D02*
D03*
X702310D02*
D03*
X708660D02*
D03*
X715010D02*
D03*
X721360D02*
D03*
X727710D02*
D03*
X734060D02*
D03*
X740410D02*
D03*
X746760D02*
D03*
X753110D02*
D03*
X706120Y121920D02*
D03*
Y127000D02*
D03*
Y116840D02*
D03*
X669000Y333000D02*
D03*
X840000Y104000D02*
D03*
Y96000D02*
D03*
X688000Y330000D02*
D03*
Y336000D02*
D03*
X664000Y333000D02*
D03*
X560000Y559000D02*
D03*
X786000Y348000D02*
D03*
X792000Y344000D02*
D03*
X671000Y290000D02*
D03*
Y295000D02*
D03*
Y285000D02*
D03*
X792000Y194000D02*
D03*
X835914Y196088D02*
D03*
X832000Y192000D02*
D03*
X773684Y81788D02*
D03*
X65278Y36322D02*
D03*
X832000Y132000D02*
D03*
Y160000D02*
D03*
X840000D02*
D03*
X832104Y108712D02*
D03*
X663702Y347218D02*
D03*
X647700Y349758D02*
D03*
X548640Y292100D02*
D03*
X625094Y397764D02*
D03*
X597916Y273812D02*
D03*
X568000Y310000D02*
D03*
X577000Y242000D02*
D03*
X600456Y335026D02*
D03*
X515000Y315000D02*
D03*
X535000Y453000D02*
D03*
X540000D02*
D03*
X530000D02*
D03*
X495000D02*
D03*
X520000D02*
D03*
X510000D02*
D03*
X500000D02*
D03*
X505000D02*
D03*
X515000Y290000D02*
D03*
Y335000D02*
D03*
X485000Y453000D02*
D03*
X346000Y442000D02*
D03*
X332740Y469900D02*
D03*
X782574Y98044D02*
D03*
X604520Y121920D02*
D03*
X662940Y205740D02*
D03*
X647700D02*
D03*
X652780D02*
D03*
X657860D02*
D03*
X426466Y185674D02*
D03*
X434594Y190246D02*
D03*
X599694Y416814D02*
D03*
X540512Y410972D02*
D03*
X532130Y299212D02*
D03*
X515000Y345000D02*
D03*
Y340000D02*
D03*
X721868Y216916D02*
D03*
X515000Y320000D02*
D03*
X505000Y390000D02*
D03*
Y395000D02*
D03*
Y380000D02*
D03*
X515000Y330000D02*
D03*
Y325000D02*
D03*
X704596Y345948D02*
D03*
X549000Y393000D02*
D03*
Y387000D02*
D03*
X436000Y332000D02*
D03*
X600000Y391000D02*
D03*
X568000Y248000D02*
D03*
X563000D02*
D03*
X662000Y396000D02*
D03*
X656000D02*
D03*
X525000Y453000D02*
D03*
X515000D02*
D03*
X505000Y385000D02*
D03*
X792000Y264000D02*
D03*
X878000D02*
D03*
X505000Y400000D02*
D03*
Y405000D02*
D03*
Y410000D02*
D03*
Y415000D02*
D03*
X832000Y224000D02*
D03*
X840000D02*
D03*
X832000Y232000D02*
D03*
X840000D02*
D03*
Y240000D02*
D03*
X604520Y182880D02*
D03*
X557000Y247000D02*
D03*
Y242000D02*
D03*
X777000Y108000D02*
D03*
X527000Y247000D02*
D03*
Y242000D02*
D03*
X520000Y255000D02*
D03*
Y260000D02*
D03*
Y265000D02*
D03*
Y270000D02*
D03*
Y275000D02*
D03*
Y280000D02*
D03*
Y285000D02*
D03*
X505000Y300000D02*
D03*
X517000Y247000D02*
D03*
Y242000D02*
D03*
X507000Y247000D02*
D03*
Y242000D02*
D03*
X537000Y247000D02*
D03*
Y242000D02*
D03*
X478000Y407000D02*
D03*
Y414000D02*
D03*
Y421000D02*
D03*
Y427000D02*
D03*
X490000Y453000D02*
D03*
X878000Y292000D02*
D03*
X792000Y252000D02*
D03*
X878000Y276000D02*
D03*
X792000Y275000D02*
D03*
X781050Y317246D02*
D03*
X878000Y252000D02*
D03*
X662000Y416000D02*
D03*
Y426000D02*
D03*
X600000Y453000D02*
D03*
X631000D02*
D03*
X617000Y463000D02*
D03*
X605000Y453000D02*
D03*
X626000D02*
D03*
X636000D02*
D03*
X590000D02*
D03*
X621000D02*
D03*
X656000D02*
D03*
X600000Y183000D02*
D03*
X512000Y260000D02*
D03*
X446532Y226822D02*
D03*
X430380Y255674D02*
D03*
X604520Y137160D02*
D03*
Y132080D02*
D03*
X869950Y59690D02*
D03*
X858520D02*
D03*
X845820D02*
D03*
X834390D02*
D03*
X847090Y39370D02*
D03*
X135890Y273050D02*
D03*
Y278130D02*
D03*
Y283210D02*
D03*
Y288290D02*
D03*
Y293370D02*
D03*
X173990Y320040D02*
D03*
X163830D02*
D03*
X158750D02*
D03*
X151130Y302260D02*
D03*
X135890D02*
D03*
X449580Y485140D02*
D03*
X444500D02*
D03*
X457200Y459740D02*
D03*
X436000Y322000D02*
D03*
X426000D02*
D03*
X436000Y342000D02*
D03*
X296000Y322000D02*
D03*
X286000Y332000D02*
D03*
X425450Y251460D02*
D03*
Y256540D02*
D03*
X436990Y260178D02*
D03*
X426000Y292000D02*
D03*
X212000Y298000D02*
D03*
X204000Y306000D02*
D03*
X220000Y298000D02*
D03*
X212000Y306000D02*
D03*
X276000Y342000D02*
D03*
Y332000D02*
D03*
X286000Y342000D02*
D03*
X296000D02*
D03*
X306000D02*
D03*
X316000D02*
D03*
X326000D02*
D03*
X336000D02*
D03*
X346000D02*
D03*
X366000D02*
D03*
Y332000D02*
D03*
X276000Y352000D02*
D03*
X166000Y385000D02*
D03*
X206000D02*
D03*
X166000Y393000D02*
D03*
X158000Y385000D02*
D03*
Y401000D02*
D03*
X206000Y393000D02*
D03*
X166000Y401000D02*
D03*
Y409000D02*
D03*
X150000Y385000D02*
D03*
Y401000D02*
D03*
X326000Y352000D02*
D03*
X222000Y361000D02*
D03*
X286000Y352000D02*
D03*
X296000D02*
D03*
X306000D02*
D03*
X316000D02*
D03*
X326136Y361950D02*
D03*
X150000Y361000D02*
D03*
X336000Y372000D02*
D03*
X346000Y332000D02*
D03*
X326000D02*
D03*
X336000D02*
D03*
X306000D02*
D03*
X296000D02*
D03*
X376000D02*
D03*
X447040Y393700D02*
D03*
X447050Y401320D02*
D03*
X92710Y39370D02*
D03*
X123190Y264160D02*
D03*
X116840Y190500D02*
D03*
X111760Y299720D02*
D03*
X447040Y378460D02*
D03*
X436000Y352000D02*
D03*
X317500Y236220D02*
D03*
X204000Y266000D02*
D03*
X196000D02*
D03*
X63500Y170180D02*
D03*
X68580Y165100D02*
D03*
X66040Y160020D02*
D03*
X713740Y121920D02*
D03*
X795020Y35560D02*
D03*
X779780D02*
D03*
X764540D02*
D03*
X721360Y53340D02*
D03*
X751840Y88900D02*
D03*
X744220D02*
D03*
X658000Y103238D02*
D03*
X612140Y96520D02*
D03*
X633000Y103156D02*
D03*
X693420Y104140D02*
D03*
X706120Y132080D02*
D03*
Y157480D02*
D03*
Y187960D02*
D03*
X604520Y157480D02*
D03*
Y147320D02*
D03*
Y142240D02*
D03*
Y127000D02*
D03*
Y114300D02*
D03*
X591566Y92202D02*
D03*
X614680Y104140D02*
D03*
X565912Y123444D02*
D03*
X687578Y103378D02*
D03*
X668020D02*
D03*
X639318Y103124D02*
D03*
X628650Y86360D02*
D03*
X234442Y580136D02*
D03*
X511302Y563372D02*
D03*
X500380Y533400D02*
D03*
X502000Y527000D02*
D03*
X505460Y533400D02*
D03*
X518414Y183134D02*
D03*
X508508D02*
D03*
X483870Y167640D02*
D03*
Y161290D02*
D03*
X549656Y131318D02*
D03*
Y140970D02*
D03*
X524510Y81280D02*
D03*
X483870Y146050D02*
D03*
Y130810D02*
D03*
Y140970D02*
D03*
Y135890D02*
D03*
X490220Y116840D02*
D03*
X457200Y133350D02*
D03*
X354330Y135890D02*
D03*
X383540Y157480D02*
D03*
X439420D02*
D03*
X450850Y25400D02*
D03*
X509270Y83820D02*
D03*
X501650Y95250D02*
D03*
Y100330D02*
D03*
X549402Y151130D02*
D03*
X549656Y145796D02*
D03*
X521970Y201930D02*
D03*
X480060Y111760D02*
D03*
X17780Y160020D02*
D03*
X114300Y271780D02*
D03*
X17780Y190500D02*
D03*
Y198120D02*
D03*
X607060Y543560D02*
D03*
X477000Y573836D02*
D03*
X469900Y485140D02*
D03*
X421640D02*
D03*
X607060Y533400D02*
D03*
X469000Y573836D02*
D03*
X420878Y460756D02*
D03*
X366000Y282000D02*
D03*
X312388Y236220D02*
D03*
X63500Y264160D02*
D03*
X375920Y154940D02*
D03*
X373380Y160020D02*
D03*
X322580Y236220D02*
D03*
X327660D02*
D03*
X337820D02*
D03*
X383286Y234950D02*
D03*
X325120Y139700D02*
D03*
X276860Y177895D02*
D03*
X270510Y177800D02*
D03*
X381000Y104140D02*
D03*
X106680Y121920D02*
D03*
Y129540D02*
D03*
X368058Y103632D02*
D03*
X171958Y290322D02*
D03*
X58674Y276352D02*
D03*
X493000Y573836D02*
D03*
X566420Y568960D02*
D03*
X591820Y584200D02*
D03*
X589280Y520700D02*
D03*
X569120D02*
D03*
X568800Y525780D02*
D03*
X589280Y538480D02*
D03*
X568960D02*
D03*
X589280Y525780D02*
D03*
Y543560D02*
D03*
X568960D02*
D03*
X71120Y81280D02*
D03*
X63500Y63500D02*
D03*
X34036D02*
D03*
X498094Y183134D02*
D03*
X447040Y383286D02*
D03*
X533400Y183134D02*
D03*
X513334D02*
D03*
X503428D02*
D03*
X296000Y372000D02*
D03*
X158000Y441000D02*
D03*
X276000Y392001D02*
D03*
X158000Y433000D02*
D03*
X276000Y382001D02*
D03*
X296000Y412000D02*
D03*
X286000D02*
D03*
X276000D02*
D03*
X222000Y465000D02*
D03*
X206000D02*
D03*
X158000Y473000D02*
D03*
X166000D02*
D03*
Y465000D02*
D03*
X214000Y385000D02*
D03*
X166000Y417000D02*
D03*
X150000D02*
D03*
X158000Y409000D02*
D03*
X316000Y422000D02*
D03*
X306000Y412000D02*
D03*
X286000Y422000D02*
D03*
X206000Y457000D02*
D03*
X158000D02*
D03*
X247392Y419519D02*
D03*
X150000Y433000D02*
D03*
X222000Y417000D02*
D03*
X214000D02*
D03*
X222000Y393000D02*
D03*
X158000Y377000D02*
D03*
X286000Y322000D02*
D03*
X166000Y361000D02*
D03*
X206000D02*
D03*
X221996Y368808D02*
D03*
X214000Y377000D02*
D03*
Y409000D02*
D03*
X222000Y377000D02*
D03*
X501000Y574000D02*
D03*
X381000Y526836D02*
D03*
Y573836D02*
D03*
X389000D02*
D03*
X373000Y526836D02*
D03*
X397000Y573836D02*
D03*
X365000Y526836D02*
D03*
Y573836D02*
D03*
X357000D02*
D03*
X413000Y526836D02*
D03*
X349000Y573836D02*
D03*
X421000Y526836D02*
D03*
X341000Y573836D02*
D03*
X429000D02*
D03*
X333000D02*
D03*
X437000D02*
D03*
X325000D02*
D03*
X445000Y526836D02*
D03*
Y573836D02*
D03*
X317000D02*
D03*
X309000Y526836D02*
D03*
Y573836D02*
D03*
X461000D02*
D03*
X301000D02*
D03*
X180000Y298000D02*
D03*
X164000Y274000D02*
D03*
Y266000D02*
D03*
X212000D02*
D03*
X164000Y258000D02*
D03*
X156000Y274000D02*
D03*
Y290000D02*
D03*
Y266000D02*
D03*
Y298000D02*
D03*
Y306000D02*
D03*
Y258000D02*
D03*
X220000Y306000D02*
D03*
Y258000D02*
D03*
X276000Y442000D02*
D03*
X286000D02*
D03*
X276000Y432000D02*
D03*
X296000Y442000D02*
D03*
X276000Y422000D02*
D03*
X286000Y432000D02*
D03*
X296000D02*
D03*
X316000Y442000D02*
D03*
X276000Y402000D02*
D03*
X296000Y422000D02*
D03*
X316000Y432000D02*
D03*
X286000Y402000D02*
D03*
X306000Y422000D02*
D03*
X426000Y332000D02*
D03*
X286000Y392001D02*
D03*
X426000Y382001D02*
D03*
X286000D02*
D03*
X296000Y402000D02*
D03*
X286000Y372000D02*
D03*
X416000Y332000D02*
D03*
X296000Y392001D02*
D03*
X316000Y412000D02*
D03*
X306000Y402000D02*
D03*
X296000Y382001D02*
D03*
X306000Y392001D02*
D03*
X316000Y402000D02*
D03*
X376000Y412000D02*
D03*
X306000Y382001D02*
D03*
X366000Y412000D02*
D03*
X306000Y372000D02*
D03*
X316000Y392001D02*
D03*
X376000Y402000D02*
D03*
X316000Y382001D02*
D03*
X376000Y322000D02*
D03*
X336000D02*
D03*
X366000Y402000D02*
D03*
X346000D02*
D03*
X316000Y372000D02*
D03*
X376000Y392001D02*
D03*
X366000D02*
D03*
X376000Y382001D02*
D03*
X366000D02*
D03*
X346000D02*
D03*
X366000Y372000D02*
D03*
X346000D02*
D03*
Y352000D02*
D03*
X559000Y213000D02*
D03*
X567000D02*
D03*
X692000Y356000D02*
D03*
X543000Y463000D02*
D03*
X222000Y481000D02*
D03*
X150000Y473000D02*
D03*
Y369000D02*
D03*
X214000D02*
D03*
X158000D02*
D03*
X150000Y377000D02*
D03*
X206000Y369000D02*
D03*
X166000D02*
D03*
X158000Y465000D02*
D03*
X150000Y457000D02*
D03*
X222000Y385000D02*
D03*
X206000Y377000D02*
D03*
X166000D02*
D03*
X222000Y449000D02*
D03*
X166000Y457000D02*
D03*
X222000Y401000D02*
D03*
X150000Y409000D02*
D03*
X158000Y449000D02*
D03*
X222000Y433000D02*
D03*
Y409000D02*
D03*
X150000Y425000D02*
D03*
X166000Y449000D02*
D03*
X214000Y401000D02*
D03*
Y433000D02*
D03*
X158000Y417000D02*
D03*
X166000Y441000D02*
D03*
X206000Y401000D02*
D03*
Y409000D02*
D03*
X166000Y433000D02*
D03*
X206000Y417000D02*
D03*
X264000Y471000D02*
D03*
Y461000D02*
D03*
Y451000D02*
D03*
Y431000D02*
D03*
X106000Y463000D02*
D03*
Y453000D02*
D03*
Y443000D02*
D03*
Y433000D02*
D03*
X446786Y47244D02*
D03*
X415798Y44704D02*
D03*
X393700Y44958D02*
D03*
X382778Y48260D02*
D03*
X371856Y51816D02*
D03*
X227330Y459740D02*
D03*
X206000Y473000D02*
D03*
X149074Y442000D02*
D03*
X153000Y445500D02*
D03*
X238252Y435864D02*
D03*
X141986Y437134D02*
D03*
X140716Y464820D02*
D03*
X336000Y352000D02*
D03*
X433578Y457200D02*
D03*
X317000Y526836D02*
D03*
X325000D02*
D03*
X376000Y352000D02*
D03*
X373000Y573836D02*
D03*
X346000Y422000D02*
D03*
X376000D02*
D03*
X314960Y485140D02*
D03*
X351282Y469900D02*
D03*
X439420Y485140D02*
D03*
X408940D02*
D03*
X416560Y480060D02*
D03*
X429260Y485140D02*
D03*
X388620D02*
D03*
X408940Y468548D02*
D03*
X429260Y480060D02*
D03*
X421640D02*
D03*
X368300Y533400D02*
D03*
X391160D02*
D03*
X408940D02*
D03*
X388620Y581660D02*
D03*
X405000Y573836D02*
D03*
X403860Y581660D02*
D03*
X426720D02*
D03*
X454660D02*
D03*
X441960D02*
D03*
X449580D02*
D03*
X413000Y573836D02*
D03*
X441960Y378460D02*
D03*
X447040Y373380D02*
D03*
X454660Y398780D02*
D03*
Y393700D02*
D03*
Y411480D02*
D03*
Y403860D02*
D03*
X447040Y388620D02*
D03*
X438520Y327480D02*
D03*
X480060Y327660D02*
D03*
Y373380D02*
D03*
X348234Y188976D02*
D03*
X206000Y433000D02*
D03*
X214000Y441000D02*
D03*
Y481000D02*
D03*
Y473000D02*
D03*
Y465000D02*
D03*
X206000Y449000D02*
D03*
X214000Y457000D02*
D03*
X206000Y441000D02*
D03*
X214000Y449000D02*
D03*
X276000Y372000D02*
D03*
X127000Y520700D02*
D03*
X161290Y575310D02*
D03*
X212090Y572770D02*
D03*
X396000Y332000D02*
D03*
X406000D02*
D03*
X68580Y299720D02*
D03*
X132080Y561340D02*
D03*
X480450Y245500D02*
D03*
X346000Y432000D02*
D03*
X326000Y412000D02*
D03*
X309880Y485140D02*
D03*
X326898Y458470D02*
D03*
X104140Y426720D02*
D03*
X336042Y528320D02*
D03*
X366000Y422000D02*
D03*
X453000Y526836D02*
D03*
X335280Y533400D02*
D03*
X366000Y432000D02*
D03*
X461000Y526836D02*
D03*
X346000Y412000D02*
D03*
X469000Y526836D02*
D03*
X63500Y269240D02*
D03*
X332740Y236220D02*
D03*
X304800Y485140D02*
D03*
X301000Y526836D02*
D03*
X434340Y485140D02*
D03*
X437000Y526836D02*
D03*
X495300Y533400D02*
D03*
X261620Y546100D02*
D03*
X61214Y12954D02*
D03*
X106680Y134620D02*
D03*
X61722Y24638D02*
D03*
X13208Y476504D02*
D03*
X11176Y484886D02*
D03*
X6858Y486156D02*
D03*
X12700Y529590D02*
D03*
Y492760D02*
D03*
X22860Y541020D02*
D03*
X26670Y537210D02*
D03*
X30480Y541020D02*
D03*
X11430Y537210D02*
D03*
X15240Y541020D02*
D03*
X17780Y524510D02*
D03*
X22860Y519430D02*
D03*
X67310Y403860D02*
D03*
X17780Y176530D02*
D03*
X703580Y406400D02*
D03*
X741426Y297942D02*
D03*
X731520D02*
D03*
X704596Y330962D02*
D03*
X705866Y310896D02*
D03*
X731572Y343610D02*
D03*
X741478D02*
D03*
Y333450D02*
D03*
X731572D02*
D03*
X726492Y353516D02*
D03*
X746558D02*
D03*
X726492Y323544D02*
D03*
X736398D02*
D03*
X746558D02*
D03*
X721412Y333450D02*
D03*
Y343610D02*
D03*
X751638D02*
D03*
X751384Y333450D02*
D03*
X736652Y353262D02*
D03*
X766318Y310642D02*
D03*
X760476D02*
D03*
X716332Y292048D02*
D03*
X568960Y584200D02*
D03*
X586740Y568960D02*
D03*
X581660D02*
D03*
Y584200D02*
D03*
X556260D02*
D03*
X104140Y19050D02*
D03*
X86360Y55880D02*
D03*
X88900Y63500D02*
D03*
X99060Y55880D02*
D03*
X448818Y52832D02*
D03*
X748792Y365760D02*
D03*
X755650Y379730D02*
D03*
X711200D02*
D03*
X879856Y419100D02*
D03*
X840000Y360000D02*
D03*
Y352000D02*
D03*
Y368000D02*
D03*
Y376000D02*
D03*
X792000Y408000D02*
D03*
Y452000D02*
D03*
X878000Y304000D02*
D03*
X840000Y296000D02*
D03*
Y288000D02*
D03*
X792000Y184000D02*
D03*
Y176000D02*
D03*
X832000Y152000D02*
D03*
X879000Y120000D02*
D03*
X792000Y352000D02*
D03*
Y338000D02*
D03*
X736600Y200660D02*
D03*
X692150Y320802D02*
D03*
X792000Y285000D02*
D03*
X661000Y453000D02*
D03*
X651000D02*
D03*
X646000D02*
D03*
X641000D02*
D03*
X595000D02*
D03*
X575000D02*
D03*
X570000D02*
D03*
X556000D02*
D03*
X698500Y406400D02*
D03*
X767080Y379730D02*
D03*
X668000Y426000D02*
D03*
Y416000D02*
D03*
Y396000D02*
D03*
X650000D02*
D03*
X668000Y376000D02*
D03*
X662000D02*
D03*
X656000D02*
D03*
X645000D02*
D03*
X585000Y453000D02*
D03*
X580000D02*
D03*
X840000Y440000D02*
D03*
Y432000D02*
D03*
Y336000D02*
D03*
Y400000D02*
D03*
X788000Y424000D02*
D03*
X840000D02*
D03*
Y416000D02*
D03*
Y384000D02*
D03*
Y392000D02*
D03*
Y408000D02*
D03*
X710000Y228000D02*
D03*
X168910Y320040D02*
D03*
X212000Y290000D02*
D03*
X451104Y229108D02*
D03*
Y223520D02*
D03*
X143510Y302260D02*
D03*
X276000Y322000D02*
D03*
Y312000D02*
D03*
X447294Y219710D02*
D03*
X220000Y290000D02*
D03*
Y274000D02*
D03*
X196000D02*
D03*
X220000Y266000D02*
D03*
X622300Y205740D02*
D03*
X547000Y247000D02*
D03*
X587000D02*
D03*
X607000D02*
D03*
Y242000D02*
D03*
X617000Y247000D02*
D03*
Y242000D02*
D03*
X626000Y247000D02*
D03*
Y242000D02*
D03*
X794000Y115000D02*
D03*
Y140000D02*
D03*
X744474Y122174D02*
D03*
X751840Y119380D02*
D03*
X547000Y242000D02*
D03*
X549000Y342000D02*
D03*
X628000D02*
D03*
X650000Y376000D02*
D03*
X623000D02*
D03*
X628000Y371000D02*
D03*
X726000Y188000D02*
D03*
X575000Y329000D02*
D03*
X721360Y35560D02*
D03*
X798000Y61000D02*
D03*
X728980Y88900D02*
D03*
X771000Y65000D02*
D03*
X642000Y385000D02*
D03*
X736600Y88900D02*
D03*
X783000Y65000D02*
D03*
X806000Y61000D02*
D03*
X396000Y322000D02*
D03*
X840000Y216000D02*
D03*
Y208000D02*
D03*
X832000Y216000D02*
D03*
Y208000D02*
D03*
X17780Y251460D02*
D03*
X12700Y257810D02*
D03*
X17780Y241300D02*
D03*
X12700Y246380D02*
D03*
X17780Y236220D02*
D03*
X12700Y205740D02*
D03*
X17780Y215900D02*
D03*
Y184150D02*
D03*
X17526Y97806D02*
D03*
X20320Y73660D02*
D03*
Y78740D02*
D03*
Y375920D02*
D03*
Y360680D02*
D03*
Y351790D02*
D03*
Y344170D02*
D03*
Y335280D02*
D03*
Y327660D02*
D03*
Y320040D02*
D03*
Y312700D02*
D03*
Y285750D02*
D03*
Y383540D02*
D03*
Y398780D02*
D03*
Y368300D02*
D03*
Y391160D02*
D03*
X67310Y416560D02*
D03*
X58420D02*
D03*
Y436880D02*
D03*
X66040D02*
D03*
X58420Y429260D02*
D03*
X66040Y426720D02*
D03*
X58420Y424180D02*
D03*
X111760Y289560D02*
D03*
X106680D02*
D03*
X840740Y448310D02*
D03*
X683260Y205740D02*
D03*
X688340D02*
D03*
X793000Y424000D02*
D03*
X792998Y415999D02*
D03*
X791998Y399999D02*
D03*
X792000Y392000D02*
D03*
X786000Y378000D02*
D03*
X791998Y439999D02*
D03*
Y431999D02*
D03*
X794606Y124000D02*
D03*
X326000Y422000D02*
D03*
X336000D02*
D03*
X405699Y421999D02*
D03*
Y401999D02*
D03*
Y381999D02*
D03*
Y411999D02*
D03*
Y391999D02*
D03*
X447040Y341000D02*
D03*
Y353060D02*
D03*
Y358140D02*
D03*
Y348234D02*
D03*
X366000Y322000D02*
D03*
D92*
X133350Y207010D02*
D03*
X130770Y326380D02*
D03*
X17780Y307340D02*
D03*
X485000Y526836D02*
D03*
X834000Y340000D02*
D03*
X749300Y210820D02*
D03*
X66040Y228600D02*
D03*
X17783Y264211D02*
D03*
X62230Y500380D02*
D03*
X834898Y165862D02*
D03*
X549910Y171450D02*
D03*
X553720Y179070D02*
D03*
X881380Y464820D02*
D03*
Y472440D02*
D03*
Y480060D02*
D03*
X652768Y93992D02*
D03*
X665988Y82550D02*
D03*
X670560Y17780D02*
D03*
X124460Y326390D02*
D03*
X135890Y368300D02*
D03*
Y391160D02*
D03*
Y383540D02*
D03*
Y375920D02*
D03*
X66040Y363730D02*
D03*
X109220Y213360D02*
D03*
X305250Y228034D02*
D03*
X109220Y182880D02*
D03*
X582930Y113030D02*
D03*
X681990Y55118D02*
D03*
X628142Y73914D02*
D03*
X640080Y17780D02*
D03*
X662940D02*
D03*
X622300D02*
D03*
X586740Y35560D02*
D03*
X581660Y25400D02*
D03*
X586740Y55880D02*
D03*
X241046Y116332D02*
D03*
X225552Y116586D02*
D03*
X212090Y558800D02*
D03*
X203200D02*
D03*
X219710Y549910D02*
D03*
X580390Y45720D02*
D03*
X546100Y69850D02*
D03*
X541020Y114300D02*
D03*
X449580Y200660D02*
D03*
X464820Y154940D02*
D03*
X431800Y143510D02*
D03*
X513080Y114300D02*
D03*
X501650Y116840D02*
D03*
X524510Y114230D02*
D03*
X414020Y160020D02*
D03*
X548640Y34290D02*
D03*
X505460Y7620D02*
D03*
X486410D02*
D03*
X533400Y82550D02*
D03*
X500380D02*
D03*
X574040Y146050D02*
D03*
X567690Y137160D02*
D03*
X562610Y179070D02*
D03*
X502920Y135890D02*
D03*
Y161290D02*
D03*
X574040Y168910D02*
D03*
X528320Y154940D02*
D03*
Y135890D02*
D03*
X472440Y154940D02*
D03*
X454660Y90170D02*
D03*
X370840Y213360D02*
D03*
X60960Y190500D02*
D03*
X109220Y220980D02*
D03*
X114300Y231140D02*
D03*
Y238760D02*
D03*
Y256540D02*
D03*
Y264160D02*
D03*
X109220Y152400D02*
D03*
X17780Y223520D02*
D03*
X358140Y187960D02*
D03*
X396240Y160020D02*
D03*
X406400D02*
D03*
X365760D02*
D03*
X411480Y88900D02*
D03*
X416560Y78740D02*
D03*
X408940Y76200D02*
D03*
X393700Y129540D02*
D03*
X401320Y83820D02*
D03*
X330200Y106680D02*
D03*
X360680Y76200D02*
D03*
X280852Y182952D02*
D03*
X15240Y142240D02*
D03*
X312420Y25400D02*
D03*
X320040Y12700D02*
D03*
X284480Y15240D02*
D03*
X299720Y50800D02*
D03*
X292100Y96520D02*
D03*
X299720Y99060D02*
D03*
Y109220D02*
D03*
X322580Y114300D02*
D03*
Y96520D02*
D03*
X149860Y127000D02*
D03*
X60960Y292100D02*
D03*
Y307340D02*
D03*
X133350Y419100D02*
D03*
X118110D02*
D03*
X60198Y363728D02*
D03*
X485000Y573836D02*
D03*
X552958Y551180D02*
D03*
X553720Y513080D02*
D03*
X66040Y464820D02*
D03*
X17780Y152400D02*
D03*
X106680Y81280D02*
D03*
X109220Y109220D02*
D03*
Y190500D02*
D03*
X293000Y573836D02*
D03*
X277000D02*
D03*
X269000D02*
D03*
X279908Y201168D02*
D03*
X375158Y239522D02*
D03*
X207264Y113284D02*
D03*
X58420Y548640D02*
D03*
Y556260D02*
D03*
X78740Y566420D02*
D03*
X58420Y581660D02*
D03*
X48260Y534670D02*
D03*
Y521970D02*
D03*
Y515620D02*
D03*
X134620Y527050D02*
D03*
X144780D02*
D03*
X153670D02*
D03*
X196850Y513080D02*
D03*
Y506730D02*
D03*
Y500380D02*
D03*
X263652Y380746D02*
D03*
X195580Y558800D02*
D03*
X187960D02*
D03*
X158750Y511810D02*
D03*
X187960Y549910D02*
D03*
X203200D02*
D03*
X195580D02*
D03*
X219710Y558800D02*
D03*
X17780Y464820D02*
D03*
X153670Y552450D02*
D03*
X144780D02*
D03*
X134620D02*
D03*
X104140Y556260D02*
D03*
X66040Y480060D02*
D03*
X59690Y455930D02*
D03*
X66040D02*
D03*
Y448310D02*
D03*
Y472440D02*
D03*
X125730Y419100D02*
D03*
X110490D02*
D03*
X293000Y526836D02*
D03*
X285000D02*
D03*
X269000D02*
D03*
X477000D02*
D03*
X212090Y549910D02*
D03*
X285000Y573836D02*
D03*
X58420Y589280D02*
D03*
Y574040D02*
D03*
X17780Y480060D02*
D03*
Y472440D02*
D03*
X48260Y528320D02*
D03*
X96520Y563880D02*
D03*
Y556260D02*
D03*
X277000Y526836D02*
D03*
X881380Y457200D02*
D03*
X833120Y464820D02*
D03*
Y472440D02*
D03*
Y480060D02*
D03*
X444754Y185928D02*
D03*
X745490Y278638D02*
D03*
X764032Y292354D02*
D03*
X736600Y441960D02*
D03*
X784860D02*
D03*
X777240Y388620D02*
D03*
Y457200D02*
D03*
Y480060D02*
D03*
X880000Y344000D02*
D03*
Y176000D02*
D03*
X792000Y88000D02*
D03*
X840000D02*
D03*
X783000Y300000D02*
D03*
X782574Y311150D02*
D03*
X726440Y419100D02*
D03*
X833120Y449580D02*
D03*
Y457200D02*
D03*
X736600Y419100D02*
D03*
X721360Y27940D02*
D03*
X17780Y86360D02*
D03*
X15240Y134620D02*
D03*
Y114300D02*
D03*
X17780Y292100D02*
D03*
X59690Y448310D02*
D03*
X60198Y390144D02*
D03*
X66040D02*
D03*
X114300Y279400D02*
D03*
X783998Y418999D02*
D03*
D93*
X25000Y25000D02*
D03*
Y575000D02*
D03*
X875000Y25000D02*
D03*
D109*
X501000Y554586D02*
D03*
X493000D02*
D03*
X485000D02*
D03*
X477000D02*
D03*
X469000D02*
D03*
X461000D02*
D03*
X453000D02*
D03*
X445000D02*
D03*
X437000D02*
D03*
X429000D02*
D03*
X421000D02*
D03*
X413000D02*
D03*
X405000D02*
D03*
X397000D02*
D03*
X389000D02*
D03*
X381000D02*
D03*
X373000D02*
D03*
X365000D02*
D03*
X357000D02*
D03*
X349000D02*
D03*
X341000D02*
D03*
X333000D02*
D03*
X325000D02*
D03*
X317000D02*
D03*
X309000D02*
D03*
X301000D02*
D03*
X293000D02*
D03*
X285000D02*
D03*
X277000D02*
D03*
X269000D02*
D03*
X501000Y507586D02*
D03*
X493000D02*
D03*
X485000D02*
D03*
X477000D02*
D03*
X469000D02*
D03*
X461000D02*
D03*
X453000D02*
D03*
X445000D02*
D03*
X437000D02*
D03*
X429000D02*
D03*
X421000D02*
D03*
X413000D02*
D03*
X405000D02*
D03*
X397000D02*
D03*
X389000D02*
D03*
X381000D02*
D03*
X373000D02*
D03*
X365000D02*
D03*
X357000D02*
D03*
X349000D02*
D03*
X341000D02*
D03*
X333000D02*
D03*
X325000D02*
D03*
X317000D02*
D03*
X309000D02*
D03*
X301000D02*
D03*
X293000D02*
D03*
X285000D02*
D03*
X277000D02*
D03*
D110*
X269000D02*
D03*
D111*
X568000Y27750D02*
D03*
Y46250D02*
D03*
X599000D02*
D03*
Y27750D02*
D03*
D112*
X675000Y174000D02*
D03*
X633000D02*
D03*
X446368Y243586D02*
D03*
X404368D02*
D03*
D113*
X303890Y25400D02*
D03*
X285390D02*
D03*
D114*
X859586Y88000D02*
D03*
Y96000D02*
D03*
Y104000D02*
D03*
Y112000D02*
D03*
Y120000D02*
D03*
Y128000D02*
D03*
Y136000D02*
D03*
Y144000D02*
D03*
Y152000D02*
D03*
Y160000D02*
D03*
Y168000D02*
D03*
Y176000D02*
D03*
Y184000D02*
D03*
Y192000D02*
D03*
Y200000D02*
D03*
Y208000D02*
D03*
Y216000D02*
D03*
Y224000D02*
D03*
Y232000D02*
D03*
Y240000D02*
D03*
Y248000D02*
D03*
Y256000D02*
D03*
Y264000D02*
D03*
Y272000D02*
D03*
Y280000D02*
D03*
Y288000D02*
D03*
Y296000D02*
D03*
Y304000D02*
D03*
Y312000D02*
D03*
Y320000D02*
D03*
Y328000D02*
D03*
Y336000D02*
D03*
Y344000D02*
D03*
Y352000D02*
D03*
Y360000D02*
D03*
Y368000D02*
D03*
Y376000D02*
D03*
Y384000D02*
D03*
Y392000D02*
D03*
Y400000D02*
D03*
Y408000D02*
D03*
Y416000D02*
D03*
Y424000D02*
D03*
Y432000D02*
D03*
Y440000D02*
D03*
Y448000D02*
D03*
Y456000D02*
D03*
Y464000D02*
D03*
Y472000D02*
D03*
Y480000D02*
D03*
X812586Y88000D02*
D03*
Y96000D02*
D03*
Y104000D02*
D03*
Y112000D02*
D03*
Y120000D02*
D03*
Y128000D02*
D03*
Y136000D02*
D03*
Y144000D02*
D03*
Y152000D02*
D03*
Y160000D02*
D03*
Y168000D02*
D03*
Y176000D02*
D03*
Y184000D02*
D03*
Y192000D02*
D03*
Y200000D02*
D03*
Y208000D02*
D03*
Y216000D02*
D03*
Y224000D02*
D03*
Y232000D02*
D03*
Y240000D02*
D03*
Y248000D02*
D03*
Y256000D02*
D03*
Y264000D02*
D03*
Y272000D02*
D03*
Y280000D02*
D03*
Y288000D02*
D03*
Y296000D02*
D03*
Y304000D02*
D03*
Y312000D02*
D03*
Y320000D02*
D03*
Y328000D02*
D03*
Y336000D02*
D03*
Y344000D02*
D03*
Y352000D02*
D03*
Y360000D02*
D03*
Y368000D02*
D03*
Y376000D02*
D03*
Y384000D02*
D03*
Y392000D02*
D03*
Y400000D02*
D03*
Y408000D02*
D03*
Y416000D02*
D03*
Y424000D02*
D03*
Y432000D02*
D03*
Y440000D02*
D03*
Y448000D02*
D03*
Y456000D02*
D03*
Y464000D02*
D03*
Y472000D02*
D03*
X86500Y88000D02*
D03*
Y96000D02*
D03*
Y104000D02*
D03*
Y112000D02*
D03*
Y120000D02*
D03*
Y128000D02*
D03*
Y136000D02*
D03*
Y144000D02*
D03*
Y152000D02*
D03*
Y160000D02*
D03*
Y168000D02*
D03*
Y176000D02*
D03*
Y184000D02*
D03*
Y192000D02*
D03*
Y200000D02*
D03*
Y208000D02*
D03*
Y216000D02*
D03*
Y224000D02*
D03*
Y232000D02*
D03*
Y240000D02*
D03*
Y248000D02*
D03*
Y256000D02*
D03*
Y264000D02*
D03*
Y272000D02*
D03*
Y280000D02*
D03*
Y288000D02*
D03*
Y296000D02*
D03*
Y304000D02*
D03*
Y312000D02*
D03*
Y320000D02*
D03*
Y328000D02*
D03*
Y336000D02*
D03*
Y344000D02*
D03*
Y352000D02*
D03*
Y360000D02*
D03*
Y368000D02*
D03*
Y376000D02*
D03*
Y384000D02*
D03*
Y392000D02*
D03*
Y400000D02*
D03*
Y408000D02*
D03*
Y416000D02*
D03*
Y424000D02*
D03*
Y432000D02*
D03*
Y440000D02*
D03*
Y448000D02*
D03*
Y456000D02*
D03*
Y464000D02*
D03*
Y472000D02*
D03*
Y480000D02*
D03*
X39500Y88000D02*
D03*
Y96000D02*
D03*
Y104000D02*
D03*
Y112000D02*
D03*
Y120000D02*
D03*
Y128000D02*
D03*
Y136000D02*
D03*
Y144000D02*
D03*
Y152000D02*
D03*
Y160000D02*
D03*
Y168000D02*
D03*
Y176000D02*
D03*
Y184000D02*
D03*
Y192000D02*
D03*
Y200000D02*
D03*
Y208000D02*
D03*
Y216000D02*
D03*
Y224000D02*
D03*
Y232000D02*
D03*
Y240000D02*
D03*
Y248000D02*
D03*
Y256000D02*
D03*
Y264000D02*
D03*
Y272000D02*
D03*
Y280000D02*
D03*
Y288000D02*
D03*
Y296000D02*
D03*
Y304000D02*
D03*
Y312000D02*
D03*
Y320000D02*
D03*
Y328000D02*
D03*
Y336000D02*
D03*
Y344000D02*
D03*
Y352000D02*
D03*
Y360000D02*
D03*
Y368000D02*
D03*
Y376000D02*
D03*
Y384000D02*
D03*
Y392000D02*
D03*
Y400000D02*
D03*
Y408000D02*
D03*
Y416000D02*
D03*
Y424000D02*
D03*
Y432000D02*
D03*
Y440000D02*
D03*
Y448000D02*
D03*
Y456000D02*
D03*
Y464000D02*
D03*
Y472000D02*
D03*
D115*
X812586Y480000D02*
D03*
X39500D02*
D03*
D116*
X66040Y537180D02*
D03*
Y565180D02*
D03*
D117*
X95150Y19050D02*
D03*
D118*
X73700Y25150D02*
D03*
Y12950D02*
D03*
D119*
X448761Y64109D02*
D03*
X437697Y64274D02*
D03*
X426697Y62274D02*
D03*
X415697Y64274D02*
D03*
X404697Y62274D02*
D03*
X393697Y64274D02*
D03*
X382697Y68274D02*
D03*
X371697Y64274D02*
D03*
D120*
X456500Y36000D02*
D03*
X325000Y26000D02*
D03*
D121*
X383597Y168097D02*
D03*
X440597D02*
D03*
D122*
X682000Y46500D02*
D03*
D123*
Y40000D02*
D03*
Y33500D02*
D03*
Y27000D02*
D03*
X652000D02*
D03*
Y33500D02*
D03*
Y40000D02*
D03*
Y46500D02*
D03*
D124*
X667000Y36750D02*
D03*
D125*
X557000Y578000D02*
D03*
Y564000D02*
D03*
X581000D02*
D03*
Y578000D02*
D03*
X569000D02*
D03*
Y564000D02*
D03*
X593000D02*
D03*
Y578000D02*
D03*
D126*
X104000Y578000D02*
D03*
Y533000D02*
D03*
X185000Y578000D02*
D03*
Y533000D02*
D03*
D127*
X660500Y444250D02*
D03*
X655500D02*
D03*
X650500D02*
D03*
X645500D02*
D03*
X640500D02*
D03*
X635500D02*
D03*
X630500D02*
D03*
X625500D02*
D03*
X620500D02*
D03*
X615500D02*
D03*
X610500D02*
D03*
X605500D02*
D03*
X600500D02*
D03*
X595500D02*
D03*
X590500D02*
D03*
X585500D02*
D03*
X580500D02*
D03*
X575500D02*
D03*
X570500D02*
D03*
X565500D02*
D03*
X560500D02*
D03*
X555500D02*
D03*
X550500D02*
D03*
X545500D02*
D03*
X540500D02*
D03*
X535500D02*
D03*
X530500D02*
D03*
X525500D02*
D03*
X520500D02*
D03*
X515500D02*
D03*
X510500D02*
D03*
X505500D02*
D03*
X500500D02*
D03*
X495500D02*
D03*
X490500D02*
D03*
X485500D02*
D03*
Y231750D02*
D03*
X490500D02*
D03*
X495500D02*
D03*
X500500D02*
D03*
X505500D02*
D03*
X510500D02*
D03*
X515500D02*
D03*
X520500D02*
D03*
X525500D02*
D03*
X530500D02*
D03*
X535500D02*
D03*
X540500D02*
D03*
X545500D02*
D03*
X550500D02*
D03*
X555500D02*
D03*
X560500D02*
D03*
X565500D02*
D03*
X570500D02*
D03*
X575500D02*
D03*
X580500D02*
D03*
X585500D02*
D03*
X590500D02*
D03*
X595500D02*
D03*
X600500D02*
D03*
X605500D02*
D03*
X610500D02*
D03*
X615500D02*
D03*
X620500D02*
D03*
X625500D02*
D03*
X630500D02*
D03*
X635500D02*
D03*
X640500D02*
D03*
X645500D02*
D03*
X650500D02*
D03*
X655500D02*
D03*
X660500D02*
D03*
D128*
X466750Y425500D02*
D03*
Y420500D02*
D03*
Y415500D02*
D03*
Y410500D02*
D03*
Y405500D02*
D03*
Y400500D02*
D03*
Y395500D02*
D03*
Y390500D02*
D03*
Y385500D02*
D03*
Y380500D02*
D03*
Y375500D02*
D03*
Y370500D02*
D03*
Y365500D02*
D03*
Y360500D02*
D03*
Y355500D02*
D03*
Y350500D02*
D03*
Y345500D02*
D03*
Y340500D02*
D03*
Y335500D02*
D03*
Y330500D02*
D03*
Y325500D02*
D03*
Y320500D02*
D03*
Y315500D02*
D03*
Y310500D02*
D03*
Y305500D02*
D03*
Y300500D02*
D03*
Y295500D02*
D03*
Y290500D02*
D03*
Y285500D02*
D03*
Y280500D02*
D03*
Y275500D02*
D03*
Y270500D02*
D03*
Y265500D02*
D03*
Y260500D02*
D03*
Y255500D02*
D03*
Y250500D02*
D03*
X679250D02*
D03*
Y255500D02*
D03*
Y260500D02*
D03*
Y265500D02*
D03*
Y270500D02*
D03*
Y275500D02*
D03*
Y280500D02*
D03*
Y285500D02*
D03*
Y290500D02*
D03*
Y295500D02*
D03*
Y300500D02*
D03*
Y305500D02*
D03*
Y310500D02*
D03*
Y315500D02*
D03*
Y320500D02*
D03*
Y325500D02*
D03*
Y330500D02*
D03*
Y335500D02*
D03*
Y340500D02*
D03*
Y345500D02*
D03*
Y350500D02*
D03*
Y355500D02*
D03*
Y360500D02*
D03*
Y365500D02*
D03*
Y370500D02*
D03*
Y375500D02*
D03*
Y380500D02*
D03*
Y385500D02*
D03*
Y390500D02*
D03*
Y395500D02*
D03*
Y400500D02*
D03*
Y405500D02*
D03*
Y410500D02*
D03*
Y415500D02*
D03*
Y420500D02*
D03*
D129*
Y425500D02*
D03*
D130*
X145997Y434998D02*
X147125Y436125D01*
X154875D01*
X158000Y433000D01*
X147125Y438875D02*
X155875D01*
X142000Y444000D02*
X147125Y438875D01*
X142000Y444000D02*
Y445000D01*
X155875Y438875D02*
X158000Y441000D01*
X142000Y431000D02*
X145997Y434998D01*
M02*
