M48
;Layer_Color=9474304
;FILE_FORMAT=4:4
METRIC,LZ
;TYPE=PLATED
T1F00S00C0.1500
T2F00S00C0.3000
T3F00S00C0.9000
T4F00S00C1.0000
T5F00S00C1.1000
T7F00S00C1.7000
T8F00S00C2.1000
;TYPE=NON_PLATED
T9F00S00C0.7000
T10F00S00C0.8000
T11F00S00C1.0000
T12F00S00C1.2000
T13F00S00C1.3000
T14F00S00C2.1000
T15F00S00C3.2500
%
T01
X00061214Y00012954
X00061722Y00024638
X00065278Y00036322
X000635Y000635
X0007112Y0008128
X000889Y000635
X0008636Y0005588
X0009906
X0009271Y0003937
X0010414Y0001905
X0010668Y0012192
Y0012954
Y0013462
X0011684Y001905
X0011938Y0021717
X001143
X00121Y00233
X0012319Y0026416
X001143Y0027178
X0011176Y0028956
X0010668
X0013589Y0028829
Y0028321
Y0027813
Y0027305
X00156Y00274
X00164
Y00266
Y00258
X00156
Y00266
Y0029
X00171958Y00290322
X0006198Y0028079
X00058674Y00276352
X000635Y0026924
Y0026416
X00063158Y0022334
X00063758Y00218436
Y002135
X00063Y00209
X00066Y00203
X00059
X00057994Y00213362
X0001778Y002159
X000127Y0020574
X0001778Y0019812
Y001905
Y0018415
Y0017653
Y0016002
X00017023Y00127347
X00017018Y00122444
X00017523Y00102708
X00017526Y00097806
X0002032Y0007874
Y0007366
X00034036Y000635
X00059Y00165
X000635Y0017018
X0006858Y001651
X0006604Y0016002
X0001778Y0023622
Y002413
Y0025146
X0001252Y00251281
X000127Y0024638
Y0025781
X00019339Y0025846
X00017Y00274
Y0028
X0002032Y0028575
X00196Y00274
Y00266
X00204
X00212
X0022
Y00258
Y00274
Y0029
X00212
X00276Y00282
X00286
X00296
X00306
X00316
X00326
X00336
X00346
X00366
X00376
X00386
X00396
X00406
X00416
X00427
X00436
X0043699Y00260178
X0043038Y00255674
X0042545Y0025654
Y0025146
X0042037Y00255778
X00413999Y00252999
Y00262899
X00410972Y0027305
X00399796Y00274066
X00387096Y00253238
X00383286Y0023495
X003878Y002122
X00402Y00213
X00418254Y00228092
X00423161Y00228093
X00446532Y00226822
X00451104Y00229108
Y0022352
X00451Y00216408
X00447294Y0021971
X00439Y00200856
Y00196
X00434594Y00190246
X00426466Y00185674
X0043942Y0015748
X004572Y0013335
X0048387Y0013081
Y0013589
Y0014097
Y0014605
Y0016129
Y0016764
X00498094Y00183134
X00503428
X00508508
X00513334
X00518414
X00528574Y0018288
X005334Y00183134
X0052197Y0020193
X00515822Y00200458
X00513Y00204
X00516999Y0021
X00503Y00218
X00484
X00465Y00206
X00464Y00239
X0048045Y002455
X00495999Y00255
X00507Y00247
Y00242
X00517
Y00247
X00527
Y00242
X00537
Y00247
X00547
Y00242
X00557
Y00247
X00563Y00248
X00568
X00577Y00247
Y00242
X00586499Y00241999
X00587Y00247
X00573499Y00273899
X00545338Y00275082
X005443Y00288194
X0052Y00285
Y0028
Y00275
Y0027
Y00265
Y0026
Y00255
X00512Y0026
X00515Y0029
X00457Y00284
X00436999Y00247999
X00352026Y00237236
X00352999Y00224
X00353999Y00218
X00354999Y00209
X00354254Y00201466
X00353999Y00192
X00348234Y00188976
X0033528Y0020066
Y0021336
X0032693Y0021853
X0031545Y0021848
X0031496Y0020066
X0030734Y00192532
X0027686Y00177895
X0027051Y001778
X0032512Y001397
X0035433Y0013589
X0037592Y0015494
X0037338Y0016002
X0038354Y0015748
X0037973Y00201
X0033782Y0023622
X0033274
X0032766
X0032258
X003175
X00312388
X00368058Y00103632
X00372999Y001036
X00381Y0010414
X00382778Y0004826
X003937Y00044958
X00415798Y00044704
X00446786Y00047244
X00448818Y00052832
X0045085Y000254
X00371856Y00051816
X0048006Y0011176
X0049022Y0011684
X0050165Y0010033
Y0009525
X0050927Y0008382
X0052451Y0008128
X00549656Y00131318
Y0014097
Y00145796
X00549402Y0015113
X00548894Y0015621
X00565912Y00123444
X00567Y00213
X00559
X00623999Y002131
X00631999Y002133
X006223Y0020574
X006477
X0065278
X0065786
X0066294
X00669499Y00206
X0068326Y0020574
X0068834
X0070612Y0018796
X00726Y00188
X007366Y0020066
X00721868Y00216916
X0071Y00228
X00688Y00242
X00671Y00262
Y00275
Y0028
Y00285
Y0029
X00661Y00281
X00657Y00284
X00653Y00281
X0065Y00286
X006281Y002885
X00627888Y0027178
X00626Y00247
Y00242
X00617
Y00247
X00607
Y00242
X00597
Y00247
X0060071Y0026162
X00597916Y00273812
X00592099Y00273599
X00658Y00258
Y00251
X00658799Y002138
X00653Y00214
X00656Y00185
X0066548Y0017399
X0064262
X00642Y00149
X0064262Y0013589
X00675Y00136
X0070612Y0013208
Y00127
Y0012192
Y0011684
X0071374Y0012192
X00744474Y00122174
X0075184Y0011938
X0074434Y001345
X00773938Y00137414
X00786384Y00135636
X00794Y0014
X00794606Y00124
X00794Y00115
X00777Y00108
X00782574Y00098044
X00773684Y00081788
X00771Y00065
X00783
X00798Y00061
X00806
X0083439Y0005969
X0084582
X0085852
X0086995
X0084709Y0003937
X0079502Y0003556
X0077978
X0076454
X0072136
Y0005334
X0072898Y000889
X007366
X0074422
X0075184
X0069342Y0010414
X00687578Y00103378
X0066802
X00658Y00103238
X00639318Y00103124
X00633Y00103156
X0061468Y0010414
X0061214Y0009652
X00591566Y00092202
X0060452Y001143
Y0012192
Y00127
Y0013208
Y0013716
Y0014224
Y0014732
Y0015748
X00592Y00152
X006Y00183
X0060452Y0018288
X0062865Y0008636
X0070612Y0015748
X00792Y00155
Y00176
Y00184
Y00194
X00832Y00192
X00839297Y00191706
X00835914Y00196088
X0083197Y0020144
X00832Y00208
X0084
X008406Y00202198
X0084Y00216
X00832
Y00224
X0084
Y00232
X00832
Y0024
X00833998Y00246
X00834Y00252
X0084Y00256
Y00248
Y0024
Y00275
Y00281
X00834
Y00275
Y00287
X0084Y00288
X00878Y00276
Y00264
Y00252
X008793Y001851
X00840994Y00166624
X0084Y0016
X00839978Y00152146
X00837696Y00148062
X0084Y00144
X00839978Y0013716
X0083343Y001428
X00832Y00152
Y0016
Y00132
X00832104Y00108712
X0083312Y0010414
X0084Y00104
X00839724Y00110236
X0084Y00096
X00831998Y00095
X00879Y0012
X0087884Y00125984
X00792Y00252
Y00264
Y00275
Y00285
X0075946Y0024511
X0074549
X00741426Y00297942
X0073152
X00716332Y00292048
X00707318Y00291
X00702818
X00705866Y00310896
X00704596Y00330962
Y00345948
X0068961Y0034671
X00692Y00356
X00691Y00371
X00702Y0038
X0070576Y00383
X007112Y0037973
X0072136Y00379476
X00732282Y00365506
X00736652Y00353262
X00746558Y00353516
X00748792Y0036576
X0076396Y00366338
X00766Y00362
X0076388Y00357752
X00766046Y00353554
X00765091Y00344652
X00760327Y00344572
X00751638Y0034361
X00741478
X00731572
Y0033345
X00741478
X00751384
X00746558Y00323544
X00736398
X00726492
X00721412Y0033345
Y0034361
X00726492Y00353516
X0076839Y0034145
X00772547Y00343671
X00786Y00348
X00785876Y00356108
X00791972Y0035941
X00792Y00352
Y00344
Y00338
X0079284Y0033099
X0078105Y0032893
X00779752Y00321754
X0078105Y00317246
X00766318Y00310642
X00760476
X0075565Y0037973
X0076708
X0076835Y0039497
Y0040005
X0075438
Y0039497
X00792Y00392
X00791718Y00384302
X00791972Y00376682
X00786Y00378
X00792Y00368
X00791998Y00399999
X00792Y00408
X00792998Y00415999
X00793Y00424
X00788
X00791998Y00431999
Y00439999
X00792Y00452
X0078994Y004572
Y0046355
Y004699
X0078359
X0077724
X0077089
Y0047625
X0075311
Y004699
X0074676
X0074041
Y004826
X0073406
X0072771
X0072136
X0071501
X0070866
X0070231
X0069596
X0068961
X0068326
X0067691
X0067056
X0066421
X0065786
X0065151
X0064516
X0063881
X0063246
X0062611
X0061976
X0061341
X00617Y00463
X00609Y00463
X00605Y00453
X006
X00595
X0059
X00621
X00626
X00631
X00636
X00641
X00646
X00651
X00656
X00661
X00662Y00426
X00668
Y00416
X00662
Y00396
X00656
X0065
X00668
Y00376
X00662
X00656
X0065
X00645
X00642Y00385
X00639Y00404
X00639568Y00411
X00635831Y00416999
X0063Y00417
X00623941Y00412867
X0062558Y004073
X00625094Y00397764
X00623Y00376
X00628Y00371
X00627Y00361
X00628Y00342
X006477Y00349758
X0065Y00335
X00664Y00333
X00669
X00663702Y00347218
X00688Y00336
Y0033
X0069215Y00320802
X00671Y00295
X00600012Y00298866
X00597662Y00303022
X00597408Y0031115
X00593512Y00292694
X00600456Y00335026
X00598Y00341
X006Y00348033
X00592Y00357
X00597Y00387
X006Y00391
X00599694Y00416814
X006985Y004064
X0070358
X0075311Y0045847
Y004826
X0074676
X0078359
X0078994
Y0047625
X0084074Y0044831
X0084Y0044
Y00432
Y00424
Y00416
Y00408
Y004
Y00392
Y00384
Y00376
Y00368
Y0036
Y00352
Y00336
Y00331
X00833
Y00322
X0084
Y00313
X00832998Y00312999
X00835998Y00316999
X00836Y00293
X0084Y00296
X00878Y00292
Y00304
X00879856Y004191
X0060706Y005334
Y0054356
X0058928
Y0053848
Y0052578
Y005207
X0059182Y005842
X0058166
X0056896
X0055626
X0056642Y0056896
X0058166
X0058674
X0056Y00559
X0056896Y0054356
Y0053848
X005688Y0052578
X0056912Y005207
X0057Y00453
X00575
X0058
X00585
X00565
X0056078Y0045594
X00556Y00453
X00552Y00463
X00543Y00463
X0054Y00453
X00535
X0053
X00525
X0052
X00515
X0051
X00505
X005
X00495
X0049
X00485
X00486Y00427
Y00421
X00478
Y00427
Y00414
Y00407
X0045466Y0040386
Y0039878
Y003937
X0044704
Y0038862
Y00383286
Y0037846
X0044196
X00436Y00382001
Y00392001
Y00402
Y00412
Y00422
X00426
Y00432
X00416
X00406
Y00442
X00416
X00426
X00436
X00435999Y00432999
X00442999Y00434999
X00443Y00446
X0045
X0046Y00442982
X004572Y0045974
X00457Y00485
X0044958Y0048514
X004445
X0043942
X0043434
X0042926
Y0048006
X0042164
Y0048514
X00416737Y00484963
X0041656Y0048006
X0040894Y0048514
X00399Y00485
X004Y00476
X00389Y00477
X0038862Y0048514
X00382Y00485
X00381Y0048
X00372999Y00485999
X00367999
X00363349Y0048514
X00355999Y00484999
X0034798Y0048514
X00340999Y00485999
X00329999
X0032258Y0048514
X0031496
X0030988
X003048
X0032Y00479
Y00471
X0033274Y004699
X00327Y00463
X00326898Y0045847
X00338328Y00462026
X00351282Y004699
X00346Y00442
X00336
X00326
Y00432
X00336
X00346
Y00422
Y00412
X00336
Y00402
Y00392001
X00326
Y00382001
X00336
X00346
Y00392001
Y00402
X00326
X00316
Y00412
Y00422
Y00432
Y00442
X00296
X00286
X00276
Y00432
Y00422
Y00412
X00286
X00296
X00306
Y00422
X00296
X00286
Y00432
X00296
Y00402
X00286
X00276
Y00392001
Y00382001
X00286
Y00392001
X00296
Y00382001
X00306
Y00392001
Y00402
X00316Y00392001
Y00382001
Y00372
X00326
X00336
X00346
X00366
X00376
X00386
X00396
X00406
X00416
X00426
X00436
X0044704Y0037338
Y0035814
Y0035306
Y00348234
Y00341
X00436Y00342
X00426
X00416
Y00352
X00406
X00406146Y00347472
X00406Y00342
X00396
X00386
Y00352
X00396
X00376
Y00342
X00366
Y00332
X00376
Y00322
X00386
Y00312
Y00302
Y00292
X00376
X00366
Y00302
X00376
Y00312
X00366
Y00322
X0034575Y0032225
X00346Y00332
Y00342
X00336
X00326
X00316
X00306
X00296
X00286
Y00332
X00276
Y00342
Y00352
X00286
X00296
X00306
X00316
X00326
X00336
X00346
X00365999Y00352099
X00366Y00382001
Y00392001
Y00402
Y00412
X00376
X00386
Y00402
Y00392001
X00396
X00405699Y00391999
Y00401999
X00396Y00402
Y00412
X00405699Y00411999
Y00421999
X00396Y00422
X00386
Y00432
Y00442
X00396
Y00432
X00376
Y00422
X00366
Y00432
Y00442
X0036Y00444
X00371999Y00444999
X00375599Y00441999
X00376Y00402
Y00392001
Y00382001
X00386
X00396
X00405699Y00381999
X00416306Y00382016
X00426Y00382001
Y00392001
X00416
Y00402
Y00412
Y00422
X00426Y00412
Y00402
X0044705Y0040132
X0045466Y0041148
X0044704Y004191
X00446999Y00426999
X00433578Y004572
X00420878Y00460756
X0040894Y00468548
X00413Y00526836
X00421
X00429Y00533
X00437Y00526836
X00445
X00453
X00461
X00469
X00493
X004953Y005334
X0050038
X0050546
X00502Y00527
X00489Y00534
X00493Y00573836
X00501Y00574
X00511302Y00563372
X00477Y00573836
X00469
X00461
X00455Y00574
X0045466Y0058166
X0044958
X0044196
X0043434
X0042672
X00418Y00583
X00420878Y00573786
X00413Y00573836
X00405
X00397
X00389
X00381
X00373
X00365
X00357
X00349
X00341
X00333
X00325
X00317
X00309
X00301
Y00526836
X00309
X00317
X00325
X0033Y00528
X00336042Y0052832
X0033528Y005334
X00343Y00534
X0035179Y00533
X00357
X00358Y00528
X00365Y00526836
X00373
X00381
X0038Y00533999
X00385Y00535
X0039116Y005334
X00389Y00529
X00396999Y00527999
X00403Y00529
X0040894Y005334
X003683
X00348Y00528
X00329Y00536
X0026162Y005461
X0025654
X002632Y005096
X00264Y00471
Y00461
Y00451
Y00431
X00247392Y00419519
X00238252Y00435864
X00222Y00433
X00214
X00206
Y00441
X00214
Y00449
X00222
Y00465
X00214
X00206
Y00457
Y00449
X00214Y00457
Y00473
X00206
X00214Y00481
X00222
X0022733Y0045974
X00222Y00417
X00214
Y00409
X00222
Y00401
Y00393
Y00385
X00214
X00206
Y00393
Y00401
X00214
X00206Y00409
Y00417
Y00377
X00214
X00222
X00221996Y00368808
X00222Y00361
X00206
Y00369
X00214
X00276Y00372
X00286
X00296
X00306
X00326136Y0036195
X00326Y00332
X00316099Y00331999
Y00321999
X00326Y00322
Y00312
X00316
X00306
X00296
Y00302
Y00292
X00286
X00276
Y00302
X00286
Y00312
Y00322
X00296
X00306
Y00332
X00296
X00276Y00322
Y00312
X00306Y00302
Y00292
X00316
X00326
X00336
X00346
Y00302
Y00312
X00336
Y00302
X00326
X00316
X00336Y00322
Y00332
X00396
X00406
Y00322
Y00312
X00416
X00421124Y00312166
X00426Y00312
X00436
Y00302
Y00292
X00426
Y00301
X00416
Y00292
X00406
Y00301
X00396Y00302
Y00292
Y00312
Y00322
X00416
X00426
X00436
X0043852Y0032748
X00436Y00332
X00426
X00416
X00426Y00352
X00436
X0048006Y0037338
X00505Y00375
X00505Y00370036
X00505Y0038
Y00385
Y0039
Y00395
Y004
Y00405
Y0041
Y00415
X00497Y00421
X00493Y00427
X00529132Y00405968
X00532892Y00403352
X00526Y004
X005461Y00396748
X00549Y00393
X00543
X00549Y00387
Y00406
X00540512Y00410972
X00544Y00417
X00574Y00416
X00575Y00372
X00565
X00547Y00348
X00549Y00342
X00547Y0033
X00533999Y00338999
X00532638Y00356108
X00533Y00361
X00515Y0036
X00514Y00366
X00508Y00358394
X00518Y00349
X00515Y00345
Y0034
Y00335
Y0033
Y00325
Y0032
Y00315
Y0031
X00514999Y00294999
X00505Y003
X00504984Y00304984
X0048006Y0029845
Y0032766
X0053213Y00299212
X005441Y002967
X0054864Y002921
X00568Y0031
X0057277Y00306578
X005793Y0031
X00575Y00329
X004699Y0048514
X00465Y0048496
X00445Y00573836
X00437
X00429
X0040386Y0058166
X0038862
X0038Y00582
X00234442Y00580136
X0021209Y0057277
X00326Y00422
Y00412
X00336Y00422
X0022Y00306
Y00298
X00212
Y00306
X00204
X0018Y00298
X00156
Y00306
X0015113Y0030226
X00147322Y00304821
X0014351Y0030226
X00139696Y00299698
X0013589Y0030226
Y0029337
X0011176Y0029972
X0006858
X00021Y00301
X00017Y00298
X0002032Y003127
Y0032004
Y0032766
Y0033528
Y0034417
Y0035179
Y0036068
Y003683
Y0037592
Y0038354
Y0039116
Y0039878
X00059Y0041
X0005842Y0041656
Y0042418
Y0042926
Y0043688
X0006604
Y0042672
X0006731Y0041656
Y0040386
X0010414Y0042672
X00106Y00433
Y00443
Y00453
Y00463
X00140716Y0046482
X0015Y00457
X00158
Y00465
Y00473
X00166
Y00465
Y00457
Y00449
X00158
Y00441
Y00433
X0015
Y00425
Y00417
Y00409
Y00401
X00158
X00166
Y00393
Y00385
X00158
X0015
Y00377
X00158
Y00369
X0015
Y00361
X00166
Y00369
Y00377
Y00409
Y00417
X00158
Y00409
X00166Y00433
Y00441
X00153Y004455
X00149074Y00442
X00141986Y00437134
X0015Y00473
X00127Y005207
X0013208Y0056134
X0016129Y0057531
X00076Y004955
X000127Y0049276
X00011176Y00484886
X00006858Y00486156
X00013208Y00476504
X00012Y00503
Y00508
X000127Y0052959
X0001143Y0053721
X0001524Y0054102
X0002286
X0002667Y0053721
X0003048Y0054102
X00019Y00537
X0001778Y0052451
X0002286Y0051943
X0015875Y0032004
X0016383
X0016891
X0017399
T02
X0001778Y0008636
X0001524Y001143
Y0013462
Y0014224
X0001778Y001524
Y0022352
X00017783Y00264211
X0006604Y002286
X0006096Y001905
X0010922
Y0018288
Y0021336
Y0022098
X001143Y0023114
Y0023876
Y0025654
Y0026416
Y002794
X0013335Y0020701
X0010922Y001524
Y0010922
X0010668Y0008128
X0014986Y00127
X00207264Y00113284
X00225552Y00116586
X00241046Y00116332
X0029972Y0010922
Y0009906
X002921Y0009652
X0032258
X003302Y0010668
X0032258Y001143
X0036068Y000762
X0040894
X0041656Y0007874
X0041148Y000889
X0040132Y0008382
X003937Y0012954
X0039624Y0016002
X004064
X0041402
X004318Y0014351
X0046482Y0015494
X0047244
X0050292Y0016129
Y0013589
X0050165Y0011684
X0051308Y001143
X0052451Y0011423
X0054102Y001143
X0052832Y0013589
Y0015494
X0054991Y0017145
X0055372Y0017907
X0056261
X0057404Y0016891
Y0014605
X0056769Y0013716
X0058293Y0011303
X0058674Y0005588
X0058039Y0004572
X0058674Y0003556
X0058166Y000254
X0054864Y0003429
X005461Y0006985
X005334Y0008255
X0050038
X0045466Y0009017
X00444754Y00185928
X0044958Y0020066
X0037084Y0021336
X00375158Y00239522
X0035814Y0018796
X0036576Y0016002
X00280852Y00182952
X00279908Y00201168
X0030525Y00228034
X0029972Y000508
X0031242Y000254
X0032004Y000127
X0028448Y0001524
X0048641Y0000762
X0050546
X006223Y0001778
X0064008
X0066294
X0067056
X0068199Y00055118
X00665988Y0008255
X00652768Y00093992
X00628142Y00073914
X0072136Y0002794
X00792Y00088
X0084
X00834898Y00165862
X0088Y00176
X007493Y0021082
X0074549Y00278638
X00764032Y00292354
X00783Y003
X00782574Y0031115
X00834Y0034
X0088Y00344
X0088138Y004572
Y0046482
Y0047244
Y0048006
X0083312
Y0047244
Y0046482
Y004572
Y0044958
X0078486Y0044196
X0077724Y004572
Y0048006
X00783998Y00418999
X0077724Y0038862
X007366Y004191
X0072644
X007366Y0044196
X0055372Y0051308
X00552958Y0055118
X00485Y00573836
Y00526836
X00477
X00293
X00285
X00277
X00269
Y00573836
X00277
X00285
X00293
X0021971Y005588
X0021209
X002032
X0019558
Y0054991
X002032
X0021209
X0021971
X0019685Y0051308
Y0050673
Y0050038
X00263652Y00380746
X0013589Y0038354
Y0039116
Y0037592
Y003683
X0013077Y0032638
X0012446Y0032639
X0006096Y0030734
Y002921
X0001778
Y0030734
X00060198Y00363728
X0006604Y0036373
Y00390144
X00060198
X0005969Y0044831
X0006604
Y0045593
X0005969
X0006604Y0046482
Y0047244
Y0048006
X0006223Y0050038
X0004826Y0051562
Y0052197
Y0052832
Y0053467
X0005842Y0054864
Y0055626
Y0057404
Y0058166
Y0058928
X0007874Y0056642
X0009652Y0056388
Y0055626
X0010414
X0013462Y0055245
X0014478
X0015367
Y0052705
X0014478
X0013462
X0015875Y0051181
X0018796Y0054991
Y005588
X0013335Y004191
X0012573
X0011811
X0011049
X0001778Y0046482
Y0047244
Y0048006
T03
X001608Y001575
X001862
X001735Y001829
X001989
X002243
X002497
X00237Y001575
X002116
X007366Y0001905
X00762
X007874
X008128
T04
X00063Y0012
Y0018
X00142Y00045
X001674Y000602
X002431Y00045
X002685Y000602
X00836Y0012
Y0018
Y00264
Y00304
T05
X00367Y00259
T07
X001265Y001245
X00284
T08
X00025Y00025
X00875
X00025Y00575
T09
X000889Y0001905
T10
X00526Y00531995
T11
X00048914Y00068
X00822
X00521Y00517
T12
X00244Y00531795
T13
X00822Y005
X00249Y00517
X00048914Y005
T14
X00875Y00575
T15
X001481Y00094
X002624
M30
